{"glyphs":{"0":{"ha":852,"x_min":77,"x_max":774,"o":"m 426 -18 q 164 105 251 -18 q 77 491 77 228 q 163 878 77 755 q 425 1000 250 1000 q 688 878 601 1000 q 774 491 774 755 q 688 105 774 228 q 426 -18 601 -18 m 426 148 q 547 229 509 148 q 585 491 585 311 q 547 753 585 671 q 425 834 509 834 q 304 753 342 834 q 267 491 267 671 q 305 229 267 311 q 426 148 343 148 z "},"1":{"ha":633,"x_min":30,"x_max":477,"o":"m 477 982 l 477 0 l 292 0 l 292 793 l 83 722 l 30 872 l 316 982 l 477 982 z "},"2":{"ha":728,"x_min":27,"x_max":665,"o":"m 665 161 l 665 0 l 38 0 l 38 163 l 361 526 q 448 638 425 598 q 472 715 472 678 q 435 800 472 769 q 332 830 399 830 q 220 811 278 830 q 110 758 163 792 l 27 898 q 176 972 88 944 q 350 1000 264 1000 q 513 966 442 1000 q 621 870 583 932 q 659 727 659 808 q 623 586 659 655 q 498 420 586 517 l 260 161 l 665 161 z "},"3":{"ha":768,"x_min":27,"x_max":693,"o":"m 449 613 q 627 512 562 593 q 693 312 693 431 q 649 139 693 214 q 524 23 605 64 q 336 -18 444 -18 q 165 7 250 -18 q 27 75 81 33 l 95 224 q 220 172 157 190 q 336 153 282 153 q 459 195 415 153 q 503 312 503 236 q 462 425 503 384 q 347 465 420 465 q 262 454 309 465 l 190 548 l 458 821 l 53 821 l 53 982 l 661 982 l 661 821 l 449 613 z "},"4":{"ha":793,"x_min":23,"x_max":743,"o":"m 743 343 l 743 184 l 628 184 l 628 0 l 448 0 l 448 184 l 23 184 l 23 343 l 368 982 l 628 982 l 628 343 l 743 343 m 448 343 l 448 814 l 213 343 l 448 343 z "},"5":{"ha":757,"x_min":37,"x_max":688,"o":"m 368 640 q 536 601 464 640 q 648 489 609 562 q 688 321 688 416 q 643 143 688 220 q 517 24 598 66 q 328 -18 435 -18 q 166 6 245 -18 q 37 69 87 30 l 104 217 q 220 169 161 186 q 328 152 279 152 q 453 196 408 152 q 498 317 498 240 q 457 433 498 392 q 345 473 416 473 q 195 438 273 473 l 83 499 l 107 982 l 642 982 l 642 821 l 273 821 l 256 625 q 368 640 309 640 z "},"6":{"ha":774,"x_min":56,"x_max":730,"o":"m 438 633 q 591 594 525 633 q 694 484 658 555 q 730 317 730 412 q 688 141 730 217 q 572 24 647 65 q 396 -18 496 -18 q 217 25 294 -18 q 98 146 140 68 q 56 327 56 224 q 98 549 56 448 q 250 776 141 651 l 444 1000 l 589 887 l 391 674 l 345 623 q 438 633 392 633 m 396 144 q 504 189 465 144 q 543 313 543 233 q 501 441 543 396 q 385 487 460 487 q 271 464 332 487 q 250 400 258 437 q 241 327 241 363 q 282 192 241 240 q 396 144 323 144 m 222 442 l 229 446 l 222 442 z "},"7":{"ha":677,"x_min":9,"x_max":646,"o":"m 646 982 l 646 821 l 270 -14 l 95 58 l 450 821 l 9 821 l 9 982 l 646 982 z "},"8":{"ha":802,"x_min":56,"x_max":746,"o":"m 400 -18 q 219 17 297 -18 q 98 115 141 52 q 56 262 56 179 q 109 410 56 342 q 251 511 163 479 q 134 601 178 537 q 90 741 90 665 q 128 877 90 818 q 237 968 167 936 q 400 1000 307 1000 q 564 968 494 1000 q 673 877 635 936 q 712 741 712 818 q 667 603 712 665 q 548 515 623 541 q 692 419 637 488 q 746 262 746 350 q 703 115 746 179 q 582 17 661 52 q 400 -18 503 -18 m 407 582 q 497 638 465 601 q 529 723 529 675 q 495 812 529 780 q 400 845 461 845 q 307 812 340 845 q 273 723 273 780 q 309 640 273 677 q 407 582 345 602 m 400 138 q 518 174 475 138 q 562 274 562 210 q 517 371 562 326 q 395 445 473 416 q 281 376 321 420 q 240 274 240 331 q 283 174 240 210 q 400 138 326 138 z "},"9":{"ha":774,"x_min":45,"x_max":719,"o":"m 378 1000 q 557 957 480 1000 q 677 836 635 914 q 719 655 719 758 q 676 433 719 534 q 525 206 633 331 l 331 -18 l 186 95 l 384 308 l 430 359 q 336 349 382 349 q 183 388 250 349 q 81 498 117 427 q 45 665 45 570 q 86 841 45 765 q 203 958 127 917 q 378 1000 278 1000 m 232 669 q 273 541 232 586 q 389 495 315 495 q 503 518 442 495 q 525 582 517 545 q 533 655 533 618 q 492 790 533 742 q 378 838 452 838 q 271 793 309 838 q 232 669 232 749 m 552 540 l 545 536 l 552 540 z "},"\u0000":{"ha":0,"x_min":0,"x_max":0,"o":""},"\r":{"ha":0,"x_min":0,"x_max":0,"o":""},"\u0002":{"ha":0,"x_min":0,"x_max":0,"o":""},"\b":{"ha":353,"x_min":0,"x_max":0,"o":""},"\t":{"ha":694,"x_min":0,"x_max":0,"o":""},"\u001d":{"ha":277,"x_min":0,"x_max":0,"o":""}," ":{"ha":277,"x_min":0,"x_max":0,"o":""},"!":{"ha":494,"x_min":133,"x_max":361,"o":"m 145 982 l 349 982 l 320 297 l 174 297 l 145 982 m 247 -18 q 163 12 194 -18 q 133 91 133 41 q 163 171 133 142 q 247 199 193 199 q 330 170 300 199 q 361 92 361 141 q 331 12 361 41 q 247 -18 301 -18 z "},"\"":{"ha":556,"x_min":76,"x_max":480,"o":"m 308 982 l 480 982 l 452 614 l 336 614 l 308 982 m 76 982 l 248 982 l 220 614 l 104 614 l 76 982 z "},"#":{"ha":956,"x_min":28,"x_max":928,"o":"m 730 608 l 690 374 l 867 374 l 867 243 l 669 243 l 628 0 l 480 0 l 521 243 l 354 243 l 313 0 l 167 0 l 208 243 l 28 243 l 28 374 l 229 374 l 269 608 l 87 608 l 87 739 l 290 739 l 331 982 l 479 982 l 438 739 l 605 739 l 646 982 l 792 982 l 751 739 l 928 739 l 928 608 l 730 608 m 582 608 l 415 608 l 377 374 l 544 374 l 582 608 z "},"$":{"ha":757,"x_min":46,"x_max":697,"o":"m 697 301 q 630 106 697 180 q 438 14 563 31 l 438 -115 l 316 -115 l 316 9 q 172 36 241 15 q 46 92 102 57 l 103 233 q 319 165 212 174 l 320 418 l 286 427 q 112 523 165 461 q 58 689 58 585 q 125 882 58 810 q 316 970 193 955 l 316 1097 l 438 1097 l 438 971 q 673 911 560 959 l 614 770 q 435 814 510 806 l 434 575 l 469 566 q 644 470 590 532 q 697 301 697 408 m 232 718 q 252 652 232 678 q 320 609 273 627 l 319 814 q 253 783 274 807 q 232 718 232 760 m 435 171 q 503 205 481 180 q 524 273 524 229 q 503 340 524 315 q 434 384 483 366 l 435 171 z "},"%":{"ha":1294,"x_min":64,"x_max":1230,"o":"m 293 392 q 64 696 64 392 q 293 1000 64 1000 q 522 696 522 1000 q 293 392 522 392 m 803 982 l 954 982 l 491 0 l 340 0 l 803 982 m 293 518 q 352 560 334 518 q 370 696 370 602 q 352 831 370 789 q 293 873 334 873 q 234 831 252 873 q 216 696 216 789 q 234 560 216 602 q 293 518 252 518 m 1001 -18 q 772 286 772 -18 q 1001 590 772 590 q 1230 286 1230 590 q 1001 -18 1230 -18 m 1001 109 q 1060 151 1042 109 q 1078 286 1078 193 q 1060 422 1078 380 q 1001 464 1042 464 q 942 422 960 464 q 924 286 924 380 q 942 151 924 193 q 1001 109 960 109 z "},"&":{"ha":906,"x_min":65,"x_max":875,"o":"m 747 -24 l 644 88 q 523 8 591 34 q 366 -18 454 -18 q 144 47 222 -18 q 65 229 65 111 q 96 357 65 301 q 198 465 127 412 l 259 511 l 218 555 q 153 654 172 608 q 133 757 133 700 q 205 937 133 875 q 414 1000 278 1000 q 616 941 544 1000 q 688 776 688 883 q 654 654 688 708 q 536 537 620 601 l 494 506 l 627 359 l 694 513 l 869 513 l 755 260 q 742 232 747 241 l 875 87 l 747 -24 m 438 647 q 502 706 486 684 q 518 758 518 728 q 493 822 518 802 q 415 842 468 842 q 338 821 363 842 q 313 757 313 800 q 330 696 313 726 q 395 614 346 667 l 438 647 m 389 149 q 537 205 481 149 l 358 401 l 320 373 q 270 319 285 346 q 255 258 255 293 q 389 149 255 149 z "},"'":{"ha":324,"x_min":76,"x_max":248,"o":"m 76 982 l 248 982 l 220 614 l 104 614 l 76 982 z "},"(":{"ha":456,"x_min":60,"x_max":415,"o":"m 290 -183 q 60 463 60 117 q 290 1111 60 811 l 415 1017 q 236 464 236 780 q 415 -90 236 149 l 290 -183 z "},")":{"ha":456,"x_min":41,"x_max":396,"o":"m 41 -90 q 220 464 220 149 q 41 1017 220 780 l 165 1111 q 396 463 396 811 q 165 -183 396 117 l 41 -90 z "},"*":{"ha":732,"x_min":65,"x_max":667,"o":"m 467 651 l 600 488 l 479 392 l 366 570 l 254 392 l 133 488 l 266 651 l 65 703 l 114 849 l 304 773 l 289 982 l 444 982 l 429 773 l 618 849 l 667 703 l 467 651 z "},"+":{"ha":785,"x_min":54,"x_max":731,"o":"m 731 419 l 476 419 l 476 140 l 309 140 l 309 419 l 54 419 l 54 581 l 309 581 l 309 860 l 476 860 l 476 581 l 731 581 l 731 419 z "},",":{"ha":339,"x_min":-3,"x_max":273,"o":"m -3 -174 q 72 -62 50 -117 q 94 72 94 -7 q 85 179 94 122 l 264 179 q 273 75 273 126 q 225 -102 273 -23 q 73 -255 178 -180 l -3 -174 z "},"-":{"ha":560,"x_min":53,"x_max":507,"o":"m 53 480 l 507 480 l 507 338 l 53 338 l 53 480 z "},".":{"ha":361,"x_min":66,"x_max":294,"o":"m 180 -18 q 97 12 127 -18 q 66 91 66 41 q 96 171 66 142 q 180 199 126 199 q 264 170 233 199 q 294 92 294 141 q 264 12 294 41 q 180 -18 235 -18 z "},"/":{"ha":620,"x_min":18,"x_max":610,"o":"m 458 1016 l 610 1016 l 170 -117 l 18 -117 l 458 1016 z "},":":{"ha":415,"x_min":94,"x_max":321,"o":"m 208 430 q 124 459 155 430 q 94 538 94 488 q 123 618 94 590 q 208 647 153 647 q 291 618 260 647 q 321 540 321 589 q 292 459 321 488 q 208 430 262 430 m 208 -18 q 124 12 155 -18 q 94 91 94 41 q 123 171 94 142 q 208 199 153 199 q 291 170 260 199 q 321 92 321 141 q 292 12 321 41 q 208 -18 262 -18 z "},";":{"ha":415,"x_min":31,"x_max":321,"o":"m 208 430 q 124 459 155 430 q 94 538 94 488 q 123 618 94 590 q 208 647 153 647 q 291 618 260 647 q 321 540 321 589 q 292 459 321 488 q 208 430 262 430 m 31 -174 q 106 -62 84 -117 q 127 72 127 -7 q 119 179 127 122 l 298 179 q 307 75 307 126 q 259 -102 307 -23 q 107 -255 212 -180 l 31 -174 z "},"<":{"ha":590,"x_min":43,"x_max":547,"o":"m 43 495 l 412 901 l 547 776 l 283 495 l 547 214 l 412 90 l 43 495 z "},"=":{"ha":785,"x_min":85,"x_max":700,"o":"m 85 738 l 700 738 l 700 574 l 85 574 l 85 738 m 85 416 l 700 416 l 700 252 l 85 252 l 85 416 z "},">":{"ha":590,"x_min":43,"x_max":547,"o":"m 43 214 l 307 495 l 43 776 l 178 901 l 547 495 l 178 90 l 43 214 z "},"?":{"ha":708,"x_min":49,"x_max":646,"o":"m 231 297 q 227 363 227 349 q 255 498 227 445 q 359 610 283 551 q 434 681 415 655 q 453 738 453 707 q 335 827 453 827 q 122 761 237 827 l 49 911 q 191 977 111 954 q 353 1000 270 1000 q 569 932 492 1000 q 646 742 646 865 q 616 627 646 674 q 507 518 586 579 q 416 433 439 465 q 393 359 393 401 q 397 297 393 345 l 231 297 m 315 -18 q 231 12 262 -18 q 201 91 201 41 q 231 171 201 142 q 315 199 260 199 q 398 170 368 199 q 429 92 429 141 q 399 12 429 41 q 315 -18 369 -18 z "},"@":{"ha":1103,"x_min":79,"x_max":1031,"o":"m 576 749 q 746 697 674 749 l 746 429 q 804 351 746 351 q 878 401 852 351 q 903 543 903 452 q 814 798 903 708 q 560 888 724 888 q 303 784 395 888 q 212 491 212 680 q 306 195 212 300 q 574 91 400 91 q 789 145 697 91 l 838 39 q 722 -13 791 5 q 574 -31 652 -31 q 310 33 422 -31 q 138 216 198 98 q 79 491 79 334 q 138 765 79 647 q 307 948 198 883 q 560 1013 416 1013 q 807 955 700 1013 q 972 789 914 897 q 1031 543 1031 682 q 1004 385 1031 453 q 929 279 978 316 q 817 241 880 241 q 700 297 736 241 q 557 233 654 233 q 398 302 454 233 q 342 494 342 370 q 403 682 342 616 q 576 749 464 749 m 625 627 q 572 635 598 635 q 467 494 467 635 q 571 347 467 347 q 625 357 597 347 l 625 627 z "},"A":{"ha":909,"x_min":20,"x_max":888,"o":"m 628 212 l 278 212 l 216 0 l 20 0 l 353 982 l 556 982 l 888 0 l 692 0 l 628 212 m 581 374 l 453 802 l 327 374 l 581 374 z "},"B":{"ha":879,"x_min":106,"x_max":827,"o":"m 646 518 q 827 296 827 464 q 743 77 827 155 q 505 0 658 0 l 208 0 l 106 0 l 106 982 l 292 982 l 460 982 q 690 909 609 982 q 772 701 772 836 q 646 518 772 566 m 292 817 l 292 582 l 460 582 q 582 697 582 582 q 450 817 582 817 l 292 817 m 514 165 q 636 292 636 165 q 505 422 636 422 l 292 422 l 292 165 l 514 165 z "},"C":{"ha":818,"x_min":52,"x_max":783,"o":"m 506 -16 q 171 111 290 -16 q 52 471 52 239 q 106 753 52 633 q 261 936 160 872 q 499 1000 362 1000 q 648 979 575 1000 q 774 921 722 959 l 711 779 q 496 831 605 831 q 310 741 376 831 q 244 484 244 650 q 514 155 244 155 q 719 202 639 155 l 783 61 q 665 4 738 24 q 506 -16 591 -16 z "},"D":{"ha":940,"x_min":106,"x_max":875,"o":"m 431 982 q 762 859 648 982 q 875 492 875 735 q 762 123 875 247 q 431 0 648 0 l 106 0 l 106 982 l 431 982 m 426 167 q 682 492 682 167 q 427 815 682 815 l 293 815 l 293 167 l 426 167 z "},"E":{"ha":784,"x_min":106,"x_max":743,"o":"m 743 167 l 743 0 l 106 0 l 106 982 l 724 982 l 724 815 l 293 815 l 293 586 l 610 586 l 610 418 l 293 418 l 293 167 l 743 167 z "},"F":{"ha":732,"x_min":106,"x_max":713,"o":"m 293 815 l 293 559 l 635 559 l 635 391 l 293 391 l 293 0 l 106 0 l 106 982 l 713 982 l 713 815 l 293 815 z "},"G":{"ha":906,"x_min":65,"x_max":827,"o":"m 827 563 l 827 61 q 692 3 772 23 q 528 -18 613 -18 q 186 115 307 -18 q 65 491 65 248 q 186 867 65 734 q 528 1000 307 1000 q 690 979 614 1000 q 818 922 766 959 l 764 773 q 525 833 636 833 q 258 491 258 833 q 528 149 258 149 q 640 163 582 149 l 640 397 l 479 397 l 479 563 l 827 563 z "},"H":{"ha":955,"x_min":106,"x_max":849,"o":"m 849 982 l 849 0 l 662 0 l 662 415 l 293 415 l 293 0 l 106 0 l 106 982 l 293 982 l 293 582 l 662 582 l 662 982 l 849 982 z "},"I":{"ha":404,"x_min":109,"x_max":296,"o":"m 109 982 l 296 982 l 296 0 l 109 0 l 109 982 z "},"J":{"ha":640,"x_min":0,"x_max":541,"o":"m 244 -18 q 107 2 171 -18 q 0 58 43 22 l 66 201 q 235 151 159 151 q 354 267 354 151 l 354 982 l 541 982 l 541 254 q 463 54 541 125 q 244 -18 385 -18 z "},"K":{"ha":863,"x_min":106,"x_max":882,"o":"m 397 408 l 293 278 l 293 0 l 106 0 l 106 982 l 293 982 l 293 519 l 639 982 l 860 982 l 515 555 l 882 0 l 661 0 l 397 408 z "},"L":{"ha":720,"x_min":106,"x_max":688,"o":"m 688 168 l 688 0 l 106 0 l 106 982 l 293 982 l 293 168 l 688 168 z "},"M":{"ha":1160,"x_min":106,"x_max":1054,"o":"m 1054 982 l 1054 0 l 872 0 l 872 682 l 677 191 l 481 191 l 285 682 l 285 0 l 106 0 l 106 982 l 331 982 l 581 363 l 826 982 l 1054 982 z "},"N":{"ha":985,"x_min":106,"x_max":879,"o":"m 879 982 l 879 0 l 699 0 l 290 666 l 290 0 l 106 0 l 106 982 l 286 982 l 694 319 l 694 982 l 879 982 z "},"O":{"ha":971,"x_min":65,"x_max":906,"o":"m 486 -18 q 173 111 281 -18 q 65 491 65 239 q 173 871 65 743 q 486 1000 281 1000 q 798 871 690 1000 q 906 491 906 743 q 798 111 906 239 q 486 -18 690 -18 m 486 149 q 713 491 713 149 q 486 833 713 833 q 258 491 258 833 q 486 149 258 149 z "},"P":{"ha":812,"x_min":106,"x_max":799,"o":"m 471 982 q 713 894 628 982 q 799 646 799 806 q 711 395 799 484 q 461 307 623 307 l 293 307 l 293 0 l 106 0 l 106 982 l 293 982 l 471 982 m 471 473 q 606 642 606 473 q 461 815 606 815 l 293 815 l 293 473 l 471 473 z "},"Q":{"ha":971,"x_min":65,"x_max":925,"o":"m 806 -224 l 616 -3 q 486 -18 553 -18 q 173 111 281 -18 q 65 491 65 239 q 173 871 65 743 q 486 1000 281 1000 q 798 871 690 1000 q 906 491 906 743 q 760 72 906 195 l 925 -104 l 806 -224 m 258 491 q 486 149 258 149 q 713 491 713 149 q 486 833 713 833 q 258 491 258 833 z "},"R":{"ha":861,"x_min":106,"x_max":845,"o":"m 411 339 l 293 339 l 293 0 l 106 0 l 106 982 l 293 982 l 458 982 q 699 899 614 982 q 784 662 784 815 q 737 473 784 549 q 602 363 690 397 l 845 0 l 621 0 l 411 339 m 293 499 l 458 499 q 591 658 591 499 q 453 818 591 818 l 293 818 l 293 499 z "},"S":{"ha":765,"x_min":39,"x_max":712,"o":"m 363 -16 q 189 7 274 -16 q 39 73 104 31 l 99 220 q 363 145 228 145 q 533 262 533 145 q 502 342 533 311 q 401 392 471 373 l 290 423 q 108 524 164 458 q 52 699 52 589 q 138 920 52 841 q 381 998 225 998 q 536 981 456 998 q 688 930 616 963 l 627 784 q 378 837 484 837 q 231 730 231 837 q 262 650 231 681 q 362 601 293 620 l 473 570 q 656 469 601 534 q 712 293 712 404 q 621 64 712 145 q 363 -16 529 -16 z "},"T":{"ha":719,"x_min":22,"x_max":697,"o":"m 697 814 l 453 814 l 453 0 l 266 0 l 266 814 l 22 814 l 22 982 l 453 982 l 697 982 l 697 814 z "},"U":{"ha":933,"x_min":99,"x_max":834,"o":"m 465 -18 q 195 75 290 -18 q 99 338 99 168 l 99 982 l 286 982 l 286 351 q 465 149 286 149 q 647 351 647 149 l 647 982 l 834 982 l 834 338 q 738 75 834 168 q 465 -18 642 -18 z "},"V":{"ha":860,"x_min":26,"x_max":834,"o":"m 834 982 l 532 0 l 328 0 l 26 982 l 222 982 l 431 197 l 639 982 l 834 982 z "},"W":{"ha":1218,"x_min":28,"x_max":1190,"o":"m 1190 982 l 956 0 l 753 0 l 608 727 l 464 0 l 260 0 l 28 982 l 221 982 l 365 221 l 509 981 l 709 981 l 856 220 l 998 982 l 1190 982 z "},"X":{"ha":827,"x_min":22,"x_max":806,"o":"m 597 0 l 411 342 l 228 0 l 22 0 l 311 498 l 33 982 l 241 982 l 418 654 l 597 982 l 803 982 l 517 498 l 806 0 l 597 0 z "},"Y":{"ha":800,"x_min":15,"x_max":785,"o":"m 785 982 l 492 324 l 492 0 l 305 0 l 305 324 l 15 982 l 214 982 l 401 528 l 587 982 l 785 982 z "},"Z":{"ha":753,"x_min":45,"x_max":705,"o":"m 705 164 l 705 0 l 45 0 l 45 165 l 486 818 l 64 818 l 64 982 l 697 982 l 697 818 l 256 164 l 705 164 z "},"[":{"ha":486,"x_min":106,"x_max":463,"o":"m 274 951 l 274 -23 l 463 -23 l 463 -164 l 106 -164 l 106 1092 l 463 1092 l 463 951 l 274 951 z "},"\\":{"ha":620,"x_min":9,"x_max":602,"o":"m 450 -117 l 9 1016 l 161 1016 l 602 -117 l 450 -117 z "},"]":{"ha":486,"x_min":23,"x_max":380,"o":"m 380 1092 l 380 -164 l 23 -164 l 23 -23 l 212 -23 l 212 951 l 23 951 l 23 1092 l 380 1092 z "},"^":{"ha":609,"x_min":9,"x_max":600,"o":"m 227 982 l 381 982 l 600 680 l 427 680 l 305 868 l 180 680 l 9 680 l 227 982 z "},"_":{"ha":815,"x_min":106,"x_max":709,"o":"m 106 -76 l 709 -76 l 709 -225 l 106 -225 l 106 -76 z "},"`":{"ha":678,"x_min":136,"x_max":445,"o":"m 136 1050 l 136 1063 l 327 1063 l 445 848 l 445 834 l 304 834 l 136 1050 z "},"a":{"ha":727,"x_min":35,"x_max":639,"o":"m 353 758 q 564 694 490 758 q 639 515 639 631 l 639 0 l 475 0 l 475 109 q 256 -15 408 -15 q 93 43 151 -15 q 35 208 35 102 q 135 402 35 340 q 457 467 235 464 l 457 494 q 319 595 457 595 q 146 557 235 595 l 100 699 q 353 758 227 758 m 304 140 q 457 212 392 140 l 457 345 q 269 314 327 343 q 210 222 210 285 q 304 140 210 140 z "},"b":{"ha":788,"x_min":98,"x_max":735,"o":"m 468 758 q 665 657 595 758 q 735 372 735 556 q 665 84 735 186 q 467 -18 594 -18 q 349 9 401 -18 q 264 85 296 35 l 264 0 l 98 0 l 98 696 l 98 1044 l 282 1044 l 282 663 q 468 758 349 758 m 414 148 q 547 365 547 148 q 408 587 547 587 q 343 572 373 587 q 282 525 313 557 l 282 209 q 342 163 308 179 q 414 148 376 148 z "},"c":{"ha":655,"x_min":47,"x_max":629,"o":"m 404 -16 q 141 82 235 -16 q 47 359 47 180 q 91 569 47 479 q 214 709 134 659 q 397 758 293 758 q 519 741 460 758 q 621 692 578 723 l 556 549 q 395 591 460 591 q 277 533 319 591 q 236 369 236 475 q 412 152 236 152 q 567 193 490 152 l 629 52 q 404 -16 541 -16 z "},"d":{"ha":788,"x_min":53,"x_max":690,"o":"m 690 1044 l 690 45 l 690 0 l 524 0 l 524 106 q 320 -18 454 -18 q 123 83 193 -18 q 53 369 53 184 q 123 656 53 555 q 321 758 194 758 q 426 738 378 758 q 506 680 473 718 l 506 1044 l 690 1044 m 380 153 q 445 168 415 153 q 506 216 475 183 l 506 532 q 446 577 480 562 q 374 593 412 593 q 241 376 241 593 q 380 153 241 153 z "},"e":{"ha":741,"x_min":50,"x_max":696,"o":"m 696 401 q 688 312 696 351 l 237 312 q 422 149 260 149 q 601 193 511 149 l 666 56 q 543 3 612 22 q 401 -16 473 -16 q 142 85 233 -16 q 50 370 50 186 q 136 657 50 556 q 378 758 222 758 q 613 665 530 758 q 696 401 696 571 m 374 597 q 236 435 254 597 l 513 435 q 474 555 510 513 q 374 597 438 597 z "},"f":{"ha":505,"x_min":7,"x_max":503,"o":"m 119 582 l 7 582 l 7 741 l 121 741 l 121 796 q 199 996 121 925 q 420 1067 277 1067 q 503 1061 467 1067 l 503 901 q 420 906 464 906 q 304 796 304 906 l 304 741 l 477 741 l 477 582 l 304 582 l 304 0 l 119 0 l 119 582 z "},"g":{"ha":791,"x_min":53,"x_max":693,"o":"m 693 741 l 693 30 q 604 -213 693 -127 q 353 -298 515 -298 q 222 -284 286 -298 q 106 -243 157 -270 l 157 -98 q 332 -137 248 -137 q 509 30 509 -137 l 509 118 q 323 23 442 23 q 123 119 194 23 q 53 389 53 214 q 124 662 53 566 q 324 758 195 758 q 442 732 389 758 q 526 655 495 705 l 526 741 l 693 741 m 382 194 q 448 209 418 194 q 509 256 477 224 l 509 532 q 449 577 483 562 q 377 593 415 593 q 241 396 241 593 q 382 194 241 194 z "},"h":{"ha":800,"x_min":98,"x_max":709,"o":"m 488 758 q 652 695 594 758 q 709 515 709 632 l 709 0 l 525 0 l 525 488 q 416 587 525 587 q 347 575 378 587 q 282 537 316 563 l 282 0 l 98 0 l 98 1044 l 282 1044 l 282 667 q 488 758 365 758 z "},"i":{"ha":385,"x_min":83,"x_max":302,"o":"m 100 741 l 285 741 l 285 0 l 100 0 l 100 741 m 193 837 q 112 865 141 837 q 83 941 83 892 q 112 1019 83 991 q 193 1047 141 1047 q 273 1019 244 1047 q 302 943 302 991 q 273 865 302 892 q 193 837 244 837 z "},"j":{"ha":385,"x_min":-94,"x_max":302,"o":"m -94 -152 q 28 -97 -14 -125 q 85 -31 69 -69 q 100 72 100 7 l 100 741 l 285 741 l 285 66 q 256 -104 285 -38 q 160 -216 228 -171 q -33 -302 92 -262 l -94 -152 m 193 837 q 112 865 141 837 q 83 941 83 892 q 112 1019 83 991 q 193 1047 141 1047 q 273 1019 244 1047 q 302 943 302 991 q 273 865 302 892 q 193 837 244 837 z "},"k":{"ha":766,"x_min":98,"x_max":758,"o":"m 359 292 l 282 199 l 282 0 l 98 0 l 98 1044 l 282 1044 l 282 434 l 528 741 l 738 741 l 476 430 l 758 0 l 548 0 l 359 292 z "},"l":{"ha":442,"x_min":95,"x_max":404,"o":"m 294 -9 q 144 39 194 -9 q 95 189 95 88 l 95 1044 l 279 1044 l 279 229 q 294 172 279 190 q 345 155 309 155 q 392 159 366 155 l 404 3 q 294 -9 351 -9 z "},"m":{"ha":1203,"x_min":98,"x_max":1112,"o":"m 898 758 q 1056 694 1000 758 q 1112 515 1112 631 l 1112 0 l 928 0 l 928 488 q 826 587 928 587 q 762 575 792 587 q 699 537 731 563 l 699 515 l 699 0 l 514 0 l 514 488 q 411 587 514 587 q 282 537 346 587 l 282 0 l 98 0 l 98 741 l 264 741 l 264 647 q 483 758 351 758 q 602 728 552 758 q 675 642 651 699 q 898 758 768 758 z "},"n":{"ha":798,"x_min":98,"x_max":707,"o":"m 487 758 q 649 694 591 758 q 707 515 707 631 l 707 0 l 522 0 l 522 488 q 415 587 522 587 q 347 575 378 587 q 282 537 316 563 l 282 0 l 98 0 l 98 741 l 264 741 l 264 647 q 487 758 351 758 z "},"o":{"ha":764,"x_min":53,"x_max":711,"o":"m 381 -18 q 138 80 222 -18 q 53 370 53 178 q 138 660 53 562 q 382 758 224 758 q 626 661 541 758 q 711 370 711 563 q 625 81 711 179 q 381 -18 540 -18 m 381 146 q 522 370 522 146 q 382 594 522 594 q 241 370 241 594 q 381 146 241 146 z "},"p":{"ha":788,"x_min":98,"x_max":735,"o":"m 468 758 q 665 657 595 758 q 735 372 735 556 q 665 84 735 186 q 467 -18 594 -18 q 362 3 410 -18 q 282 61 315 23 l 282 -281 l 98 -281 l 98 696 l 98 741 l 264 741 l 264 635 q 468 758 334 758 m 414 148 q 547 365 547 148 q 408 587 547 587 q 343 572 373 587 q 282 525 313 557 l 282 209 q 342 163 308 179 q 414 148 376 148 z "},"q":{"ha":788,"x_min":53,"x_max":690,"o":"m 690 741 l 690 45 l 690 -281 l 506 -281 l 506 77 q 320 -18 439 -18 q 123 83 193 -18 q 53 369 53 184 q 123 656 53 555 q 321 758 194 758 q 439 732 387 758 q 524 655 492 705 l 524 741 l 690 741 m 380 153 q 445 168 415 153 q 506 216 475 183 l 506 532 q 446 577 480 562 q 374 593 412 593 q 241 376 241 593 q 380 153 241 153 z "},"r":{"ha":551,"x_min":98,"x_max":537,"o":"m 456 755 q 537 738 502 755 l 502 566 q 415 578 461 578 q 337 562 369 578 q 282 511 305 547 l 282 0 l 98 0 l 98 741 l 264 741 l 264 624 q 456 755 327 755 z "},"s":{"ha":639,"x_min":27,"x_max":598,"o":"m 304 -16 q 154 3 227 -16 q 27 58 81 23 l 91 208 q 304 145 191 145 q 422 212 422 145 q 401 256 422 239 q 332 285 380 274 l 236 308 q 85 382 132 332 q 39 519 39 433 q 113 694 39 632 q 321 757 187 757 q 457 740 389 757 q 579 693 525 723 l 511 547 q 319 595 411 595 q 216 537 216 595 q 237 494 216 511 q 305 467 259 477 l 401 444 q 551 368 505 419 q 598 229 598 317 q 521 48 598 113 q 304 -16 444 -16 z "},"t":{"ha":548,"x_min":15,"x_max":524,"o":"m 387 -11 q 127 228 127 -11 l 127 582 l 15 582 l 15 741 l 129 741 l 129 941 l 312 941 l 312 741 l 514 741 l 514 582 l 312 582 l 312 262 q 337 179 312 205 q 416 153 362 153 q 495 164 454 153 l 524 8 q 387 -11 456 -11 z "},"u":{"ha":787,"x_min":88,"x_max":689,"o":"m 689 741 l 689 0 l 522 0 l 522 104 q 304 -18 441 -18 q 144 46 201 -18 q 88 225 88 110 l 88 741 l 273 741 l 273 252 q 376 153 273 153 q 444 168 414 153 q 505 213 473 182 l 505 741 l 689 741 z "},"v":{"ha":715,"x_min":19,"x_max":696,"o":"m 696 741 l 457 0 l 259 0 l 19 741 l 205 741 l 359 186 l 511 741 l 696 741 z "},"w":{"ha":1073,"x_min":22,"x_max":1051,"o":"m 1051 741 l 850 0 l 652 0 l 536 519 l 422 0 l 224 0 l 22 741 l 206 741 l 326 194 l 444 741 l 631 741 l 753 194 l 868 741 l 1051 741 z "},"x":{"ha":697,"x_min":16,"x_max":681,"o":"m 481 0 l 346 235 l 213 0 l 16 0 l 250 377 l 27 741 l 227 741 l 353 519 l 481 741 l 678 741 l 448 377 l 681 0 l 481 0 z "},"y":{"ha":709,"x_min":19,"x_max":690,"o":"m 690 741 l 467 42 q 336 -168 426 -87 q 85 -298 245 -248 l 23 -144 q 171 -77 117 -111 q 259 1 225 -43 l 19 741 l 205 741 l 357 195 l 506 741 l 690 741 z "},"z":{"ha":640,"x_min":38,"x_max":600,"o":"m 600 156 l 600 0 l 38 0 l 38 156 l 385 585 l 52 585 l 52 741 l 591 741 l 591 585 l 244 156 l 600 156 z "},"{":{"ha":517,"x_min":11,"x_max":495,"o":"m 457 -178 q 279 -114 342 -152 q 190 -15 217 -76 q 163 146 163 46 l 163 286 q 125 366 163 340 q 11 393 88 392 l 11 534 q 125 562 88 536 q 163 642 163 587 l 163 783 q 190 943 163 883 q 279 1042 217 1004 q 457 1105 342 1080 l 495 972 q 392 935 427 956 q 343 880 357 914 q 330 783 330 845 l 330 642 q 212 465 330 498 q 330 286 330 433 l 330 146 q 343 49 330 84 q 392 -7 357 14 q 495 -45 427 -28 l 457 -178 z "},"|":{"ha":349,"x_min":106,"x_max":243,"o":"m 106 1107 l 243 1107 l 243 -339 l 106 -339 l 106 1107 z "},"}":{"ha":517,"x_min":22,"x_max":506,"o":"m 22 -45 q 125 -7 90 -28 q 174 49 160 14 q 187 146 187 84 l 187 286 q 305 465 187 433 q 187 642 187 498 l 187 783 q 174 880 187 845 q 125 935 160 914 q 22 972 90 956 l 60 1105 q 237 1042 175 1080 q 327 943 300 1004 q 354 783 354 883 l 354 642 q 391 562 354 587 q 506 534 429 536 l 506 393 q 391 366 429 392 q 354 286 354 340 l 354 146 q 327 -15 354 46 q 237 -114 300 -76 q 60 -178 175 -152 l 22 -45 z "},"~":{"ha":785,"x_min":54,"x_max":731,"o":"m 510 368 q 442 379 471 368 q 378 412 414 391 q 329 440 350 431 q 282 449 308 449 q 222 431 251 449 q 161 374 194 414 l 54 484 q 275 612 157 612 q 343 600 315 612 q 407 567 372 589 q 456 539 435 548 q 503 530 477 530 q 563 548 534 530 q 624 605 591 566 l 731 495 q 510 368 628 368 z "}," ":{"ha":277,"x_min":0,"x_max":0,"o":""},"¡":{"ha":494,"x_min":133,"x_max":361,"o":"m 247 742 q 330 713 300 742 q 361 633 361 684 q 331 553 361 582 q 247 525 301 525 q 163 554 194 525 q 133 632 133 583 q 163 713 133 684 q 247 742 193 742 m 349 -258 l 145 -258 l 174 427 l 320 427 l 349 -258 z "},"¢":{"ha":662,"x_min":47,"x_max":625,"o":"m 625 99 q 453 38 556 47 l 453 -115 l 331 -115 l 331 39 q 121 147 194 58 q 47 384 47 236 q 124 620 47 526 q 331 732 201 713 l 331 888 l 453 888 l 453 734 q 617 675 547 723 l 553 538 q 453 571 500 563 l 453 199 q 566 233 517 206 l 625 99 m 231 385 q 255 267 231 311 q 331 208 279 224 l 331 568 q 231 385 231 537 z "},"£":{"ha":724,"x_min":57,"x_max":667,"o":"m 377 416 q 344 283 376 345 q 243 164 312 222 l 665 164 l 665 0 l 69 0 l 69 163 l 109 201 q 180 294 159 250 q 201 399 201 339 l 201 416 l 57 416 l 57 571 l 157 571 q 125 655 136 618 q 114 742 114 692 q 190 932 114 865 q 404 1000 266 1000 q 553 977 484 1000 q 667 914 621 955 l 578 765 q 404 827 487 827 q 298 730 298 827 q 307 673 298 700 q 334 598 315 646 l 345 571 l 578 571 l 578 416 l 377 416 z "},"¤":{"ha":811,"x_min":53,"x_max":758,"o":"m 731 425 q 666 195 731 283 l 758 80 l 663 5 l 571 118 q 406 84 499 84 q 240 118 312 84 l 148 5 l 53 80 l 145 195 q 80 425 80 283 q 145 652 80 564 l 53 768 l 148 842 l 240 730 q 406 764 312 764 q 571 730 499 764 l 663 842 l 758 768 l 666 652 q 731 425 731 564 m 406 245 q 552 425 552 245 q 406 602 552 602 q 259 425 259 602 q 406 245 259 245 z "},"¥":{"ha":727,"x_min":9,"x_max":718,"o":"m 503 463 l 636 463 l 636 343 l 454 343 l 454 256 l 636 256 l 636 137 l 454 137 l 454 0 l 270 0 l 270 137 l 88 137 l 88 256 l 270 256 l 270 343 l 88 343 l 88 463 l 221 463 l 9 982 l 206 982 l 368 513 l 522 982 l 718 982 l 503 463 z "},"¦":{"ha":349,"x_min":106,"x_max":243,"o":"m 106 1107 l 243 1107 l 243 500 l 106 500 l 106 1107 m 106 269 l 243 269 l 243 -339 l 106 -339 l 106 269 z "},"§":{"ha":726,"x_min":71,"x_max":655,"o":"m 655 350 q 591 159 655 239 q 652 -12 652 98 q 576 -216 652 -144 q 359 -289 499 -289 q 212 -270 288 -289 q 71 -217 136 -251 l 133 -64 q 359 -127 273 -127 q 476 -23 476 -127 q 453 44 476 19 q 372 85 430 69 l 288 109 q 123 199 175 140 q 71 357 71 258 q 136 549 71 468 q 79 716 79 613 q 157 924 79 850 q 377 998 235 998 q 507 983 441 998 q 631 941 572 968 l 566 795 q 374 837 449 837 q 255 730 255 837 q 278 662 255 686 q 357 623 301 637 l 441 600 q 604 509 552 568 q 655 350 655 450 m 444 239 l 465 232 q 488 319 488 270 q 462 397 488 369 q 369 445 435 426 l 285 469 l 262 476 q 237 391 237 438 q 264 312 237 340 q 359 263 292 283 l 444 239 z "},"¨":{"ha":678,"x_min":109,"x_max":570,"o":"m 206 833 q 134 859 160 833 q 109 928 109 884 q 134 1000 109 974 q 206 1025 160 1025 q 279 1000 252 1025 q 305 929 305 974 q 279 858 305 883 q 206 833 254 833 m 471 833 q 399 859 425 833 q 373 928 373 884 q 399 1000 373 974 q 471 1025 425 1025 q 543 1000 517 1025 q 570 929 570 974 q 544 858 570 883 q 471 833 518 833 z "},"©":{"ha":1137,"x_min":103,"x_max":1034,"o":"m 568 -18 q 321 43 426 -18 q 160 217 217 103 q 103 491 103 331 q 160 765 103 651 q 321 939 217 879 q 568 1000 426 1000 q 815 939 711 1000 q 977 765 920 879 q 1034 491 1034 651 q 977 217 1034 331 q 815 43 920 103 q 568 -18 711 -18 m 568 91 q 830 195 738 91 q 922 491 922 300 q 830 787 922 682 q 568 891 738 891 q 307 787 399 891 q 214 491 214 682 q 307 195 214 300 q 568 91 399 91 m 591 241 q 422 305 483 241 q 362 484 362 369 q 421 673 362 606 q 587 741 480 741 q 735 699 678 741 l 688 600 q 586 627 625 627 q 491 491 491 627 q 597 355 491 355 q 697 382 643 355 l 741 285 q 676 253 715 264 q 591 241 637 241 z "},"ª":{"ha":703,"x_min":76,"x_max":587,"o":"m 354 990 q 526 944 465 990 q 587 814 587 898 l 587 437 q 471 397 537 411 q 334 384 406 384 q 143 433 210 384 q 76 571 76 481 q 161 718 76 673 q 434 762 245 764 l 434 783 q 408 836 434 819 q 328 853 382 853 q 165 822 250 853 l 125 940 q 237 977 176 964 q 354 990 297 990 m 229 578 q 334 513 229 513 q 434 525 397 513 l 434 662 q 277 644 326 663 q 229 578 229 624 m 117 269 l 571 269 l 571 141 l 117 141 l 117 269 z "},"«":{"ha":826,"x_min":23,"x_max":800,"o":"m 564 396 l 800 126 l 689 20 l 365 395 l 690 769 l 800 663 l 564 396 m 222 396 l 458 126 l 347 20 l 23 395 l 349 769 l 458 663 l 222 396 z "},"¬":{"ha":785,"x_min":73,"x_max":712,"o":"m 712 696 l 712 532 l 712 301 l 545 301 l 545 532 l 73 532 l 73 696 l 712 696 z "},"­":{"ha":560,"x_min":53,"x_max":507,"o":"m 53 480 l 507 480 l 507 338 l 53 338 l 53 480 z "},"®":{"ha":1137,"x_min":103,"x_max":1034,"o":"m 568 1000 q 815 939 711 1000 q 977 765 920 879 q 1034 491 1034 651 q 977 217 1034 331 q 815 43 920 103 q 568 -18 711 -18 q 321 43 426 -18 q 160 217 217 103 q 103 491 103 331 q 160 765 103 651 q 321 939 217 879 q 568 1000 426 1000 m 568 91 q 830 195 738 91 q 922 491 922 300 q 830 787 922 682 q 568 891 738 891 q 307 787 399 891 q 214 491 214 682 q 307 195 214 300 q 568 91 399 91 m 750 563 q 677 416 750 458 l 770 250 l 639 250 l 564 395 l 517 395 l 517 250 l 401 250 l 401 732 l 581 732 q 705 688 661 732 q 750 563 750 643 m 517 492 l 574 492 q 629 562 629 492 q 574 631 629 631 l 517 631 l 517 492 z "},"¯":{"ha":678,"x_min":117,"x_max":562,"o":"m 117 987 l 562 987 l 562 863 l 117 863 l 117 987 z "},"°":{"ha":618,"x_min":52,"x_max":567,"o":"m 309 483 q 175 515 233 483 q 84 606 117 548 q 52 741 52 665 q 84 875 52 817 q 175 966 117 933 q 309 998 233 998 q 444 966 385 998 q 534 875 502 933 q 567 741 567 817 q 534 606 567 665 q 444 515 502 548 q 309 483 385 483 m 309 629 q 386 660 357 629 q 415 741 415 690 q 386 821 415 791 q 309 852 357 852 q 233 821 262 852 q 203 741 203 791 q 233 660 203 690 q 309 629 262 629 z "},"±":{"ha":785,"x_min":54,"x_max":731,"o":"m 731 707 l 731 545 l 476 545 l 476 304 l 309 304 l 309 545 l 54 545 l 54 707 l 309 707 l 309 948 l 476 948 l 476 707 l 731 707 m 54 232 l 731 232 l 731 73 l 54 73 l 54 232 z "},"²":{"ha":519,"x_min":19,"x_max":464,"o":"m 464 559 l 464 435 l 31 435 l 31 559 l 243 762 q 295 819 282 799 q 308 861 308 838 q 236 922 308 922 q 83 868 167 922 l 19 977 q 251 1054 133 1054 q 404 1006 350 1054 q 457 871 457 959 q 434 779 457 819 q 347 680 411 738 l 217 559 l 464 559 z "},"³":{"ha":552,"x_min":19,"x_max":486,"o":"m 328 811 q 445 749 404 796 q 486 627 486 701 q 420 478 486 530 q 235 426 355 426 q 19 488 111 426 l 71 601 q 235 557 160 557 q 334 631 334 557 q 311 684 334 666 q 241 701 289 701 q 174 693 209 701 l 118 769 l 288 921 l 42 921 l 42 1044 l 463 1044 l 463 920 l 328 811 z "},"´":{"ha":678,"x_min":239,"x_max":559,"o":"m 239 848 l 368 1063 l 559 1063 l 559 1050 l 380 834 l 239 834 l 239 848 z "},"µ":{"ha":803,"x_min":98,"x_max":705,"o":"m 705 741 l 705 0 l 538 0 l 538 104 q 346 -7 465 -7 q 282 3 309 -7 l 282 -281 l 98 -281 l 98 334 l 98 741 l 282 741 l 282 252 q 310 178 282 203 q 388 152 338 152 q 458 167 427 152 q 521 213 490 182 l 521 741 l 705 741 z "},"¶":{"ha":781,"x_min":24,"x_max":675,"o":"m 675 0 l 545 0 l 545 861 l 450 861 l 450 0 l 326 0 l 326 412 q 103 491 182 418 q 24 696 24 564 q 109 907 24 833 q 350 982 194 982 l 675 982 l 675 0 z "},"·":{"ha":361,"x_min":66,"x_max":294,"o":"m 180 351 q 97 380 127 351 q 66 460 66 410 q 96 540 66 511 q 180 568 126 568 q 264 539 233 568 q 294 461 294 510 q 264 380 294 410 q 180 351 235 351 z "},"¸":{"ha":678,"x_min":165,"x_max":518,"o":"m 365 -66 q 478 -97 438 -66 q 518 -183 518 -127 q 469 -288 518 -251 q 331 -326 420 -326 q 165 -290 239 -326 l 194 -206 q 311 -229 266 -229 q 377 -187 377 -229 q 319 -148 377 -148 q 266 -157 290 -148 l 225 -111 l 282 27 l 401 19 l 336 -69 q 365 -66 355 -66 z "},"¹":{"ha":488,"x_min":22,"x_max":340,"o":"m 340 1044 l 340 435 l 194 435 l 194 902 l 61 856 l 22 970 l 214 1044 l 340 1044 z "},"º":{"ha":711,"x_min":80,"x_max":631,"o":"m 355 382 q 152 460 224 382 q 80 688 80 537 q 152 915 80 838 q 357 991 224 991 q 559 915 488 991 q 631 688 631 838 q 559 460 631 537 q 355 382 487 382 m 355 517 q 473 688 473 517 q 357 857 473 857 q 237 688 237 857 q 355 517 237 517 m 129 269 l 583 269 l 583 141 l 129 141 l 129 269 z "},"»":{"ha":826,"x_min":26,"x_max":803,"o":"m 461 395 l 136 20 l 26 126 l 262 393 l 26 663 l 137 769 l 461 395 m 803 395 l 477 20 l 368 126 l 604 393 l 368 663 l 479 769 l 803 395 z "},"¼":{"ha":1290,"x_min":22,"x_max":1264,"o":"m 964 951 l 419 -35 l 301 31 l 846 1017 l 964 951 m 194 373 l 194 840 l 61 793 l 22 907 l 214 982 l 340 982 l 340 373 l 194 373 m 1264 220 l 1264 99 l 1195 99 l 1195 0 l 1053 0 l 1053 99 l 773 99 l 773 220 l 991 609 l 1195 609 l 1195 220 l 1264 220 m 1053 220 l 1053 481 l 922 220 l 1053 220 z "},"½":{"ha":1348,"x_min":22,"x_max":1295,"o":"m 964 951 l 419 -35 l 301 31 l 846 1017 l 964 951 m 194 373 l 194 840 l 61 793 l 22 907 l 214 982 l 340 982 l 340 373 l 194 373 m 1295 123 l 1295 0 l 863 0 l 863 123 l 1074 327 q 1126 383 1114 363 q 1139 426 1139 403 q 1067 487 1139 487 q 914 433 998 487 l 850 541 q 1082 618 964 618 q 1235 571 1181 618 q 1289 435 1289 524 q 1265 343 1289 384 q 1179 244 1242 302 l 1048 123 l 1295 123 z "},"¾":{"ha":1378,"x_min":19,"x_max":1352,"o":"m 1053 951 l 507 -35 l 389 31 l 935 1017 l 1053 951 m 486 564 q 420 416 486 468 q 235 363 355 363 q 19 426 111 363 l 71 538 q 235 495 160 495 q 334 568 334 495 q 311 621 334 604 q 241 639 289 639 q 174 631 209 639 l 118 707 l 288 859 l 42 859 l 42 982 l 463 982 l 463 857 l 328 749 q 445 686 404 734 q 486 564 486 639 m 1352 220 l 1352 99 l 1283 99 l 1283 0 l 1141 0 l 1141 99 l 861 99 l 861 220 l 1080 609 l 1283 609 l 1283 220 l 1352 220 m 1141 220 l 1141 481 l 1010 220 l 1141 220 z "},"¿":{"ha":640,"x_min":62,"x_max":659,"o":"m 393 742 q 477 713 446 742 q 507 633 507 684 q 477 553 507 582 q 393 525 448 525 q 310 554 340 525 q 279 632 279 583 q 309 713 279 684 q 393 742 339 742 m 477 427 q 481 361 481 377 q 453 227 481 279 q 349 114 425 174 q 274 43 293 69 q 255 -14 255 18 q 373 -103 255 -103 q 586 -37 471 -103 l 659 -187 q 517 -252 597 -229 q 355 -275 438 -275 q 139 -208 216 -275 q 62 -18 62 -141 q 92 98 62 50 q 201 206 122 145 q 292 291 269 259 q 315 365 315 323 q 311 427 315 381 l 477 427 z "},"À":{"ha":909,"x_min":20,"x_max":888,"o":"m 415 1059 l 180 1240 l 180 1256 l 385 1256 l 570 1076 l 570 1059 l 415 1059 m 628 212 l 278 212 l 216 0 l 20 0 l 353 982 l 556 982 l 888 0 l 692 0 l 628 212 m 581 374 l 453 802 l 327 374 l 581 374 z "},"Á":{"ha":909,"x_min":20,"x_max":888,"o":"m 492 1059 l 338 1059 l 338 1076 l 534 1256 l 739 1256 l 739 1240 l 492 1059 m 628 212 l 278 212 l 216 0 l 20 0 l 353 982 l 556 982 l 888 0 l 692 0 l 628 212 m 581 374 l 453 802 l 327 374 l 581 374 z "},"Â":{"ha":909,"x_min":20,"x_max":888,"o":"m 340 1059 l 208 1059 l 208 1076 l 366 1256 l 543 1256 l 701 1076 l 701 1059 l 564 1059 l 452 1162 l 340 1059 m 628 212 l 278 212 l 216 0 l 20 0 l 353 982 l 556 982 l 888 0 l 692 0 l 628 212 m 581 374 l 453 802 l 327 374 l 581 374 z "},"Ã":{"ha":909,"x_min":20,"x_max":888,"o":"m 358 1142 q 305 1067 313 1142 l 203 1067 q 245 1217 205 1164 q 358 1271 286 1271 q 421 1259 395 1271 q 483 1223 448 1246 q 519 1201 503 1208 q 551 1194 534 1194 q 604 1268 595 1194 l 705 1268 q 663 1118 704 1172 q 551 1065 623 1065 q 488 1077 514 1065 q 426 1112 461 1089 q 390 1135 406 1127 q 358 1142 374 1142 m 628 212 l 278 212 l 216 0 l 20 0 l 353 982 l 556 982 l 888 0 l 692 0 l 628 212 m 581 374 l 453 802 l 327 374 l 581 374 z "},"Ä":{"ha":909,"x_min":20,"x_max":888,"o":"m 313 1047 q 241 1073 267 1047 q 216 1142 216 1099 q 241 1214 216 1188 q 313 1240 267 1240 q 386 1214 359 1240 q 412 1143 412 1188 q 387 1072 412 1097 q 313 1047 361 1047 m 594 1047 q 522 1073 548 1047 q 496 1142 496 1099 q 522 1214 496 1188 q 594 1240 548 1240 q 667 1214 640 1240 q 693 1143 693 1188 q 667 1072 693 1097 q 594 1047 642 1047 m 628 212 l 278 212 l 216 0 l 20 0 l 353 982 l 556 982 l 888 0 l 692 0 l 628 212 m 581 374 l 453 802 l 327 374 l 581 374 z "},"Å":{"ha":909,"x_min":20,"x_max":888,"o":"m 454 1038 q 317 1080 366 1038 q 269 1200 269 1123 q 317 1320 269 1278 q 454 1363 366 1363 q 591 1320 543 1363 q 640 1200 640 1278 q 591 1080 640 1123 q 454 1038 543 1038 m 454 1274 q 382 1200 382 1274 q 454 1127 382 1127 q 526 1200 526 1127 q 454 1274 526 1274 m 628 212 l 278 212 l 216 0 l 20 0 l 353 982 l 556 982 l 888 0 l 692 0 l 628 212 m 581 374 l 453 802 l 327 374 l 581 374 z "},"Æ":{"ha":1264,"x_min":-8,"x_max":1223,"o":"m 1223 167 l 1223 0 l 610 0 l 610 199 l 289 199 l 190 0 l -8 0 l 492 982 l 680 982 l 1204 982 l 1204 815 l 792 815 l 792 586 l 1090 586 l 1090 418 l 792 418 l 792 167 l 1223 167 m 610 362 l 610 844 l 370 362 l 610 362 z "},"Ç":{"ha":818,"x_min":52,"x_max":783,"o":"m 503 -66 q 616 -97 576 -66 q 656 -183 656 -127 q 608 -288 656 -251 q 469 -326 559 -326 q 304 -290 377 -326 l 332 -206 q 449 -229 404 -229 q 515 -187 515 -229 q 457 -148 515 -148 q 404 -157 429 -148 l 363 -111 l 406 -8 q 144 144 236 20 q 52 471 52 269 q 106 753 52 633 q 261 936 160 872 q 499 1000 362 1000 q 648 979 575 1000 q 774 921 722 959 l 711 779 q 496 831 605 831 q 310 741 376 831 q 244 484 244 650 q 514 155 244 155 q 719 202 639 155 l 783 61 q 669 5 739 26 q 514 -16 598 -15 l 475 -69 q 503 -66 494 -66 z "},"È":{"ha":784,"x_min":106,"x_max":743,"o":"m 374 1059 l 140 1240 l 140 1256 l 345 1256 l 529 1076 l 529 1059 l 374 1059 m 743 167 l 743 0 l 106 0 l 106 982 l 724 982 l 724 815 l 293 815 l 293 586 l 610 586 l 610 418 l 293 418 l 293 167 l 743 167 z "},"É":{"ha":784,"x_min":106,"x_max":743,"o":"m 452 1059 l 297 1059 l 297 1076 l 494 1256 l 699 1256 l 699 1240 l 452 1059 m 743 167 l 743 0 l 106 0 l 106 982 l 724 982 l 724 815 l 293 815 l 293 586 l 610 586 l 610 418 l 293 418 l 293 167 l 743 167 z "},"Ê":{"ha":784,"x_min":106,"x_max":743,"o":"m 300 1059 l 167 1059 l 167 1076 l 326 1256 l 502 1256 l 661 1076 l 661 1059 l 524 1059 l 411 1162 l 300 1059 m 743 167 l 743 0 l 106 0 l 106 982 l 724 982 l 724 815 l 293 815 l 293 586 l 610 586 l 610 418 l 293 418 l 293 167 l 743 167 z "},"Ë":{"ha":784,"x_min":106,"x_max":743,"o":"m 273 1047 q 201 1073 227 1047 q 175 1142 175 1099 q 201 1214 175 1188 q 273 1240 227 1240 q 345 1214 319 1240 q 372 1143 372 1188 q 346 1072 372 1097 q 273 1047 320 1047 m 553 1047 q 481 1073 507 1047 q 456 1142 456 1099 q 481 1214 456 1188 q 553 1240 507 1240 q 626 1214 600 1240 q 652 1143 652 1188 q 627 1072 652 1097 q 553 1047 601 1047 m 743 167 l 743 0 l 106 0 l 106 982 l 724 982 l 724 815 l 293 815 l 293 586 l 610 586 l 610 418 l 293 418 l 293 167 l 743 167 z "},"Ì":{"ha":404,"x_min":-72,"x_max":317,"o":"m -72 1240 l -72 1256 l 133 1256 l 317 1076 l 317 1059 l 163 1059 l -72 1240 m 109 982 l 296 982 l 296 0 l 109 0 l 109 982 z "},"Í":{"ha":404,"x_min":85,"x_max":487,"o":"m 85 1076 l 282 1256 l 487 1256 l 487 1240 l 240 1059 l 85 1059 l 85 1076 m 109 982 l 296 982 l 296 0 l 109 0 l 109 982 z "},"Î":{"ha":404,"x_min":-45,"x_max":449,"o":"m 449 1076 l 449 1059 l 312 1059 l 199 1162 l 88 1059 l -45 1059 l -45 1076 l 114 1256 l 290 1256 l 449 1076 m 109 982 l 296 982 l 296 0 l 109 0 l 109 982 z "},"Ï":{"ha":404,"x_min":-37,"x_max":441,"o":"m 61 1047 q -11 1073 15 1047 q -37 1142 -37 1099 q -11 1214 -37 1188 q 61 1240 15 1240 q 134 1214 107 1240 q 160 1143 160 1188 q 134 1072 160 1097 q 61 1047 109 1047 m 342 1047 q 270 1073 296 1047 q 244 1142 244 1099 q 270 1214 244 1188 q 342 1240 296 1240 q 414 1214 388 1240 q 441 1143 441 1188 q 415 1072 441 1097 q 342 1047 389 1047 m 109 982 l 296 982 l 296 0 l 109 0 l 109 982 z "},"Ð":{"ha":941,"x_min":20,"x_max":876,"o":"m 433 982 q 763 859 650 982 q 876 492 876 735 q 763 123 876 247 q 433 0 650 0 l 107 0 l 107 426 l 20 426 l 20 568 l 107 568 l 107 982 l 433 982 m 427 167 q 684 492 684 167 q 429 815 684 815 l 294 815 l 294 568 l 502 568 l 502 426 l 294 426 l 294 167 l 427 167 z "},"Ñ":{"ha":985,"x_min":106,"x_max":879,"o":"m 396 1142 q 343 1067 351 1142 l 241 1067 q 283 1217 243 1164 q 396 1271 324 1271 q 459 1259 433 1271 q 521 1223 486 1246 q 557 1201 541 1208 q 589 1194 572 1194 q 642 1268 633 1194 l 743 1268 q 701 1118 742 1172 q 589 1065 661 1065 q 526 1077 552 1065 q 464 1112 499 1089 q 428 1135 444 1127 q 396 1142 412 1142 m 879 982 l 879 0 l 699 0 l 290 666 l 290 0 l 106 0 l 106 982 l 286 982 l 694 319 l 694 982 l 879 982 z "},"Ò":{"ha":971,"x_min":65,"x_max":906,"o":"m 212 1240 l 212 1256 l 416 1256 l 601 1076 l 601 1059 l 446 1059 l 212 1240 m 486 -18 q 173 111 281 -18 q 65 491 65 239 q 173 871 65 743 q 486 1000 281 1000 q 798 871 690 1000 q 906 491 906 743 q 798 111 906 239 q 486 -18 690 -18 m 486 149 q 713 491 713 149 q 486 833 713 833 q 258 491 258 833 q 486 149 258 149 z "},"Ó":{"ha":971,"x_min":65,"x_max":906,"o":"m 369 1076 l 566 1256 l 770 1256 l 770 1240 l 524 1059 l 369 1059 l 369 1076 m 486 -18 q 173 111 281 -18 q 65 491 65 239 q 173 871 65 743 q 486 1000 281 1000 q 798 871 690 1000 q 906 491 906 743 q 798 111 906 239 q 486 -18 690 -18 m 486 149 q 713 491 713 149 q 486 833 713 833 q 258 491 258 833 q 486 149 258 149 z "},"Ô":{"ha":971,"x_min":65,"x_max":906,"o":"m 372 1059 l 239 1059 l 239 1076 l 397 1256 l 574 1256 l 732 1076 l 732 1059 l 595 1059 l 483 1162 l 372 1059 m 486 1000 q 798 871 690 1000 q 906 491 906 743 q 798 111 906 239 q 486 -18 690 -18 q 173 111 281 -18 q 65 491 65 239 q 173 871 65 743 q 486 1000 281 1000 m 486 149 q 713 491 713 149 q 486 833 713 833 q 258 491 258 833 q 486 149 258 149 z "},"Õ":{"ha":971,"x_min":65,"x_max":906,"o":"m 582 1065 q 519 1077 545 1065 q 457 1112 492 1089 q 421 1135 437 1127 q 389 1142 406 1142 q 336 1067 345 1142 l 235 1067 q 277 1217 236 1164 q 389 1271 317 1271 q 452 1259 426 1271 q 514 1223 479 1246 q 550 1201 534 1208 q 582 1194 566 1194 q 635 1268 627 1194 l 736 1268 q 694 1118 735 1172 q 582 1065 654 1065 m 486 -18 q 173 111 281 -18 q 65 491 65 239 q 173 871 65 743 q 486 1000 281 1000 q 798 871 690 1000 q 906 491 906 743 q 798 111 906 239 q 486 -18 690 -18 m 486 149 q 713 491 713 149 q 486 833 713 833 q 258 491 258 833 q 486 149 258 149 z "},"Ö":{"ha":971,"x_min":65,"x_max":906,"o":"m 345 1047 q 273 1073 298 1047 q 247 1142 247 1099 q 273 1214 247 1188 q 345 1240 298 1240 q 417 1214 391 1240 q 444 1143 444 1188 q 418 1072 444 1097 q 345 1047 392 1047 m 625 1047 q 553 1073 579 1047 q 528 1142 528 1099 q 553 1214 528 1188 q 625 1240 579 1240 q 698 1214 671 1240 q 724 1143 724 1188 q 699 1072 724 1097 q 625 1047 673 1047 m 486 -18 q 173 111 281 -18 q 65 491 65 239 q 173 871 65 743 q 486 1000 281 1000 q 798 871 690 1000 q 906 491 906 743 q 798 111 906 239 q 486 -18 690 -18 m 486 149 q 713 491 713 149 q 486 833 713 833 q 258 491 258 833 q 486 149 258 149 z "},"×":{"ha":785,"x_min":79,"x_max":707,"o":"m 506 499 l 707 289 l 591 171 l 393 380 l 194 171 l 79 289 l 279 499 l 79 709 l 194 827 l 393 618 l 591 827 l 707 709 l 506 499 z "},"Ø":{"ha":971,"x_min":24,"x_max":947,"o":"m 947 982 l 823 829 q 906 491 906 700 q 798 111 906 239 q 486 -18 690 -18 q 228 64 332 -18 l 171 -14 l 24 -14 l 24 0 l 148 153 q 65 491 65 282 q 173 871 65 743 q 486 1000 281 1000 q 743 918 639 1000 l 800 996 l 947 996 l 947 982 m 486 838 q 252 491 252 838 q 271 311 252 378 l 640 784 q 486 838 586 838 m 486 144 q 719 491 719 144 q 700 671 719 604 l 331 198 q 486 144 385 144 z "},"Ù":{"ha":933,"x_min":99,"x_max":834,"o":"m 193 1240 l 193 1256 l 397 1256 l 582 1076 l 582 1059 l 427 1059 l 193 1240 m 465 -18 q 195 75 290 -18 q 99 338 99 168 l 99 982 l 286 982 l 286 351 q 465 149 286 149 q 647 351 647 149 l 647 982 l 834 982 l 834 338 q 738 75 834 168 q 465 -18 642 -18 z "},"Ú":{"ha":933,"x_min":99,"x_max":834,"o":"m 350 1076 l 547 1256 l 751 1256 l 751 1240 l 505 1059 l 350 1059 l 350 1076 m 465 -18 q 195 75 290 -18 q 99 338 99 168 l 99 982 l 286 982 l 286 351 q 465 149 286 149 q 647 351 647 149 l 647 982 l 834 982 l 834 338 q 738 75 834 168 q 465 -18 642 -18 z "},"Û":{"ha":933,"x_min":99,"x_max":834,"o":"m 353 1059 l 220 1059 l 220 1076 l 378 1256 l 555 1256 l 713 1076 l 713 1059 l 576 1059 l 464 1162 l 353 1059 m 834 982 l 834 338 q 738 75 834 168 q 465 -18 642 -18 q 195 75 290 -18 q 99 338 99 168 l 99 982 l 286 982 l 286 351 q 465 149 286 149 q 647 351 647 149 l 647 982 l 834 982 z "},"Ü":{"ha":933,"x_min":99,"x_max":834,"o":"m 326 1047 q 254 1073 279 1047 q 228 1142 228 1099 q 254 1214 228 1188 q 326 1240 279 1240 q 398 1214 372 1240 q 425 1143 425 1188 q 399 1072 425 1097 q 326 1047 373 1047 m 606 1047 q 534 1073 560 1047 q 509 1142 509 1099 q 534 1214 509 1188 q 606 1240 560 1240 q 679 1214 652 1240 q 705 1143 705 1188 q 680 1072 705 1097 q 606 1047 654 1047 m 465 -18 q 195 75 290 -18 q 99 338 99 168 l 99 982 l 286 982 l 286 351 q 465 149 286 149 q 647 351 647 149 l 647 982 l 834 982 l 834 338 q 738 75 834 168 q 465 -18 642 -18 z "},"Ý":{"ha":800,"x_min":15,"x_max":785,"o":"m 437 1059 l 282 1059 l 282 1076 l 479 1256 l 684 1256 l 684 1240 l 437 1059 m 785 982 l 492 324 l 492 0 l 305 0 l 305 324 l 15 982 l 214 982 l 401 528 l 587 982 l 785 982 z "},"Þ":{"ha":837,"x_min":106,"x_max":792,"o":"m 464 834 q 706 747 620 834 q 792 503 792 661 q 703 256 792 343 q 454 170 614 168 l 293 170 l 293 0 l 106 0 l 106 982 l 293 982 l 293 834 l 464 834 m 464 336 q 600 499 600 336 q 454 667 600 667 l 293 667 l 293 336 l 464 336 z "},"ß":{"ha":819,"x_min":98,"x_max":780,"o":"m 556 581 q 780 293 780 526 q 699 70 780 149 q 471 -9 618 -9 q 349 8 408 -9 l 378 156 q 471 144 426 144 q 606 277 606 144 q 372 469 606 456 l 372 608 q 475 684 442 640 q 507 792 507 728 q 406 906 507 906 q 282 742 282 906 l 282 0 l 98 0 l 98 742 q 176 983 98 898 q 400 1067 255 1067 q 606 1001 533 1067 q 678 812 678 935 q 556 581 678 662 z "},"à":{"ha":727,"x_min":35,"x_max":639,"o":"m 353 758 q 564 694 490 758 q 639 515 639 631 l 639 0 l 475 0 l 475 109 q 256 -15 408 -15 q 93 43 151 -15 q 35 208 35 102 q 135 402 35 340 q 457 467 235 464 l 457 494 q 319 595 457 595 q 146 557 235 595 l 100 699 q 353 758 227 758 m 304 140 q 457 212 392 140 l 457 345 q 269 314 327 343 q 210 222 210 285 q 304 140 210 140 m 145 1050 l 145 1063 l 336 1063 l 454 848 l 454 834 l 313 834 l 145 1050 z "},"á":{"ha":727,"x_min":35,"x_max":639,"o":"m 353 758 q 564 694 490 758 q 639 515 639 631 l 639 0 l 475 0 l 475 109 q 256 -15 408 -15 q 93 43 151 -15 q 35 208 35 102 q 135 402 35 340 q 457 467 235 464 l 457 494 q 319 595 457 595 q 146 557 235 595 l 100 699 q 353 758 227 758 m 304 140 q 457 212 392 140 l 457 345 q 269 314 327 343 q 210 222 210 285 q 304 140 210 140 m 248 848 l 377 1063 l 568 1063 l 568 1050 l 389 834 l 248 834 l 248 848 z "},"â":{"ha":727,"x_min":35,"x_max":639,"o":"m 353 758 q 564 694 490 758 q 639 515 639 631 l 639 0 l 475 0 l 475 109 q 256 -15 408 -15 q 93 43 151 -15 q 35 208 35 102 q 135 402 35 340 q 457 467 235 464 l 457 494 q 319 595 457 595 q 146 557 235 595 l 100 699 q 353 758 227 758 m 304 140 q 457 212 392 140 l 457 345 q 269 314 327 343 q 210 222 210 285 q 304 140 210 140 m 571 848 l 571 834 l 442 834 l 346 954 l 251 834 l 126 834 l 126 848 l 264 1063 l 433 1063 l 571 848 z "},"ã":{"ha":727,"x_min":35,"x_max":639,"o":"m 353 758 q 564 694 490 758 q 639 515 639 631 l 639 0 l 475 0 l 475 109 q 256 -15 408 -15 q 93 43 151 -15 q 35 208 35 102 q 135 402 35 340 q 457 467 235 464 l 457 494 q 319 595 457 595 q 146 557 235 595 l 100 699 q 353 758 227 758 m 304 140 q 457 212 392 140 l 457 345 q 269 314 327 343 q 210 222 210 285 q 304 140 210 140 m 445 834 q 382 846 408 834 q 320 882 355 859 q 284 904 300 897 q 252 911 269 911 q 199 837 208 911 l 98 837 q 140 987 99 933 q 252 1040 180 1040 q 315 1028 289 1040 q 377 993 342 1016 q 413 970 397 978 q 445 963 429 963 q 498 1038 490 963 l 600 1038 q 557 888 598 941 q 445 834 517 834 z "},"ä":{"ha":727,"x_min":35,"x_max":639,"o":"m 216 833 q 144 859 170 833 q 118 928 118 884 q 144 1000 118 974 q 216 1025 170 1025 q 288 1000 262 1025 q 315 929 315 974 q 289 858 315 883 q 216 833 263 833 m 480 833 q 408 859 434 833 q 382 928 382 884 q 408 1000 382 974 q 480 1025 434 1025 q 553 1000 526 1025 q 579 929 579 974 q 553 858 579 883 q 480 833 528 833 m 353 758 q 564 694 490 758 q 639 515 639 631 l 639 0 l 475 0 l 475 109 q 256 -15 408 -15 q 93 43 151 -15 q 35 208 35 102 q 135 402 35 340 q 457 467 235 464 l 457 494 q 319 595 457 595 q 146 557 235 595 l 100 699 q 353 758 227 758 m 304 140 q 457 212 392 140 l 457 345 q 269 314 327 343 q 210 222 210 285 q 304 140 210 140 z "},"å":{"ha":727,"x_min":35,"x_max":639,"o":"m 353 758 q 564 694 490 758 q 639 515 639 631 l 639 0 l 475 0 l 475 109 q 256 -15 408 -15 q 93 43 151 -15 q 35 208 35 102 q 135 402 35 340 q 457 467 235 464 l 457 494 q 319 595 457 595 q 146 557 235 595 l 100 699 q 353 758 227 758 m 304 140 q 457 212 392 140 l 457 345 q 269 314 327 343 q 210 222 210 285 q 304 140 210 140 m 349 814 q 212 857 260 814 q 164 977 164 899 q 212 1097 164 1054 q 349 1139 260 1139 q 485 1097 437 1139 q 533 977 533 1054 q 485 857 533 899 q 349 814 437 814 m 349 902 q 420 977 420 902 q 349 1051 420 1051 q 277 977 277 1051 q 349 902 277 902 z "},"æ":{"ha":1123,"x_min":35,"x_max":1078,"o":"m 1078 401 q 1070 312 1078 351 l 628 312 q 808 149 651 149 q 983 193 892 149 l 1048 56 q 926 3 994 22 q 788 -16 859 -16 q 623 19 693 -16 q 509 122 552 54 q 390 18 452 50 q 252 -15 328 -15 q 92 42 149 -15 q 35 203 35 99 q 134 394 35 334 q 449 457 232 454 l 449 494 q 315 595 449 595 q 146 557 232 595 l 100 699 q 349 758 227 758 q 555 671 491 758 q 646 736 591 713 q 765 758 700 758 q 996 665 914 758 q 1078 401 1078 571 m 761 597 q 627 435 644 597 l 895 435 q 859 555 894 513 q 761 597 823 597 m 300 140 q 463 228 392 140 q 448 335 449 279 q 267 305 323 334 q 210 217 210 277 q 300 140 210 140 z "},"ç":{"ha":655,"x_min":47,"x_max":629,"o":"m 389 -66 q 503 -97 463 -66 q 543 -183 543 -127 q 494 -288 543 -251 q 355 -326 445 -326 q 190 -290 263 -326 l 218 -206 q 335 -229 290 -229 q 401 -187 401 -229 q 343 -148 401 -148 q 290 -157 315 -148 l 250 -111 l 294 -4 q 111 119 175 26 q 47 359 47 213 q 91 569 47 479 q 214 709 134 659 q 397 758 293 758 q 519 741 460 758 q 621 692 578 723 l 556 549 q 395 591 460 591 q 277 533 319 591 q 236 369 236 475 q 412 152 236 152 q 567 193 490 152 l 629 52 q 404 -16 541 -16 l 400 -16 l 361 -69 q 389 -66 380 -66 z "},"è":{"ha":741,"x_min":50,"x_max":696,"o":"m 696 401 q 688 312 696 351 l 237 312 q 422 149 260 149 q 601 193 511 149 l 666 56 q 543 3 612 22 q 401 -16 473 -16 q 142 85 233 -16 q 50 370 50 186 q 136 657 50 556 q 378 758 222 758 q 613 665 530 758 q 696 401 696 571 m 374 597 q 236 435 254 597 l 513 435 q 474 555 510 513 q 374 597 438 597 m 174 1050 l 174 1063 l 365 1063 l 483 848 l 483 834 l 342 834 l 174 1050 z "},"é":{"ha":741,"x_min":50,"x_max":696,"o":"m 696 401 q 688 312 696 351 l 237 312 q 422 149 260 149 q 601 193 511 149 l 666 56 q 543 3 612 22 q 401 -16 473 -16 q 142 85 233 -16 q 50 370 50 186 q 136 657 50 556 q 378 758 222 758 q 613 665 530 758 q 696 401 696 571 m 374 597 q 236 435 254 597 l 513 435 q 474 555 510 513 q 374 597 438 597 m 277 848 l 406 1063 l 597 1063 l 597 1050 l 418 834 l 277 834 l 277 848 z "},"ê":{"ha":741,"x_min":50,"x_max":696,"o":"m 696 401 q 688 312 696 351 l 237 312 q 422 149 260 149 q 601 193 511 149 l 666 56 q 543 3 612 22 q 401 -16 473 -16 q 142 85 233 -16 q 50 370 50 186 q 136 657 50 556 q 378 758 222 758 q 613 665 530 758 q 696 401 696 571 m 374 597 q 236 435 254 597 l 513 435 q 474 555 510 513 q 374 597 438 597 m 600 848 l 600 834 l 471 834 l 374 954 l 279 834 l 155 834 l 155 848 l 293 1063 l 461 1063 l 600 848 z "},"ë":{"ha":741,"x_min":50,"x_max":696,"o":"m 244 833 q 172 859 198 833 q 146 928 146 884 q 172 1000 146 974 q 244 1025 198 1025 q 317 1000 290 1025 q 343 929 343 974 q 317 858 343 883 q 244 833 292 833 m 509 833 q 437 859 463 833 q 411 928 411 884 q 437 1000 411 974 q 509 1025 463 1025 q 581 1000 555 1025 q 608 929 608 974 q 582 858 608 883 q 509 833 556 833 m 696 401 q 688 312 696 351 l 237 312 q 422 149 260 149 q 601 193 511 149 l 666 56 q 543 3 612 22 q 401 -16 473 -16 q 142 85 233 -16 q 50 370 50 186 q 136 657 50 556 q 378 758 222 758 q 613 665 530 758 q 696 401 696 571 m 374 597 q 236 435 254 597 l 513 435 q 474 555 510 513 q 374 597 438 597 z "},"ì":{"ha":385,"x_min":-11,"x_max":298,"o":"m 100 741 l 285 741 l 285 0 l 100 0 l 100 741 m -11 1050 l -11 1063 l 180 1063 l 298 848 l 298 834 l 157 834 l -11 1050 z "},"í":{"ha":385,"x_min":92,"x_max":412,"o":"m 100 741 l 285 741 l 285 0 l 100 0 l 100 741 m 92 848 l 221 1063 l 412 1063 l 412 1050 l 233 834 l 92 834 l 92 848 z "},"î":{"ha":385,"x_min":-30,"x_max":415,"o":"m 100 741 l 285 741 l 285 0 l 100 0 l 100 741 m 415 848 l 415 834 l 286 834 l 190 954 l 95 834 l -30 834 l -30 848 l 109 1063 l 277 1063 l 415 848 z "},"ï":{"ha":385,"x_min":-33,"x_max":418,"o":"m 64 833 q -7 859 19 833 q -33 928 -33 884 q -7 1000 -33 974 q 64 1025 18 1025 q 134 1000 109 1025 q 159 929 159 974 q 134 858 159 883 q 64 833 109 833 m 323 833 q 252 859 278 833 q 227 928 227 884 q 252 1000 227 974 q 323 1025 277 1025 q 393 1000 368 1025 q 418 929 418 974 q 393 858 418 883 q 323 833 368 833 m 100 741 l 285 741 l 285 0 l 100 0 l 100 741 z "},"ð":{"ha":764,"x_min":46,"x_max":711,"o":"m 490 916 q 657 699 604 825 q 711 401 711 574 q 628 87 711 191 q 378 -18 545 -18 q 132 77 218 -18 q 46 358 46 172 q 127 629 46 533 q 355 726 208 726 q 498 675 444 726 q 361 845 453 772 l 201 749 l 146 844 l 267 905 q 172 945 221 928 l 134 959 l 175 1074 l 213 1061 q 397 978 317 1024 l 538 1065 l 593 970 l 490 916 m 378 146 q 524 370 524 146 q 486 517 524 465 q 380 570 448 570 q 235 358 235 570 q 378 146 235 146 z "},"ñ":{"ha":798,"x_min":98,"x_max":707,"o":"m 487 758 q 649 694 591 758 q 707 515 707 631 l 707 0 l 522 0 l 522 488 q 415 587 522 587 q 347 575 378 587 q 282 537 316 563 l 282 0 l 98 0 l 98 741 l 264 741 l 264 647 q 487 758 351 758 m 499 834 q 436 846 463 834 q 374 882 410 859 q 338 904 354 897 q 307 911 323 911 q 254 837 262 911 l 152 837 q 194 987 153 933 q 307 1040 235 1040 q 370 1028 343 1040 q 431 993 396 1016 q 467 970 452 978 q 499 963 483 963 q 552 1038 544 963 l 654 1038 q 612 888 652 941 q 499 834 571 834 z "},"ò":{"ha":764,"x_min":53,"x_max":711,"o":"m 381 -18 q 138 80 222 -18 q 53 370 53 178 q 138 660 53 562 q 382 758 224 758 q 626 661 541 758 q 711 370 711 563 q 625 81 711 179 q 381 -18 540 -18 m 381 146 q 522 370 522 146 q 382 594 522 594 q 241 370 241 594 q 381 146 241 146 m 179 1050 l 179 1063 l 370 1063 l 488 848 l 488 834 l 347 834 l 179 1050 z "},"ó":{"ha":764,"x_min":53,"x_max":711,"o":"m 381 -18 q 138 80 222 -18 q 53 370 53 178 q 138 660 53 562 q 382 758 224 758 q 626 661 541 758 q 711 370 711 563 q 625 81 711 179 q 381 -18 540 -18 m 381 146 q 522 370 522 146 q 382 594 522 594 q 241 370 241 594 q 381 146 241 146 m 282 848 l 411 1063 l 602 1063 l 602 1050 l 423 834 l 282 834 l 282 848 z "},"ô":{"ha":764,"x_min":53,"x_max":711,"o":"m 381 -18 q 138 80 222 -18 q 53 370 53 178 q 138 660 53 562 q 382 758 224 758 q 626 661 541 758 q 711 370 711 563 q 625 81 711 179 q 381 -18 540 -18 m 381 146 q 522 370 522 146 q 382 594 522 594 q 241 370 241 594 q 381 146 241 146 m 605 848 l 605 834 l 476 834 l 380 954 l 285 834 l 160 834 l 160 848 l 298 1063 l 467 1063 l 605 848 z "},"õ":{"ha":764,"x_min":53,"x_max":711,"o":"m 381 -18 q 138 80 222 -18 q 53 370 53 178 q 138 660 53 562 q 382 758 224 758 q 626 661 541 758 q 711 370 711 563 q 625 81 711 179 q 381 -18 540 -18 m 381 146 q 522 370 522 146 q 382 594 522 594 q 241 370 241 594 q 381 146 241 146 m 479 834 q 416 846 442 834 q 354 882 389 859 q 318 904 334 897 q 286 911 302 911 q 233 837 241 911 l 132 837 q 174 987 133 933 q 286 1040 214 1040 q 349 1028 323 1040 q 411 993 376 1016 q 447 970 431 978 q 479 963 463 963 q 532 1038 524 963 l 633 1038 q 591 888 632 941 q 479 834 551 834 z "},"ö":{"ha":764,"x_min":53,"x_max":711,"o":"m 250 833 q 178 859 203 833 q 152 928 152 884 q 178 1000 152 974 q 250 1025 203 1025 q 322 1000 296 1025 q 349 929 349 974 q 323 858 349 883 q 250 833 297 833 m 514 833 q 442 859 468 833 q 416 928 416 884 q 442 1000 416 974 q 514 1025 468 1025 q 587 1000 560 1025 q 613 929 613 974 q 587 858 613 883 q 514 833 562 833 m 381 -18 q 138 80 222 -18 q 53 370 53 178 q 138 660 53 562 q 382 758 224 758 q 626 661 541 758 q 711 370 711 563 q 625 81 711 179 q 381 -18 540 -18 m 381 146 q 522 370 522 146 q 382 594 522 594 q 241 370 241 594 q 381 146 241 146 z "},"÷":{"ha":785,"x_min":73,"x_max":712,"o":"m 393 662 q 319 690 349 662 q 290 765 290 719 q 319 840 290 811 q 393 868 349 868 q 467 840 438 868 q 496 765 496 811 q 467 690 496 719 q 393 662 438 662 m 73 579 l 712 579 l 712 420 l 73 420 l 73 579 m 393 130 q 319 159 349 130 q 290 233 290 187 q 319 308 290 279 q 393 336 349 336 q 467 308 438 336 q 496 233 496 279 q 467 159 496 187 q 393 130 438 130 z "},"ø":{"ha":764,"x_min":12,"x_max":751,"o":"m 751 741 l 651 621 q 711 370 711 525 q 625 81 711 179 q 381 -18 540 -18 q 189 38 267 -18 l 152 -14 l 12 -14 l 12 0 l 113 119 q 53 370 53 216 q 138 660 53 562 q 382 758 224 758 q 575 703 496 758 l 612 754 l 751 754 l 751 741 m 382 602 q 233 370 233 602 q 240 277 233 321 l 475 571 q 382 602 442 602 m 381 138 q 530 370 530 138 q 524 464 530 419 l 289 170 q 381 138 321 138 z "},"ù":{"ha":787,"x_min":88,"x_max":689,"o":"m 689 741 l 689 0 l 522 0 l 522 104 q 304 -18 441 -18 q 144 46 201 -18 q 88 225 88 110 l 88 741 l 273 741 l 273 252 q 376 153 273 153 q 444 168 414 153 q 505 213 473 182 l 505 741 l 689 741 m 186 1050 l 186 1063 l 377 1063 l 495 848 l 495 834 l 354 834 l 186 1050 z "},"ú":{"ha":787,"x_min":88,"x_max":689,"o":"m 689 741 l 689 0 l 522 0 l 522 104 q 304 -18 441 -18 q 144 46 201 -18 q 88 225 88 110 l 88 741 l 273 741 l 273 252 q 376 153 273 153 q 444 168 414 153 q 505 213 473 182 l 505 741 l 689 741 m 289 848 l 418 1063 l 609 1063 l 609 1050 l 430 834 l 289 834 l 289 848 z "},"û":{"ha":787,"x_min":88,"x_max":689,"o":"m 689 741 l 689 0 l 522 0 l 522 104 q 304 -18 441 -18 q 144 46 201 -18 q 88 225 88 110 l 88 741 l 273 741 l 273 252 q 376 153 273 153 q 444 168 414 153 q 505 213 473 182 l 505 741 l 689 741 m 612 848 l 612 834 l 483 834 l 387 954 l 292 834 l 167 834 l 167 848 l 305 1063 l 473 1063 l 612 848 z "},"ü":{"ha":787,"x_min":88,"x_max":689,"o":"m 256 833 q 184 859 210 833 q 159 928 159 884 q 184 1000 159 974 q 256 1025 210 1025 q 329 1000 302 1025 q 355 929 355 974 q 330 858 355 883 q 256 833 304 833 m 521 833 q 449 859 475 833 q 423 928 423 884 q 449 1000 423 974 q 521 1025 475 1025 q 593 1000 567 1025 q 620 929 620 974 q 594 858 620 883 q 521 833 568 833 m 689 741 l 689 0 l 522 0 l 522 104 q 304 -18 441 -18 q 144 46 201 -18 q 88 225 88 110 l 88 741 l 273 741 l 273 252 q 376 153 273 153 q 444 168 414 153 q 505 213 473 182 l 505 741 l 689 741 z "},"ý":{"ha":709,"x_min":19,"x_max":690,"o":"m 690 741 l 467 42 q 336 -168 426 -87 q 85 -298 245 -248 l 23 -144 q 171 -77 117 -111 q 259 1 225 -43 l 19 741 l 205 741 l 357 195 l 506 741 l 690 741 m 256 848 l 385 1063 l 576 1063 l 576 1050 l 397 834 l 256 834 l 256 848 z "},"þ":{"ha":788,"x_min":98,"x_max":735,"o":"m 468 758 q 665 657 595 758 q 735 372 735 556 q 665 84 735 186 q 467 -18 594 -18 q 362 3 410 -18 q 282 61 315 23 l 282 -281 l 98 -281 l 98 696 l 98 1044 l 282 1044 l 282 663 q 468 758 349 758 m 414 148 q 547 365 547 148 q 408 587 547 587 q 343 572 373 587 q 282 525 313 557 l 282 209 q 342 163 308 179 q 414 148 376 148 z "},"ÿ":{"ha":709,"x_min":19,"x_max":690,"o":"m 224 833 q 152 859 178 833 q 126 928 126 884 q 152 1000 126 974 q 224 1025 178 1025 q 296 1000 270 1025 q 323 929 323 974 q 297 858 323 883 q 224 833 271 833 m 488 833 q 416 859 442 833 q 391 928 391 884 q 416 1000 391 974 q 488 1025 442 1025 q 561 1000 534 1025 q 587 929 587 974 q 562 858 587 883 q 488 833 536 833 m 690 741 l 467 42 q 336 -168 426 -87 q 85 -298 245 -248 l 23 -144 q 171 -77 117 -111 q 259 1 225 -43 l 19 741 l 205 741 l 357 195 l 506 741 l 690 741 z "},"Ā":{"ha":909,"x_min":20,"x_max":888,"o":"m 677 1093 l 232 1093 l 232 1218 l 677 1218 l 677 1093 m 628 212 l 278 212 l 216 0 l 20 0 l 353 982 l 556 982 l 888 0 l 692 0 l 628 212 m 581 374 l 453 802 l 327 374 l 581 374 z "},"ā":{"ha":727,"x_min":35,"x_max":639,"o":"m 353 758 q 564 694 490 758 q 639 515 639 631 l 639 0 l 475 0 l 475 109 q 256 -15 408 -15 q 93 43 151 -15 q 35 208 35 102 q 135 402 35 340 q 457 467 235 464 l 457 494 q 319 595 457 595 q 146 557 235 595 l 100 699 q 353 758 227 758 m 304 140 q 457 212 392 140 l 457 345 q 269 314 327 343 q 210 222 210 285 q 304 140 210 140 m 126 987 l 571 987 l 571 863 l 126 863 l 126 987 z "},"Ă":{"ha":909,"x_min":20,"x_max":888,"o":"m 454 1058 q 296 1117 353 1058 q 235 1289 239 1176 l 340 1289 q 456 1190 354 1190 q 572 1289 559 1190 l 674 1289 q 613 1117 670 1176 q 454 1058 556 1058 m 628 212 l 278 212 l 216 0 l 20 0 l 353 982 l 556 982 l 888 0 l 692 0 l 628 212 m 581 374 l 453 802 l 327 374 l 581 374 z "},"ă":{"ha":727,"x_min":35,"x_max":639,"o":"m 353 758 q 564 694 490 758 q 639 515 639 631 l 639 0 l 475 0 l 475 109 q 256 -15 408 -15 q 93 43 151 -15 q 35 208 35 102 q 135 402 35 340 q 457 467 235 464 l 457 494 q 319 595 457 595 q 146 557 235 595 l 100 699 q 353 758 227 758 m 304 140 q 457 212 392 140 l 457 345 q 269 314 327 343 q 210 222 210 285 q 304 140 210 140 m 349 827 q 190 886 247 827 q 129 1058 133 945 l 235 1058 q 350 959 248 959 q 467 1058 453 959 l 568 1058 q 507 886 564 945 q 349 827 450 827 z "},"Ą":{"ha":909,"x_min":20,"x_max":958,"o":"m 958 -270 q 883 -301 925 -290 q 798 -312 841 -312 q 673 -275 718 -312 q 628 -172 628 -239 q 659 -73 628 -118 q 745 0 689 -28 l 692 0 l 628 212 l 278 212 l 216 0 l 20 0 l 353 982 l 556 982 l 888 0 q 779 -138 779 -65 q 841 -193 779 -193 q 917 -175 878 -193 l 958 -270 m 581 374 l 453 802 l 327 374 l 581 374 z "},"ą":{"ha":727,"x_min":35,"x_max":708,"o":"m 708 -270 q 633 -301 675 -290 q 548 -312 591 -312 q 423 -275 468 -312 q 378 -172 378 -239 q 409 -73 378 -118 q 495 0 439 -28 l 477 0 l 477 114 q 382 16 434 46 q 256 -15 330 -15 q 93 43 151 -15 q 35 208 35 102 q 135 402 35 340 q 457 467 235 464 l 457 494 q 319 595 457 595 q 146 557 235 595 l 100 699 q 353 758 227 758 q 564 694 490 758 q 639 515 639 631 l 639 0 q 529 -138 529 -65 q 591 -193 529 -193 q 667 -175 628 -193 l 708 -270 m 304 140 q 457 212 392 140 l 457 345 q 269 314 328 343 q 210 222 210 285 q 304 140 210 140 z "},"Ć":{"ha":818,"x_min":52,"x_max":783,"o":"m 361 1076 l 557 1256 l 762 1256 l 762 1240 l 515 1059 l 361 1059 l 361 1076 m 506 -16 q 171 111 290 -16 q 52 471 52 239 q 106 753 52 633 q 261 936 160 872 q 499 1000 362 1000 q 648 979 575 1000 q 774 921 722 959 l 711 779 q 496 831 605 831 q 310 741 376 831 q 244 484 244 650 q 514 155 244 155 q 719 202 639 155 l 783 61 q 665 4 738 24 q 506 -16 591 -16 z "},"ć":{"ha":655,"x_min":47,"x_max":629,"o":"m 404 -16 q 141 82 235 -16 q 47 359 47 180 q 91 569 47 479 q 214 709 134 659 q 397 758 293 758 q 519 741 460 758 q 621 692 578 723 l 556 549 q 395 591 460 591 q 277 533 319 591 q 236 369 236 475 q 412 152 236 152 q 567 193 490 152 l 629 52 q 404 -16 541 -16 m 262 848 l 391 1063 l 582 1063 l 582 1050 l 403 834 l 262 834 l 262 848 z "},"Ĉ":{"ha":818,"x_min":52,"x_max":783,"o":"m 363 1059 l 231 1059 l 231 1076 l 389 1256 l 566 1256 l 724 1076 l 724 1059 l 587 1059 l 475 1162 l 363 1059 m 783 61 q 665 4 738 24 q 506 -16 591 -16 q 171 111 290 -16 q 52 471 52 239 q 106 753 52 633 q 261 936 160 872 q 499 1000 362 1000 q 648 979 575 1000 q 774 921 722 959 l 711 779 q 496 831 605 831 q 310 741 376 831 q 244 484 244 650 q 514 155 244 155 q 719 202 639 155 l 783 61 z "},"ĉ":{"ha":655,"x_min":47,"x_max":629,"o":"m 404 -16 q 141 82 235 -16 q 47 359 47 180 q 91 569 47 479 q 214 709 134 659 q 397 758 293 758 q 519 741 460 758 q 621 692 578 723 l 556 549 q 395 591 460 591 q 277 533 319 591 q 236 369 236 475 q 412 152 236 152 q 567 193 490 152 l 629 52 q 404 -16 541 -16 m 585 848 l 585 834 l 456 834 l 359 954 l 264 834 l 140 834 l 140 848 l 278 1063 l 446 1063 l 585 848 z "},"Ċ":{"ha":818,"x_min":52,"x_max":783,"o":"m 477 1053 q 397 1080 426 1053 q 368 1157 368 1108 q 397 1235 368 1207 q 477 1263 426 1263 q 558 1235 529 1263 q 587 1158 587 1207 q 558 1080 587 1108 q 477 1053 529 1053 m 506 -16 q 171 111 290 -16 q 52 471 52 239 q 106 753 52 633 q 261 936 160 872 q 499 1000 362 1000 q 648 979 575 1000 q 774 921 722 959 l 711 779 q 496 831 605 831 q 310 741 376 831 q 244 484 244 650 q 514 155 244 155 q 719 202 639 155 l 783 61 q 665 4 738 24 q 506 -16 591 -16 z "},"ċ":{"ha":655,"x_min":47,"x_max":629,"o":"m 404 -16 q 141 82 235 -16 q 47 359 47 180 q 91 569 47 479 q 214 709 134 659 q 397 758 293 758 q 519 741 460 758 q 621 692 578 723 l 556 549 q 395 591 460 591 q 277 533 319 591 q 236 369 236 475 q 412 152 236 152 q 567 193 490 152 l 629 52 q 404 -16 541 -16 m 362 837 q 281 865 311 837 q 252 941 252 892 q 281 1019 252 991 q 362 1047 311 1047 q 443 1019 414 1047 q 472 943 472 991 q 443 865 472 892 q 362 837 414 837 z "},"Č":{"ha":818,"x_min":52,"x_max":783,"o":"m 389 1059 l 231 1240 l 231 1256 l 368 1256 l 480 1153 l 591 1256 l 724 1256 l 724 1240 l 566 1059 l 389 1059 m 783 61 q 665 4 738 24 q 506 -16 591 -16 q 171 111 290 -16 q 52 471 52 239 q 106 753 52 633 q 261 936 160 872 q 499 1000 362 1000 q 648 979 575 1000 q 774 921 722 959 l 711 779 q 496 831 605 831 q 310 741 376 831 q 244 484 244 650 q 514 155 244 155 q 719 202 639 155 l 783 61 z "},"č":{"ha":655,"x_min":47,"x_max":629,"o":"m 404 -16 q 141 82 235 -16 q 47 359 47 180 q 91 569 47 479 q 214 709 134 659 q 397 758 293 758 q 519 741 460 758 q 621 692 578 723 l 556 549 q 395 591 460 591 q 277 533 319 591 q 236 369 236 475 q 412 152 236 152 q 567 193 490 152 l 629 52 q 404 -16 541 -16 m 585 1063 l 585 1050 l 446 834 l 278 834 l 140 1050 l 140 1063 l 269 1063 l 363 944 l 460 1063 l 585 1063 z "},"Ď":{"ha":940,"x_min":106,"x_max":875,"o":"m 373 1059 l 214 1240 l 214 1256 l 351 1256 l 464 1153 l 575 1256 l 708 1256 l 708 1240 l 549 1059 l 373 1059 m 431 982 q 762 859 648 982 q 875 492 875 735 q 762 123 875 247 q 431 0 648 0 l 106 0 l 106 982 l 431 982 m 426 167 q 682 492 682 167 q 427 815 682 815 l 293 815 l 293 167 l 426 167 z "},"ď":{"ha":788,"x_min":53,"x_max":910,"o":"m 506 1044 l 690 1044 l 690 45 l 690 0 l 524 0 l 524 106 q 320 -18 454 -18 q 123 83 193 -18 q 53 369 53 184 q 123 656 53 555 q 321 758 194 758 q 426 738 378 758 q 506 680 473 718 l 506 1044 m 910 1044 l 910 1031 l 864 732 l 758 732 l 758 1044 l 910 1044 m 380 153 q 445 168 415 153 q 506 216 475 183 l 506 532 q 446 577 480 562 q 374 593 412 593 q 241 376 241 593 q 380 153 241 153 z "},"Đ":{"ha":941,"x_min":20,"x_max":876,"o":"m 433 982 q 763 859 650 982 q 876 492 876 735 q 763 123 876 247 q 433 0 650 0 l 107 0 l 107 426 l 20 426 l 20 568 l 107 568 l 107 982 l 433 982 m 427 167 q 684 492 684 167 q 429 815 684 815 l 294 815 l 294 568 l 502 568 l 502 426 l 294 426 l 294 167 l 427 167 z "},"đ":{"ha":791,"x_min":53,"x_max":777,"o":"m 777 823 l 693 823 l 693 0 l 526 0 l 526 106 q 323 -18 457 -18 q 123 81 194 -18 q 53 358 53 179 q 124 637 53 538 q 324 736 195 736 q 429 716 381 736 q 509 658 476 696 l 509 823 l 247 823 l 247 939 l 509 939 l 509 1044 l 693 1044 l 693 939 l 777 939 l 777 823 m 382 153 q 448 168 418 153 q 509 216 477 183 l 509 510 q 449 555 483 540 q 377 571 415 571 q 241 365 241 571 q 382 153 241 153 z "},"Ē":{"ha":784,"x_min":106,"x_max":743,"o":"m 636 1093 l 191 1093 l 191 1218 l 636 1218 l 636 1093 m 743 167 l 743 0 l 106 0 l 106 982 l 724 982 l 724 815 l 293 815 l 293 586 l 610 586 l 610 418 l 293 418 l 293 167 l 743 167 z "},"ē":{"ha":741,"x_min":50,"x_max":696,"o":"m 696 401 q 688 312 696 351 l 237 312 q 422 149 260 149 q 601 193 511 149 l 666 56 q 543 3 612 22 q 401 -16 473 -16 q 142 85 233 -16 q 50 370 50 186 q 136 657 50 556 q 378 758 222 758 q 613 665 530 758 q 696 401 696 571 m 374 597 q 236 435 254 597 l 513 435 q 474 555 510 513 q 374 597 438 597 m 155 987 l 600 987 l 600 863 l 155 863 l 155 987 z "},"Ĕ":{"ha":784,"x_min":106,"x_max":743,"o":"m 414 1058 q 255 1117 312 1058 q 194 1289 198 1176 l 300 1289 q 415 1190 313 1190 q 532 1289 518 1190 l 633 1289 q 572 1117 629 1176 q 414 1058 515 1058 m 743 167 l 743 0 l 106 0 l 106 982 l 724 982 l 724 815 l 293 815 l 293 586 l 610 586 l 610 418 l 293 418 l 293 167 l 743 167 z "},"ĕ":{"ha":741,"x_min":50,"x_max":696,"o":"m 696 401 q 688 312 696 351 l 237 312 q 422 149 260 149 q 601 193 511 149 l 666 56 q 543 3 612 22 q 401 -16 473 -16 q 142 85 233 -16 q 50 370 50 186 q 136 657 50 556 q 378 758 222 758 q 613 665 530 758 q 696 401 696 571 m 374 597 q 236 435 254 597 l 513 435 q 474 555 510 513 q 374 597 438 597 m 377 827 q 218 886 275 827 q 157 1058 161 945 l 263 1058 q 378 959 277 959 q 495 1058 481 959 l 597 1058 q 536 886 593 945 q 377 827 479 827 z "},"Ė":{"ha":784,"x_min":106,"x_max":743,"o":"m 414 1053 q 333 1080 362 1053 q 304 1157 304 1108 q 333 1235 304 1207 q 414 1263 362 1263 q 494 1235 465 1263 q 524 1158 524 1207 q 494 1080 524 1108 q 414 1053 465 1053 m 743 167 l 743 0 l 106 0 l 106 982 l 724 982 l 724 815 l 293 815 l 293 586 l 610 586 l 610 418 l 293 418 l 293 167 l 743 167 z "},"ė":{"ha":741,"x_min":50,"x_max":696,"o":"m 696 401 q 688 312 696 351 l 237 312 q 422 149 260 149 q 601 193 511 149 l 666 56 q 543 3 612 22 q 401 -16 473 -16 q 142 85 233 -16 q 50 370 50 186 q 136 657 50 556 q 378 758 222 758 q 613 665 530 758 q 696 401 696 571 m 374 597 q 236 435 254 597 l 513 435 q 474 555 510 513 q 374 597 438 597 m 377 837 q 296 865 326 837 q 267 941 267 892 q 296 1019 267 991 q 377 1047 326 1047 q 458 1019 429 1047 q 487 943 487 991 q 458 865 487 892 q 377 837 429 837 z "},"Ę":{"ha":784,"x_min":106,"x_max":812,"o":"m 812 -270 q 738 -301 780 -290 q 652 -312 696 -312 q 528 -275 572 -312 q 483 -172 483 -239 q 513 -73 483 -118 q 600 0 544 -28 l 106 0 l 106 982 l 724 982 l 724 815 l 293 815 l 293 586 l 610 586 l 610 418 l 293 418 l 293 167 l 743 167 l 743 0 q 633 -138 633 -65 q 696 -193 633 -193 q 772 -175 732 -193 l 812 -270 z "},"ę":{"ha":741,"x_min":50,"x_max":696,"o":"m 696 401 q 688 312 696 351 l 237 312 q 422 149 260 149 q 601 193 511 149 l 666 56 q 617 30 632 37 q 523 -45 560 3 q 486 -138 486 -94 q 548 -193 486 -193 q 624 -175 585 -193 l 665 -270 q 590 -301 632 -290 q 505 -312 548 -312 q 380 -275 425 -312 q 335 -172 335 -239 q 357 -87 335 -127 q 418 -16 378 -47 l 401 -16 q 142 85 233 -16 q 50 370 50 186 q 136 657 50 556 q 378 758 222 758 q 613 665 530 758 q 696 401 696 571 m 374 597 q 236 435 254 597 l 513 435 q 474 555 510 513 q 374 597 438 597 z "},"Ě":{"ha":784,"x_min":106,"x_max":743,"o":"m 326 1059 l 167 1240 l 167 1256 l 304 1256 l 416 1153 l 528 1256 l 661 1256 l 661 1240 l 502 1059 l 326 1059 m 743 167 l 743 0 l 106 0 l 106 982 l 724 982 l 724 815 l 293 815 l 293 586 l 610 586 l 610 418 l 293 418 l 293 167 l 743 167 z "},"ě":{"ha":741,"x_min":50,"x_max":696,"o":"m 696 401 q 688 312 696 351 l 237 312 q 422 149 260 149 q 601 193 511 149 l 666 56 q 543 3 612 22 q 401 -16 473 -16 q 142 85 233 -16 q 50 370 50 186 q 136 657 50 556 q 378 758 222 758 q 613 665 530 758 q 696 401 696 571 m 374 597 q 236 435 254 597 l 513 435 q 474 555 510 513 q 374 597 438 597 m 600 1063 l 600 1050 l 461 834 l 293 834 l 155 1050 l 155 1063 l 283 1063 l 378 944 l 475 1063 l 600 1063 z "},"Ĝ":{"ha":906,"x_min":65,"x_max":827,"o":"m 376 1059 l 243 1059 l 243 1076 l 401 1256 l 578 1256 l 736 1076 l 736 1059 l 600 1059 l 487 1162 l 376 1059 m 827 563 l 827 61 q 692 3 772 23 q 528 -18 613 -18 q 186 115 307 -18 q 65 491 65 248 q 186 867 65 734 q 528 1000 307 1000 q 690 979 614 1000 q 818 922 766 959 l 764 773 q 525 833 636 833 q 258 491 258 833 q 528 149 258 149 q 640 163 582 149 l 640 397 l 479 397 l 479 563 l 827 563 z "},"ĝ":{"ha":791,"x_min":53,"x_max":693,"o":"m 693 741 l 693 30 q 604 -213 693 -127 q 353 -298 515 -298 q 222 -284 286 -298 q 106 -243 157 -270 l 157 -98 q 332 -137 248 -137 q 509 30 509 -137 l 509 118 q 323 23 442 23 q 123 119 194 23 q 53 389 53 214 q 124 662 53 566 q 324 758 195 758 q 442 732 389 758 q 526 655 495 705 l 526 741 l 693 741 m 382 194 q 448 209 418 194 q 509 256 477 224 l 509 532 q 449 577 483 562 q 377 593 415 593 q 241 396 241 593 q 382 194 241 194 m 613 848 l 613 834 l 484 834 l 388 954 l 293 834 l 168 834 l 168 848 l 307 1063 l 475 1063 l 613 848 z "},"Ğ":{"ha":906,"x_min":65,"x_max":827,"o":"m 490 1058 q 331 1117 388 1058 q 270 1289 274 1176 l 376 1289 q 491 1190 389 1190 q 608 1289 594 1190 l 709 1289 q 648 1117 705 1176 q 490 1058 591 1058 m 827 563 l 827 61 q 692 3 772 23 q 528 -18 613 -18 q 186 115 307 -18 q 65 491 65 248 q 186 867 65 734 q 528 1000 307 1000 q 690 979 614 1000 q 818 922 766 959 l 764 773 q 525 833 636 833 q 258 491 258 833 q 528 149 258 149 q 640 163 582 149 l 640 397 l 479 397 l 479 563 l 827 563 z "},"ğ":{"ha":791,"x_min":53,"x_max":693,"o":"m 693 741 l 693 30 q 604 -213 693 -127 q 353 -298 515 -298 q 222 -284 286 -298 q 106 -243 157 -270 l 157 -98 q 332 -137 248 -137 q 509 30 509 -137 l 509 118 q 323 23 442 23 q 123 119 194 23 q 53 389 53 214 q 124 662 53 566 q 324 758 195 758 q 442 732 389 758 q 526 655 495 705 l 526 741 l 693 741 m 382 194 q 448 209 418 194 q 509 256 477 224 l 509 532 q 449 577 483 562 q 377 593 415 593 q 241 396 241 593 q 382 194 241 194 m 391 827 q 232 886 289 827 q 171 1058 175 945 l 277 1058 q 392 959 290 959 q 509 1058 495 959 l 610 1058 q 549 886 606 945 q 391 827 492 827 z "},"Ġ":{"ha":906,"x_min":65,"x_max":827,"o":"m 490 1053 q 409 1080 438 1053 q 380 1157 380 1108 q 409 1235 380 1207 q 490 1263 438 1263 q 570 1235 541 1263 q 600 1158 600 1207 q 570 1080 600 1108 q 490 1053 541 1053 m 827 563 l 827 61 q 692 3 772 23 q 528 -18 613 -18 q 186 115 307 -18 q 65 491 65 248 q 186 867 65 734 q 528 1000 307 1000 q 690 979 614 1000 q 818 922 766 959 l 764 773 q 525 833 636 833 q 258 491 258 833 q 528 149 258 149 q 640 163 582 149 l 640 397 l 479 397 l 479 563 l 827 563 z "},"ġ":{"ha":791,"x_min":53,"x_max":693,"o":"m 693 741 l 693 30 q 604 -213 693 -127 q 353 -298 515 -298 q 222 -284 286 -298 q 106 -243 157 -270 l 157 -98 q 332 -137 248 -137 q 509 30 509 -137 l 509 118 q 323 23 442 23 q 123 119 194 23 q 53 389 53 214 q 124 662 53 566 q 324 758 195 758 q 442 732 389 758 q 526 655 495 705 l 526 741 l 693 741 m 382 194 q 448 209 418 194 q 509 256 477 224 l 509 532 q 449 577 483 562 q 377 593 415 593 q 241 396 241 593 q 382 194 241 194 m 391 837 q 310 865 339 837 q 281 941 281 892 q 310 1019 281 991 q 391 1047 339 1047 q 471 1019 442 1047 q 500 943 500 991 q 471 865 500 892 q 391 837 442 837 z "},"Ģ":{"ha":906,"x_min":65,"x_max":827,"o":"m 827 563 l 827 61 q 692 3 772 23 q 528 -18 613 -18 q 186 115 307 -18 q 65 491 65 248 q 186 867 65 734 q 528 1000 307 1000 q 690 979 614 1000 q 818 922 766 959 l 764 773 q 525 833 636 833 q 258 491 258 833 q 528 149 258 149 q 640 163 582 149 l 640 397 l 479 397 l 479 563 l 827 563 m 347 -323 q 395 -249 381 -286 q 408 -157 408 -212 q 403 -90 408 -125 l 571 -90 q 576 -156 576 -125 q 538 -278 576 -221 q 414 -395 499 -335 l 347 -323 z "},"ģ":{"ha":791,"x_min":53,"x_max":693,"o":"m 693 741 l 693 30 q 604 -213 693 -127 q 353 -298 515 -298 q 222 -284 286 -298 q 106 -243 157 -270 l 157 -98 q 332 -137 248 -137 q 509 30 509 -137 l 509 118 q 323 23 442 23 q 123 119 194 23 q 53 389 53 214 q 124 662 53 566 q 324 758 195 758 q 442 732 389 758 q 526 655 495 705 l 526 741 l 693 741 m 382 194 q 448 209 418 194 q 509 256 477 224 l 509 532 q 449 577 483 562 q 377 593 415 593 q 241 396 241 593 q 382 194 241 194 m 526 1053 q 479 979 492 1016 q 465 887 465 941 q 471 819 465 854 l 302 819 q 297 886 297 854 q 336 1008 297 951 q 460 1124 374 1065 l 526 1053 z "},"Ĥ":{"ha":955,"x_min":106,"x_max":849,"o":"m 363 1059 l 231 1059 l 231 1076 l 389 1256 l 566 1256 l 724 1076 l 724 1059 l 587 1059 l 475 1162 l 363 1059 m 849 982 l 849 0 l 662 0 l 662 415 l 293 415 l 293 0 l 106 0 l 106 982 l 293 982 l 293 582 l 662 582 l 662 982 l 849 982 z "},"ĥ":{"ha":800,"x_min":-57,"x_max":709,"o":"m 187 1225 l 76 1122 l -57 1122 l -57 1138 l 102 1318 l 278 1318 l 437 1138 l 437 1122 l 300 1122 l 187 1225 m 488 758 q 652 695 594 758 q 709 515 709 632 l 709 0 l 525 0 l 525 488 q 416 587 525 587 q 347 575 378 587 q 282 537 316 563 l 282 0 l 98 0 l 98 1044 l 282 1044 l 282 667 q 488 758 365 758 z "},"Ħ":{"ha":955,"x_min":20,"x_max":935,"o":"m 935 705 l 849 705 l 849 0 l 662 0 l 662 415 l 293 415 l 293 0 l 106 0 l 106 705 l 20 705 l 20 844 l 106 844 l 106 982 l 293 982 l 293 844 l 662 844 l 662 982 l 849 982 l 849 844 l 935 844 l 935 705 m 662 705 l 293 705 l 293 582 l 662 582 l 662 705 z "},"ħ":{"ha":803,"x_min":14,"x_max":712,"o":"m 490 734 q 654 671 597 734 q 712 491 712 608 l 712 0 l 528 0 l 528 464 q 418 563 528 563 q 347 551 378 563 q 282 513 316 538 l 282 0 l 98 0 l 98 818 l 14 818 l 14 944 l 98 944 l 98 1044 l 282 1044 l 282 944 l 551 944 l 551 818 l 282 818 l 282 643 q 490 734 365 734 z "},"Ĩ":{"ha":404,"x_min":-31,"x_max":435,"o":"m 281 1065 q 220 1078 243 1065 q 176 1114 198 1090 q 151 1136 163 1128 q 125 1143 140 1143 q 69 1067 77 1143 l -31 1067 q 9 1217 -31 1164 q 123 1271 50 1271 q 184 1258 161 1271 q 228 1222 206 1245 q 253 1200 241 1207 q 279 1192 264 1192 q 335 1268 327 1192 l 435 1268 q 395 1118 435 1172 q 281 1065 354 1065 m 109 982 l 296 982 l 296 0 l 109 0 l 109 982 z "},"ĩ":{"ha":385,"x_min":-41,"x_max":426,"o":"m 271 834 q 211 847 233 834 q 167 883 189 860 q 142 905 153 898 q 115 913 130 913 q 60 837 68 913 l -41 837 q 0 987 -41 933 q 114 1040 41 1040 q 174 1027 152 1040 q 218 991 197 1015 q 243 969 232 977 q 270 962 255 962 q 326 1038 317 962 l 426 1038 q 385 888 426 941 q 271 834 345 834 m 100 741 l 285 741 l 285 0 l 100 0 l 100 741 z "},"Ī":{"ha":404,"x_min":-20,"x_max":425,"o":"m -20 1218 l 425 1218 l 425 1093 l -20 1093 l -20 1218 m 109 982 l 296 982 l 296 0 l 109 0 l 109 982 z "},"ī":{"ha":385,"x_min":16,"x_max":369,"o":"m 16 987 l 369 987 l 369 863 l 16 863 l 16 987 m 100 741 l 285 741 l 285 0 l 100 0 l 100 741 z "},"Ĭ":{"ha":404,"x_min":-18,"x_max":422,"o":"m 202 1058 q 43 1117 100 1058 q -18 1289 -14 1176 l 88 1289 q 203 1190 102 1190 q 320 1289 307 1190 l 422 1289 q 361 1117 418 1176 q 202 1058 304 1058 m 109 982 l 296 982 l 296 0 l 109 0 l 109 982 z "},"ĭ":{"ha":385,"x_min":-27,"x_max":412,"o":"m 100 741 l 285 741 l 285 0 l 100 0 l 100 741 m 193 827 q 34 886 91 827 q -27 1058 -23 945 l 79 1058 q 194 959 92 959 q 311 1058 297 959 l 412 1058 q 351 886 408 945 q 193 827 294 827 z "},"Į":{"ha":404,"x_min":53,"x_max":382,"o":"m 382 -270 q 308 -301 350 -290 q 222 -312 266 -312 q 98 -275 142 -312 q 53 -172 53 -239 q 80 -76 53 -121 q 157 0 107 -31 l 109 0 l 109 982 l 296 982 l 296 0 q 203 -138 203 -68 q 266 -193 203 -193 q 342 -175 302 -193 l 382 -270 z "},"į":{"ha":385,"x_min":42,"x_max":372,"o":"m 193 837 q 112 865 141 837 q 83 941 83 892 q 112 1019 83 991 q 193 1047 141 1047 q 273 1019 244 1047 q 302 943 302 991 q 273 865 302 892 q 193 837 244 837 m 372 -270 q 297 -301 339 -290 q 212 -312 255 -312 q 87 -275 132 -312 q 42 -172 42 -239 q 69 -76 42 -121 q 146 0 96 -31 l 100 0 l 100 741 l 285 741 l 285 0 q 193 -138 193 -68 q 255 -193 193 -193 q 331 -175 292 -193 l 372 -270 z "},"İ":{"ha":404,"x_min":92,"x_max":312,"o":"m 202 1053 q 121 1080 151 1053 q 92 1157 92 1108 q 121 1235 92 1207 q 202 1263 151 1263 q 283 1235 254 1263 q 312 1158 312 1207 q 283 1080 312 1108 q 202 1053 254 1053 m 109 982 l 296 982 l 296 0 l 109 0 l 109 982 z "},"ı":{"ha":385,"x_min":100,"x_max":285,"o":"m 100 741 l 285 741 l 285 0 l 100 0 l 100 741 z "},"Ĳ":{"ha":937,"x_min":106,"x_max":856,"o":"m 106 982 l 293 982 l 293 0 l 106 0 l 106 982 m 581 -18 q 476 -5 528 -18 q 384 28 425 7 l 442 183 q 571 151 519 151 q 669 267 669 151 l 669 982 l 856 982 l 856 254 q 784 54 856 125 q 581 -18 712 -18 z "},"ĳ":{"ha":770,"x_min":83,"x_max":688,"o":"m 100 741 l 285 741 l 285 0 l 100 0 l 100 741 m 193 837 q 112 865 141 837 q 83 941 83 892 q 112 1019 83 991 q 193 1047 141 1047 q 273 1019 244 1047 q 302 943 302 991 q 273 865 302 892 q 193 837 244 837 m 292 -152 q 413 -97 372 -125 q 470 -31 454 -69 q 486 72 486 7 l 486 741 l 670 741 l 670 66 q 642 -104 670 -38 q 545 -216 613 -171 q 353 -302 477 -262 l 292 -152 m 578 837 q 497 865 526 837 q 468 941 468 892 q 497 1019 468 991 q 578 1047 526 1047 q 659 1019 629 1047 q 688 943 688 991 q 659 865 688 892 q 578 837 629 837 z "},"Ĵ":{"ha":640,"x_min":0,"x_max":694,"o":"m 694 1076 l 694 1059 l 557 1059 l 445 1162 l 334 1059 l 201 1059 l 201 1076 l 359 1256 l 536 1256 l 694 1076 m 354 982 l 541 982 l 541 254 q 463 54 541 125 q 244 -18 385 -18 q 107 2 171 -18 q 0 58 43 22 l 66 201 q 235 151 159 151 q 354 267 354 151 l 354 982 z "},"ĵ":{"ha":385,"x_min":-94,"x_max":415,"o":"m -94 -152 q 28 -97 -14 -125 q 85 -31 69 -69 q 100 72 100 7 l 100 741 l 285 741 l 285 66 q 256 -104 285 -38 q 160 -216 228 -171 q -33 -302 92 -262 l -94 -152 m 415 848 l 415 834 l 286 834 l 190 954 l 95 834 l -30 834 l -30 848 l 109 1063 l 277 1063 l 415 848 z "},"Ķ":{"ha":863,"x_min":106,"x_max":882,"o":"m 397 408 l 293 278 l 293 0 l 106 0 l 106 982 l 293 982 l 293 519 l 639 982 l 860 982 l 515 555 l 882 0 l 661 0 l 397 408 m 327 -323 q 374 -249 361 -286 q 388 -157 388 -212 q 382 -90 388 -125 l 551 -90 q 556 -156 556 -125 q 517 -278 556 -221 q 393 -395 479 -335 l 327 -323 z "},"ķ":{"ha":766,"x_min":98,"x_max":758,"o":"m 359 292 l 282 199 l 282 0 l 98 0 l 98 1044 l 282 1044 l 282 434 l 528 741 l 738 741 l 476 430 l 758 0 l 548 0 l 359 292 m 258 -323 q 305 -249 292 -286 q 319 -157 319 -212 q 313 -90 319 -125 l 481 -90 q 487 -156 487 -125 q 448 -278 487 -221 q 324 -395 410 -335 l 258 -323 z "},"ĸ":{"ha":766,"x_min":98,"x_max":758,"o":"m 359 292 l 282 199 l 282 0 l 98 0 l 98 741 l 282 741 l 282 434 l 528 741 l 738 741 l 476 430 l 758 0 l 548 0 l 359 292 z "},"Ĺ":{"ha":720,"x_min":106,"x_max":688,"o":"m 278 1059 l 123 1059 l 123 1076 l 320 1256 l 525 1256 l 525 1240 l 278 1059 m 688 168 l 688 0 l 106 0 l 106 982 l 293 982 l 293 168 l 688 168 z "},"ĺ":{"ha":442,"x_min":71,"x_max":472,"o":"m 71 1138 l 267 1318 l 472 1318 l 472 1302 l 225 1122 l 71 1122 l 71 1138 m 294 -9 q 144 39 194 -9 q 95 189 95 88 l 95 1044 l 279 1044 l 279 229 q 294 172 279 190 q 345 155 309 155 q 392 159 366 155 l 404 3 q 294 -9 351 -9 z "},"Ļ":{"ha":720,"x_min":106,"x_max":688,"o":"m 688 168 l 688 0 l 106 0 l 106 982 l 293 982 l 293 168 l 688 168 m 266 -323 q 313 -249 300 -286 q 327 -157 327 -212 q 321 -90 327 -125 l 490 -90 q 495 -156 495 -125 q 456 -278 495 -221 q 332 -395 418 -335 l 266 -323 z "},"ļ":{"ha":442,"x_min":95,"x_max":404,"o":"m 294 -9 q 144 39 194 -9 q 95 189 95 88 l 95 1044 l 279 1044 l 279 229 q 294 172 279 190 q 345 155 309 155 q 392 159 366 155 l 404 3 q 294 -9 351 -9 m 99 -323 q 146 -249 133 -286 q 160 -157 160 -212 q 155 -90 160 -125 l 323 -90 q 328 -156 328 -125 q 290 -278 328 -221 q 165 -395 251 -335 l 99 -323 z "},"Ľ":{"ha":720,"x_min":106,"x_max":688,"o":"m 541 732 l 435 732 l 435 1044 l 587 1044 l 587 1031 l 541 732 m 688 168 l 688 0 l 106 0 l 106 982 l 293 982 l 293 168 l 688 168 z "},"ľ":{"ha":445,"x_min":95,"x_max":511,"o":"m 294 -9 q 144 39 194 -9 q 95 189 95 88 l 95 1044 l 279 1044 l 279 229 q 294 172 279 190 q 345 155 309 155 q 392 159 366 155 l 404 3 q 294 -9 351 -9 m 359 1044 l 511 1044 l 511 1031 l 465 732 l 359 732 l 359 1044 z "},"Ŀ":{"ha":720,"x_min":106,"x_max":688,"o":"m 688 168 l 688 0 l 106 0 l 106 982 l 293 982 l 293 168 l 688 168 m 551 454 q 470 482 499 454 q 441 559 441 510 q 470 637 441 609 q 551 665 499 665 q 631 637 602 665 q 661 560 661 609 q 631 482 661 510 q 551 454 602 454 z "},"ŀ":{"ha":538,"x_min":95,"x_max":566,"o":"m 294 -9 q 144 39 194 -9 q 95 189 95 88 l 95 1044 l 279 1044 l 279 229 q 294 172 279 190 q 345 155 309 155 q 392 159 366 155 l 404 3 q 294 -9 351 -9 m 456 438 q 375 466 404 438 q 346 543 346 494 q 375 621 346 593 q 456 648 404 648 q 536 621 507 648 q 566 544 566 593 q 536 466 566 494 q 456 438 507 438 z "},"Ł":{"ha":726,"x_min":33,"x_max":693,"o":"m 693 168 l 693 0 l 111 0 l 111 315 l 46 275 l 33 275 l 33 422 l 111 465 l 111 982 l 298 982 l 298 570 l 545 713 l 559 713 l 559 567 l 298 422 l 298 168 l 693 168 z "},"ł":{"ha":491,"x_min":24,"x_max":444,"o":"m 312 519 l 312 229 q 327 172 312 190 q 377 155 342 155 q 425 159 399 155 l 437 3 q 327 -9 384 -9 q 177 39 227 -9 q 127 189 127 88 l 127 410 l 38 354 l 24 354 l 24 498 l 127 559 l 127 1044 l 312 1044 l 312 669 l 430 741 l 444 741 l 444 597 l 312 519 z "},"Ń":{"ha":985,"x_min":106,"x_max":879,"o":"m 530 1059 l 376 1059 l 376 1076 l 572 1256 l 777 1256 l 777 1240 l 530 1059 m 879 982 l 879 0 l 699 0 l 290 666 l 290 0 l 106 0 l 106 982 l 286 982 l 694 319 l 694 982 l 879 982 z "},"ń":{"ha":798,"x_min":98,"x_max":707,"o":"m 487 758 q 649 694 591 758 q 707 515 707 631 l 707 0 l 522 0 l 522 488 q 415 587 522 587 q 347 575 378 587 q 282 537 316 563 l 282 0 l 98 0 l 98 741 l 264 741 l 264 647 q 487 758 351 758 m 302 848 l 431 1063 l 623 1063 l 623 1050 l 444 834 l 302 834 l 302 848 z "},"Ņ":{"ha":985,"x_min":106,"x_max":879,"o":"m 879 982 l 879 0 l 699 0 l 290 666 l 290 0 l 106 0 l 106 982 l 286 982 l 694 319 l 694 982 l 879 982 m 350 -323 q 397 -249 384 -286 q 411 -157 411 -212 q 406 -90 411 -125 l 574 -90 q 579 -156 579 -125 q 541 -278 579 -221 q 416 -395 502 -335 l 350 -323 z "},"ņ":{"ha":798,"x_min":98,"x_max":707,"o":"m 487 758 q 649 694 591 758 q 707 515 707 631 l 707 0 l 522 0 l 522 488 q 415 587 522 587 q 347 575 378 587 q 282 537 316 563 l 282 0 l 98 0 l 98 741 l 264 741 l 264 647 q 487 758 351 758 m 262 -323 q 309 -249 296 -286 q 323 -157 323 -212 q 317 -90 323 -125 l 486 -90 q 491 -156 491 -125 q 452 -278 491 -221 q 328 -395 414 -335 l 262 -323 z "},"Ň":{"ha":985,"x_min":106,"x_max":879,"o":"m 404 1059 l 245 1240 l 245 1256 l 382 1256 l 495 1153 l 606 1256 l 739 1256 l 739 1240 l 581 1059 l 404 1059 m 879 982 l 879 0 l 699 0 l 290 666 l 290 0 l 106 0 l 106 982 l 286 982 l 694 319 l 694 982 l 879 982 z "},"ň":{"ha":798,"x_min":98,"x_max":707,"o":"m 487 758 q 649 694 591 758 q 707 515 707 631 l 707 0 l 522 0 l 522 488 q 415 587 522 587 q 347 575 378 587 q 282 537 316 563 l 282 0 l 98 0 l 98 741 l 264 741 l 264 647 q 487 758 351 758 m 625 1063 l 625 1050 l 487 834 l 319 834 l 180 1050 l 180 1063 l 309 1063 l 404 944 l 500 1063 l 625 1063 z "},"ŉ":{"ha":798,"x_min":-130,"x_max":707,"o":"m 487 758 q 649 694 591 758 q 707 515 707 631 l 707 0 l 522 0 l 522 488 q 415 587 522 587 q 347 575 378 587 q 282 537 316 563 l 282 0 l 98 0 l 98 741 l 264 741 l 264 647 q 487 758 351 758 m -130 765 q -69 856 -87 811 q -52 966 -52 901 q -54 1044 -52 1015 l 111 1044 q 114 967 114 1015 q 72 826 114 891 q -65 694 30 761 l -130 765 z "},"Ŋ":{"ha":986,"x_min":106,"x_max":879,"o":"m 879 982 l 879 0 l 879 -41 q 808 -231 879 -164 q 609 -298 738 -298 q 392 -228 479 -298 l 457 -90 q 600 -134 538 -134 q 694 -27 694 -134 l 694 7 l 290 666 l 290 0 l 106 0 l 106 982 l 286 982 l 694 319 l 694 982 l 879 982 z "},"ŋ":{"ha":798,"x_min":98,"x_max":707,"o":"m 487 758 q 649 694 591 758 q 707 515 707 631 l 707 0 l 707 -68 q 646 -238 707 -178 q 476 -298 586 -298 q 301 -245 377 -298 l 359 -110 q 461 -137 425 -137 q 507 -117 492 -137 q 522 -54 522 -98 l 522 294 l 522 488 q 415 587 522 587 q 347 575 378 587 q 282 537 316 563 l 282 0 l 98 0 l 98 741 l 264 741 l 264 647 q 487 758 351 758 z "},"Ō":{"ha":971,"x_min":65,"x_max":906,"o":"m 263 1218 l 708 1218 l 708 1093 l 263 1093 l 263 1218 m 486 -18 q 173 111 281 -18 q 65 491 65 239 q 173 871 65 743 q 486 1000 281 1000 q 798 871 690 1000 q 906 491 906 743 q 798 111 906 239 q 486 -18 690 -18 m 486 149 q 713 491 713 149 q 486 833 713 833 q 258 491 258 833 q 486 149 258 149 z "},"ō":{"ha":764,"x_min":53,"x_max":711,"o":"m 381 -18 q 138 80 222 -18 q 53 370 53 178 q 138 660 53 562 q 382 758 224 758 q 626 661 541 758 q 711 370 711 563 q 625 81 711 179 q 381 -18 540 -18 m 381 146 q 522 370 522 146 q 382 594 522 594 q 241 370 241 594 q 381 146 241 146 m 160 987 l 605 987 l 605 863 l 160 863 l 160 987 z "},"Ŏ":{"ha":971,"x_min":65,"x_max":906,"o":"m 486 1058 q 327 1117 384 1058 q 266 1289 270 1176 l 372 1289 q 487 1190 385 1190 q 604 1289 590 1190 l 705 1289 q 644 1117 701 1176 q 486 1058 587 1058 m 486 -18 q 173 111 281 -18 q 65 491 65 239 q 173 871 65 743 q 486 1000 281 1000 q 798 871 690 1000 q 906 491 906 743 q 798 111 906 239 q 486 -18 690 -18 m 486 149 q 713 491 713 149 q 486 833 713 833 q 258 491 258 833 q 486 149 258 149 z "},"ŏ":{"ha":764,"x_min":53,"x_max":711,"o":"m 381 -18 q 138 80 222 -18 q 53 370 53 178 q 138 660 53 562 q 382 758 224 758 q 626 661 541 758 q 711 370 711 563 q 625 81 711 179 q 381 -18 540 -18 m 381 146 q 522 370 522 146 q 382 594 522 594 q 241 370 241 594 q 381 146 241 146 m 382 827 q 224 886 281 827 q 163 1058 167 945 l 269 1058 q 384 959 282 959 q 500 1058 487 959 l 602 1058 q 541 886 598 945 q 382 827 484 827 z "},"Ő":{"ha":971,"x_min":65,"x_max":906,"o":"m 279 1076 l 406 1256 l 575 1256 l 575 1240 l 401 1059 l 279 1059 l 279 1076 m 510 1076 l 637 1256 l 810 1256 l 810 1240 l 635 1059 l 510 1059 l 510 1076 m 486 -18 q 173 111 281 -18 q 65 491 65 239 q 173 871 65 743 q 486 1000 281 1000 q 798 871 690 1000 q 906 491 906 743 q 798 111 906 239 q 486 -18 690 -18 m 486 149 q 713 491 713 149 q 486 833 713 833 q 258 491 258 833 q 486 149 258 149 z "},"ő":{"ha":764,"x_min":53,"x_max":711,"o":"m 381 -18 q 138 80 222 -18 q 53 370 53 178 q 138 660 53 562 q 382 758 224 758 q 626 661 541 758 q 711 370 711 563 q 625 81 711 179 q 381 -18 540 -18 m 381 146 q 522 370 522 146 q 382 594 522 594 q 241 370 241 594 q 381 146 241 146 m 202 848 l 275 1063 l 439 1063 l 439 1050 l 319 834 l 202 834 l 202 848 m 412 848 l 488 1063 l 652 1063 l 652 1050 l 529 834 l 412 834 l 412 848 z "},"Œ":{"ha":1308,"x_min":65,"x_max":1267,"o":"m 1267 167 l 1267 0 l 654 0 l 486 0 q 173 123 281 0 q 65 491 65 247 q 173 859 65 735 q 486 982 281 982 l 707 982 l 1248 982 l 1248 815 l 836 815 l 836 586 l 1134 586 l 1134 418 l 836 418 l 836 167 l 1267 167 m 654 167 l 654 815 l 486 815 q 258 491 258 815 q 486 167 258 167 l 654 167 z "},"œ":{"ha":1195,"x_min":53,"x_max":1150,"o":"m 1150 401 q 1142 312 1150 351 l 700 312 q 880 149 723 149 q 1055 193 964 149 l 1120 56 q 998 3 1066 22 q 860 -16 930 -16 q 608 84 697 -16 q 377 -18 526 -18 q 138 81 224 -18 q 53 370 53 179 q 139 660 53 562 q 378 758 225 758 q 612 652 530 758 q 705 731 647 704 q 837 758 764 758 q 1068 665 986 758 q 1150 401 1150 571 m 833 597 q 699 435 716 597 l 967 435 q 930 555 966 513 q 833 597 895 597 m 377 146 q 514 370 514 146 q 378 594 514 594 q 241 370 241 594 q 377 146 241 146 z "},"Ŕ":{"ha":861,"x_min":106,"x_max":845,"o":"m 469 1059 l 315 1059 l 315 1076 l 511 1256 l 716 1256 l 716 1240 l 469 1059 m 411 339 l 293 339 l 293 0 l 106 0 l 106 982 l 293 982 l 458 982 q 699 899 614 982 q 784 662 784 815 q 737 473 784 549 q 602 363 690 397 l 845 0 l 621 0 l 411 339 m 293 499 l 458 499 q 591 658 591 499 q 453 818 591 818 l 293 818 l 293 499 z "},"ŕ":{"ha":551,"x_min":98,"x_max":538,"o":"m 456 755 q 537 738 502 755 l 502 566 q 415 578 461 578 q 337 562 369 578 q 282 511 305 547 l 282 0 l 98 0 l 98 741 l 264 741 l 264 624 q 456 755 327 755 m 218 848 l 347 1063 l 538 1063 l 538 1050 l 359 834 l 218 834 l 218 848 z "},"Ŗ":{"ha":861,"x_min":106,"x_max":845,"o":"m 411 339 l 293 339 l 293 0 l 106 0 l 106 982 l 293 982 l 458 982 q 699 899 614 982 q 784 662 784 815 q 737 473 784 549 q 602 363 690 397 l 845 0 l 621 0 l 411 339 m 293 499 l 458 499 q 591 658 591 499 q 453 818 591 818 l 293 818 l 293 499 m 315 -323 q 362 -249 349 -286 q 376 -157 376 -212 q 370 -90 376 -125 l 538 -90 q 544 -156 544 -125 q 505 -278 544 -221 q 381 -395 467 -335 l 315 -323 z "},"ŗ":{"ha":551,"x_min":47,"x_max":537,"o":"m 456 755 q 537 738 502 755 l 502 566 q 415 578 461 578 q 337 562 369 578 q 282 511 305 547 l 282 0 l 98 0 l 98 741 l 264 741 l 264 624 q 456 755 327 755 m 47 -323 q 95 -249 81 -286 q 109 -157 109 -212 q 103 -90 109 -125 l 271 -90 q 277 -156 277 -125 q 238 -278 277 -221 q 114 -395 199 -335 l 47 -323 z "},"Ř":{"ha":861,"x_min":106,"x_max":845,"o":"m 343 1059 l 184 1240 l 184 1256 l 321 1256 l 434 1153 l 545 1256 l 678 1256 l 678 1240 l 519 1059 l 343 1059 m 411 339 l 293 339 l 293 0 l 106 0 l 106 982 l 293 982 l 458 982 q 699 899 614 982 q 784 662 784 815 q 737 473 784 549 q 602 363 690 397 l 845 0 l 621 0 l 411 339 m 293 499 l 458 499 q 591 658 591 499 q 453 818 591 818 l 293 818 l 293 499 z "},"ř":{"ha":551,"x_min":96,"x_max":541,"o":"m 456 755 q 537 738 502 755 l 502 566 q 415 578 461 578 q 337 562 369 578 q 282 511 305 547 l 282 0 l 98 0 l 98 741 l 264 741 l 264 624 q 456 755 327 755 m 541 1063 l 541 1050 l 403 834 l 235 834 l 96 1050 l 96 1063 l 225 1063 l 320 944 l 416 1063 l 541 1063 z "},"Ś":{"ha":765,"x_min":39,"x_max":712,"o":"m 250 1076 l 446 1256 l 651 1256 l 651 1240 l 404 1059 l 250 1059 l 250 1076 m 363 -16 q 189 7 274 -16 q 39 73 104 31 l 99 220 q 363 145 228 145 q 533 262 533 145 q 502 342 533 311 q 401 392 471 373 l 290 423 q 108 524 164 458 q 52 699 52 589 q 138 920 52 841 q 381 998 225 998 q 536 981 456 998 q 688 930 616 963 l 627 784 q 378 837 484 837 q 231 730 231 837 q 262 650 231 681 q 362 601 293 620 l 473 570 q 656 469 601 534 q 712 293 712 404 q 621 64 712 145 q 363 -16 529 -16 z "},"ś":{"ha":639,"x_min":27,"x_max":598,"o":"m 304 -16 q 154 3 227 -16 q 27 58 81 23 l 91 208 q 304 145 191 145 q 422 212 422 145 q 401 256 422 239 q 332 285 380 274 l 236 308 q 85 382 132 332 q 39 519 39 433 q 113 694 39 632 q 321 757 187 757 q 457 740 389 757 q 579 693 525 723 l 511 547 q 319 595 411 595 q 216 537 216 595 q 237 494 216 511 q 305 467 259 477 l 401 444 q 551 368 505 419 q 598 229 598 317 q 521 48 598 113 q 304 -16 444 -16 m 209 848 l 338 1063 l 529 1063 l 529 1050 l 350 834 l 209 834 l 209 848 z "},"Ŝ":{"ha":765,"x_min":39,"x_max":712,"o":"m 252 1059 l 119 1059 l 119 1076 l 278 1256 l 454 1256 l 613 1076 l 613 1059 l 476 1059 l 363 1162 l 252 1059 m 473 570 q 656 469 601 534 q 712 293 712 404 q 621 64 712 145 q 363 -16 529 -16 q 189 7 274 -16 q 39 73 104 31 l 99 220 q 363 145 228 145 q 533 262 533 145 q 502 342 533 311 q 401 392 471 373 l 290 423 q 108 524 164 458 q 52 699 52 589 q 138 920 52 841 q 381 998 225 998 q 536 981 456 998 q 688 930 616 963 l 627 784 q 378 837 484 837 q 231 730 231 837 q 262 650 231 681 q 362 601 293 620 l 473 570 z "},"ŝ":{"ha":639,"x_min":27,"x_max":598,"o":"m 304 -16 q 154 3 227 -16 q 27 58 81 23 l 91 208 q 304 145 191 145 q 422 212 422 145 q 401 256 422 239 q 332 285 380 274 l 236 308 q 85 382 132 332 q 39 519 39 433 q 113 694 39 632 q 321 757 187 757 q 457 740 389 757 q 579 693 525 723 l 511 547 q 319 595 411 595 q 216 537 216 595 q 237 494 216 511 q 305 467 259 477 l 401 444 q 551 368 505 419 q 598 229 598 317 q 521 48 598 113 q 304 -16 444 -16 m 532 848 l 532 834 l 403 834 l 307 954 l 212 834 l 87 834 l 87 848 l 225 1063 l 393 1063 l 532 848 z "},"Ş":{"ha":765,"x_min":39,"x_max":712,"o":"m 712 293 q 635 78 712 157 q 415 -14 557 -1 l 374 -69 q 403 -66 393 -66 q 516 -97 476 -66 q 556 -183 556 -127 q 507 -288 556 -251 q 369 -326 458 -326 q 203 -290 277 -326 l 232 -206 q 349 -229 304 -229 q 415 -187 415 -229 q 357 -148 415 -148 q 304 -157 328 -148 l 263 -111 l 304 -14 q 39 73 148 1 l 99 220 q 363 145 228 145 q 533 262 533 145 q 502 342 533 311 q 401 392 471 373 l 290 423 q 108 524 164 458 q 52 699 52 589 q 138 920 52 841 q 381 998 225 998 q 536 981 456 998 q 688 930 616 963 l 627 784 q 378 837 484 837 q 231 730 231 837 q 262 650 231 681 q 362 601 293 620 l 473 570 q 656 469 601 534 q 712 293 712 404 z "},"ş":{"ha":639,"x_min":27,"x_max":598,"o":"m 598 229 q 534 60 598 122 q 353 -14 471 -3 l 312 -69 q 340 -66 331 -66 q 454 -97 414 -66 q 494 -183 494 -127 q 445 -288 494 -251 q 307 -326 396 -326 q 141 -290 214 -326 l 170 -206 q 286 -229 241 -229 q 353 -187 353 -229 q 294 -148 353 -148 q 241 -157 266 -148 l 201 -111 l 241 -14 q 27 58 113 1 l 91 208 q 304 145 191 145 q 422 212 422 145 q 401 256 422 239 q 332 285 380 274 l 236 308 q 85 382 132 332 q 39 519 39 433 q 113 694 39 632 q 321 757 187 757 q 457 740 389 757 q 579 693 525 723 l 511 547 q 319 595 411 595 q 216 537 216 595 q 237 494 216 511 q 305 467 259 477 l 401 444 q 551 368 505 419 q 598 229 598 317 z "},"Š":{"ha":765,"x_min":39,"x_max":712,"o":"m 278 1059 l 119 1240 l 119 1256 l 256 1256 l 369 1153 l 480 1256 l 613 1256 l 613 1240 l 454 1059 l 278 1059 m 473 570 q 656 469 601 534 q 712 293 712 404 q 621 64 712 145 q 363 -16 529 -16 q 189 7 274 -16 q 39 73 104 31 l 99 220 q 363 145 228 145 q 533 262 533 145 q 502 342 533 311 q 401 392 471 373 l 290 423 q 108 524 164 458 q 52 699 52 589 q 138 920 52 841 q 381 998 225 998 q 536 981 456 998 q 688 930 616 963 l 627 784 q 378 837 484 837 q 231 730 231 837 q 262 650 231 681 q 362 601 293 620 l 473 570 z "},"š":{"ha":639,"x_min":27,"x_max":598,"o":"m 304 -16 q 154 3 227 -16 q 27 58 81 23 l 91 208 q 304 145 191 145 q 422 212 422 145 q 401 256 422 239 q 332 285 380 274 l 236 308 q 85 382 132 332 q 39 519 39 433 q 113 694 39 632 q 321 757 187 757 q 457 740 389 757 q 579 693 525 723 l 511 547 q 319 595 411 595 q 216 537 216 595 q 237 494 216 511 q 305 467 259 477 l 401 444 q 551 368 505 419 q 598 229 598 317 q 521 48 598 113 q 304 -16 444 -16 m 532 1063 l 532 1050 l 393 834 l 225 834 l 87 1050 l 87 1063 l 216 1063 l 311 944 l 407 1063 l 532 1063 z "},"Ţ":{"ha":719,"x_min":22,"x_max":697,"o":"m 408 0 l 357 -69 q 385 -66 376 -66 q 498 -97 458 -66 q 538 -183 538 -127 q 490 -288 538 -251 q 351 -326 441 -326 q 186 -290 259 -326 l 214 -206 q 331 -229 286 -229 q 397 -187 397 -229 q 339 -148 397 -148 q 286 -157 311 -148 l 245 -111 l 292 0 l 266 0 l 266 814 l 22 814 l 22 982 l 453 982 l 697 982 l 697 814 l 453 814 l 453 0 l 408 0 z "},"ţ":{"ha":548,"x_min":15,"x_max":524,"o":"m 345 -66 q 458 -97 418 -66 q 498 -183 498 -127 q 449 -288 498 -251 q 311 -326 400 -326 q 145 -290 218 -326 l 174 -206 q 290 -229 245 -229 q 357 -187 357 -229 q 298 -148 357 -148 q 245 -157 270 -148 l 205 -111 l 255 11 q 127 228 127 60 l 127 582 l 15 582 l 15 741 l 129 741 l 129 941 l 312 941 l 312 741 l 514 741 l 514 582 l 312 582 l 312 262 q 337 179 312 205 q 416 153 362 153 q 495 164 454 153 l 524 8 q 387 -11 456 -11 l 359 -11 l 316 -69 q 345 -66 335 -66 z "},"Ť":{"ha":719,"x_min":22,"x_max":697,"o":"m 271 1059 l 113 1240 l 113 1256 l 250 1256 l 362 1153 l 473 1256 l 606 1256 l 606 1240 l 448 1059 l 271 1059 m 697 814 l 453 814 l 453 0 l 266 0 l 266 814 l 22 814 l 22 982 l 453 982 l 697 982 l 697 814 z "},"ť":{"ha":548,"x_min":15,"x_max":524,"o":"m 368 1044 l 519 1044 l 519 1031 l 486 810 l 368 810 l 368 1044 m 387 -11 q 127 228 127 -11 l 127 582 l 15 582 l 15 741 l 129 741 l 129 941 l 312 941 l 312 741 l 514 741 l 514 582 l 312 582 l 312 262 q 337 179 312 205 q 416 153 362 153 q 495 164 454 153 l 524 8 q 387 -11 456 -11 z "},"Ŧ":{"ha":719,"x_min":22,"x_max":697,"o":"m 453 814 l 453 528 l 616 528 l 616 385 l 453 385 l 453 0 l 266 0 l 266 385 l 103 385 l 103 528 l 266 528 l 266 814 l 22 814 l 22 982 l 453 982 l 697 982 l 697 814 l 453 814 z "},"ŧ":{"ha":548,"x_min":15,"x_max":524,"o":"m 524 8 q 387 -11 456 -11 q 127 228 127 -11 l 127 345 l 15 345 l 15 473 l 127 473 l 127 582 l 15 582 l 15 741 l 129 741 l 129 941 l 312 941 l 312 741 l 514 741 l 514 582 l 312 582 l 312 473 l 514 473 l 514 345 l 312 345 l 312 262 q 337 179 312 205 q 416 153 362 153 q 495 164 454 153 l 524 8 z "},"Ũ":{"ha":933,"x_min":99,"x_max":834,"o":"m 563 1065 q 500 1077 526 1065 q 438 1112 473 1089 q 402 1135 418 1127 q 370 1142 387 1142 q 317 1067 326 1142 l 216 1067 q 258 1217 217 1164 q 370 1271 298 1271 q 433 1259 407 1271 q 495 1223 460 1246 q 531 1201 515 1208 q 563 1194 547 1194 q 616 1268 608 1194 l 718 1268 q 675 1118 716 1172 q 563 1065 635 1065 m 465 -18 q 195 75 290 -18 q 99 338 99 168 l 99 982 l 286 982 l 286 351 q 465 149 286 149 q 647 351 647 149 l 647 982 l 834 982 l 834 338 q 738 75 834 168 q 465 -18 642 -18 z "},"ũ":{"ha":787,"x_min":88,"x_max":689,"o":"m 689 741 l 689 0 l 522 0 l 522 104 q 304 -18 441 -18 q 144 46 201 -18 q 88 225 88 110 l 88 741 l 273 741 l 273 252 q 376 153 273 153 q 444 168 414 153 q 505 213 473 182 l 505 741 l 689 741 m 486 834 q 422 846 449 834 q 361 882 396 859 q 325 904 340 897 q 293 911 309 911 q 240 837 248 911 l 138 837 q 180 987 140 933 q 293 1040 221 1040 q 356 1028 330 1040 q 418 993 382 1016 q 454 970 438 978 q 486 963 469 963 q 538 1038 530 963 l 640 1038 q 598 888 639 941 q 486 834 557 834 z "},"Ū":{"ha":933,"x_min":99,"x_max":834,"o":"m 244 1218 l 689 1218 l 689 1093 l 244 1093 l 244 1218 m 465 -18 q 195 75 290 -18 q 99 338 99 168 l 99 982 l 286 982 l 286 351 q 465 149 286 149 q 647 351 647 149 l 647 982 l 834 982 l 834 338 q 738 75 834 168 q 465 -18 642 -18 z "},"ū":{"ha":787,"x_min":88,"x_max":689,"o":"m 689 741 l 689 0 l 522 0 l 522 104 q 304 -18 441 -18 q 144 46 201 -18 q 88 225 88 110 l 88 741 l 273 741 l 273 252 q 376 153 273 153 q 444 168 414 153 q 505 213 473 182 l 505 741 l 689 741 m 167 987 l 612 987 l 612 863 l 167 863 l 167 987 z "},"Ŭ":{"ha":933,"x_min":99,"x_max":834,"o":"m 467 1058 q 308 1117 365 1058 q 247 1289 251 1176 l 353 1289 q 468 1190 366 1190 q 585 1289 571 1190 l 686 1289 q 625 1117 682 1176 q 467 1058 568 1058 m 465 -18 q 195 75 290 -18 q 99 338 99 168 l 99 982 l 286 982 l 286 351 q 465 149 286 149 q 647 351 647 149 l 647 982 l 834 982 l 834 338 q 738 75 834 168 q 465 -18 642 -18 z "},"ŭ":{"ha":787,"x_min":88,"x_max":689,"o":"m 689 741 l 689 0 l 522 0 l 522 104 q 304 -18 441 -18 q 144 46 201 -18 q 88 225 88 110 l 88 741 l 273 741 l 273 252 q 376 153 273 153 q 444 168 414 153 q 505 213 473 182 l 505 741 l 689 741 m 389 827 q 231 886 288 827 q 170 1058 174 945 l 275 1058 q 391 959 289 959 q 507 1058 494 959 l 609 1058 q 548 886 605 945 q 389 827 491 827 z "},"Ů":{"ha":933,"x_min":99,"x_max":834,"o":"m 467 1038 q 330 1080 378 1038 q 281 1200 281 1123 q 330 1320 281 1278 q 467 1363 378 1363 q 604 1320 555 1363 q 652 1200 652 1278 q 604 1080 652 1123 q 467 1038 555 1038 m 467 1127 q 538 1200 538 1127 q 467 1274 538 1274 q 395 1200 395 1274 q 467 1127 395 1127 m 465 -18 q 195 75 290 -18 q 99 338 99 168 l 99 982 l 286 982 l 286 351 q 465 149 286 149 q 647 351 647 149 l 647 982 l 834 982 l 834 338 q 738 75 834 168 q 465 -18 642 -18 z "},"ů":{"ha":787,"x_min":88,"x_max":689,"o":"m 689 741 l 689 0 l 522 0 l 522 104 q 304 -18 441 -18 q 144 46 201 -18 q 88 225 88 110 l 88 741 l 273 741 l 273 252 q 376 153 273 153 q 444 168 414 153 q 505 213 473 182 l 505 741 l 689 741 m 389 814 q 253 857 301 814 q 205 977 205 899 q 253 1097 205 1054 q 389 1139 301 1139 q 526 1097 477 1139 q 574 977 574 1054 q 526 857 574 899 q 389 814 477 814 m 389 902 q 461 977 461 902 q 389 1051 461 1051 q 317 977 317 1051 q 389 902 317 902 z "},"Ű":{"ha":933,"x_min":99,"x_max":834,"o":"m 260 1076 l 387 1256 l 556 1256 l 556 1240 l 382 1059 l 260 1059 l 260 1076 m 491 1076 l 618 1256 l 791 1256 l 791 1240 l 616 1059 l 491 1059 l 491 1076 m 465 -18 q 195 75 290 -18 q 99 338 99 168 l 99 982 l 286 982 l 286 351 q 465 149 286 149 q 647 351 647 149 l 647 982 l 834 982 l 834 338 q 738 75 834 168 q 465 -18 642 -18 z "},"ű":{"ha":787,"x_min":88,"x_max":689,"o":"m 689 741 l 689 0 l 522 0 l 522 104 q 304 -18 441 -18 q 144 46 201 -18 q 88 225 88 110 l 88 741 l 273 741 l 273 252 q 376 153 273 153 q 444 168 414 153 q 505 213 473 182 l 505 741 l 689 741 m 209 848 l 282 1063 l 446 1063 l 446 1050 l 326 834 l 209 834 l 209 848 m 419 848 l 495 1063 l 659 1063 l 659 1050 l 536 834 l 419 834 l 419 848 z "},"Ų":{"ha":933,"x_min":99,"x_max":834,"o":"m 659 16 q 589 -61 614 -20 q 564 -138 564 -102 q 627 -193 564 -193 q 703 -175 663 -193 l 743 -270 q 669 -301 711 -290 q 583 -312 627 -312 q 458 -275 503 -312 q 414 -172 414 -239 q 486 -18 414 -87 l 465 -18 q 195 75 290 -18 q 99 338 99 168 l 99 982 l 286 982 l 286 351 q 465 149 286 149 q 647 351 647 149 l 647 982 l 834 982 l 834 338 q 803 172 834 237 q 696 46 772 107 l 659 16 z "},"ų":{"ha":787,"x_min":88,"x_max":758,"o":"m 758 -270 q 684 -301 726 -290 q 598 -312 642 -312 q 473 -275 518 -312 q 429 -172 429 -239 q 458 -75 429 -119 q 541 -3 487 -31 l 525 -3 l 525 110 q 426 13 479 43 q 304 -18 373 -18 q 144 46 201 -18 q 88 225 88 110 l 88 741 l 273 741 l 273 252 q 376 153 273 153 q 444 168 414 153 q 505 213 473 182 l 505 741 l 689 741 l 689 0 q 579 -138 579 -65 q 642 -193 579 -193 q 718 -175 678 -193 l 758 -270 z "},"Ŵ":{"ha":1218,"x_min":28,"x_max":1190,"o":"m 492 1059 l 359 1059 l 359 1076 l 518 1256 l 694 1256 l 853 1076 l 853 1059 l 716 1059 l 604 1162 l 492 1059 m 1190 982 l 956 0 l 753 0 l 608 727 l 464 0 l 260 0 l 28 982 l 221 982 l 365 221 l 509 981 l 709 981 l 856 220 l 998 982 l 1190 982 z "},"ŵ":{"ha":1073,"x_min":22,"x_max":1051,"o":"m 1051 741 l 850 0 l 652 0 l 536 519 l 422 0 l 224 0 l 22 741 l 206 741 l 326 194 l 444 741 l 631 741 l 753 194 l 868 741 l 1051 741 m 761 848 l 761 834 l 632 834 l 536 954 l 441 834 l 316 834 l 316 848 l 454 1063 l 623 1063 l 761 848 z "},"Ŷ":{"ha":800,"x_min":15,"x_max":785,"o":"m 285 1059 l 152 1059 l 152 1076 l 311 1256 l 487 1256 l 646 1076 l 646 1059 l 509 1059 l 396 1162 l 285 1059 m 785 982 l 492 324 l 492 0 l 305 0 l 305 324 l 15 982 l 214 982 l 401 528 l 587 982 l 785 982 z "},"ŷ":{"ha":709,"x_min":19,"x_max":690,"o":"m 690 741 l 467 42 q 336 -168 426 -87 q 85 -298 245 -248 l 23 -144 q 171 -77 117 -111 q 259 1 225 -43 l 19 741 l 205 741 l 357 195 l 506 741 l 690 741 m 579 848 l 579 834 l 450 834 l 354 954 l 259 834 l 134 834 l 134 848 l 273 1063 l 441 1063 l 579 848 z "},"Ÿ":{"ha":800,"x_min":15,"x_max":785,"o":"m 258 1047 q 186 1073 212 1047 q 160 1142 160 1099 q 186 1214 160 1188 q 258 1240 212 1240 q 330 1214 304 1240 q 357 1143 357 1188 q 331 1072 357 1097 q 258 1047 305 1047 m 538 1047 q 467 1073 492 1047 q 441 1142 441 1099 q 467 1214 441 1188 q 538 1240 492 1240 q 611 1214 585 1240 q 637 1143 637 1188 q 612 1072 637 1097 q 538 1047 586 1047 m 785 982 l 492 324 l 492 0 l 305 0 l 305 324 l 15 982 l 214 982 l 401 528 l 587 982 l 785 982 z "},"Ź":{"ha":753,"x_min":45,"x_max":705,"o":"m 412 1059 l 258 1059 l 258 1076 l 454 1256 l 659 1256 l 659 1240 l 412 1059 m 705 164 l 705 0 l 45 0 l 45 165 l 486 818 l 64 818 l 64 982 l 697 982 l 697 818 l 256 164 l 705 164 z "},"ź":{"ha":640,"x_min":38,"x_max":600,"o":"m 600 156 l 600 0 l 38 0 l 38 156 l 385 585 l 52 585 l 52 741 l 591 741 l 591 585 l 244 156 l 600 156 m 216 848 l 345 1063 l 536 1063 l 536 1050 l 357 834 l 216 834 l 216 848 z "},"Ż":{"ha":753,"x_min":45,"x_max":705,"o":"m 374 1053 q 294 1080 323 1053 q 264 1157 264 1108 q 294 1235 264 1207 q 374 1263 323 1263 q 455 1235 426 1263 q 484 1158 484 1207 q 455 1080 484 1108 q 374 1053 426 1053 m 705 164 l 705 0 l 45 0 l 45 165 l 486 818 l 64 818 l 64 982 l 697 982 l 697 818 l 256 164 l 705 164 z "},"ż":{"ha":640,"x_min":38,"x_max":600,"o":"m 600 156 l 600 0 l 38 0 l 38 156 l 385 585 l 52 585 l 52 741 l 591 741 l 591 585 l 244 156 l 600 156 m 316 837 q 235 865 264 837 q 206 941 206 892 q 235 1019 206 991 q 316 1047 264 1047 q 397 1019 368 1047 q 426 943 426 991 q 397 865 426 892 q 316 837 368 837 z "},"Ž":{"ha":753,"x_min":45,"x_max":705,"o":"m 286 1059 l 127 1240 l 127 1256 l 264 1256 l 377 1153 l 488 1256 l 621 1256 l 621 1240 l 463 1059 l 286 1059 m 705 164 l 705 0 l 45 0 l 45 165 l 486 818 l 64 818 l 64 982 l 697 982 l 697 818 l 256 164 l 705 164 z "},"ž":{"ha":640,"x_min":38,"x_max":600,"o":"m 600 156 l 600 0 l 38 0 l 38 156 l 385 585 l 52 585 l 52 741 l 591 741 l 591 585 l 244 156 l 600 156 m 538 1063 l 538 1050 l 400 834 l 232 834 l 94 1050 l 94 1063 l 222 1063 l 317 944 l 414 1063 l 538 1063 z "},"ſ":{"ha":406,"x_min":98,"x_max":467,"o":"m 384 1067 q 467 1061 430 1067 l 467 901 q 384 906 427 906 q 281 796 281 906 l 281 741 l 281 0 l 98 0 l 98 765 l 98 796 q 173 996 98 925 q 384 1067 248 1067 z "},"ƀ":{"ha":791,"x_min":14,"x_max":738,"o":"m 468 736 q 667 638 597 736 q 738 361 738 540 q 667 81 738 180 q 467 -18 595 -18 q 349 9 401 -18 q 264 85 296 35 l 264 0 l 98 0 l 98 818 l 14 818 l 14 944 l 98 944 l 98 1044 l 282 1044 l 282 944 l 551 944 l 551 818 l 282 818 l 282 642 q 468 736 349 736 m 414 148 q 549 354 549 148 q 408 566 549 566 q 343 551 373 566 q 282 503 313 536 l 282 209 q 342 163 308 179 q 414 148 376 148 z "},"Ɓ":{"ha":989,"x_min":-30,"x_max":937,"o":"m 755 518 q 937 296 937 464 q 852 77 937 155 q 614 0 768 0 l 317 0 l 216 0 l 216 814 q 157 795 176 814 q 137 734 137 776 q 141 669 137 713 l -24 669 q -30 732 -30 697 q 35 917 -30 852 q 216 982 99 982 l 401 982 l 570 982 q 800 909 719 982 q 882 701 882 836 q 755 518 882 566 m 401 817 l 401 582 l 570 582 q 692 697 692 582 q 560 817 692 817 l 401 817 m 624 165 q 746 292 746 165 q 614 422 746 422 l 401 422 l 401 165 l 624 165 z "},"Ƃ":{"ha":850,"x_min":106,"x_max":799,"o":"m 454 648 q 710 567 621 648 q 799 324 799 486 q 711 82 799 164 q 461 0 624 0 l 106 0 l 106 982 l 293 982 l 722 982 l 722 840 l 293 840 l 293 648 l 454 648 m 452 167 q 606 328 606 167 q 464 487 606 487 l 293 487 l 293 167 l 452 167 z "},"ƃ":{"ha":788,"x_min":98,"x_max":735,"o":"m 468 758 q 665 657 595 758 q 735 372 735 556 q 665 84 735 186 q 467 -18 594 -18 q 349 9 401 -18 q 264 85 296 35 l 264 0 l 98 0 l 98 696 l 98 1044 l 282 1044 l 640 1044 l 640 898 l 282 898 l 282 663 q 468 758 349 758 m 414 148 q 547 365 547 148 q 408 587 547 587 q 343 572 373 587 q 282 525 313 557 l 282 209 q 342 163 308 179 q 414 148 376 148 z "},"Ƅ":{"ha":825,"x_min":24,"x_max":811,"o":"m 467 651 q 721 565 631 651 q 811 323 811 479 q 722 85 811 170 q 473 0 633 0 l 118 0 l 118 654 l 24 739 l 24 811 l 174 982 l 305 982 l 305 712 l 305 651 l 467 651 m 464 167 q 618 327 618 167 q 476 484 618 484 l 305 484 l 305 167 l 464 167 z "},"ƅ":{"ha":791,"x_min":16,"x_max":738,"o":"m 471 758 q 668 657 598 758 q 738 372 738 556 q 667 84 738 186 q 469 -18 597 -18 q 351 9 404 -18 q 267 85 298 35 l 267 0 l 100 0 l 100 696 l 100 720 l 16 812 l 16 873 l 156 1044 l 285 1044 l 285 783 l 285 663 q 471 758 351 758 m 416 148 q 549 365 549 148 q 411 587 549 587 q 346 572 376 587 q 285 525 316 557 l 285 209 q 345 163 311 179 q 416 148 378 148 z "},"Ɔ":{"ha":818,"x_min":35,"x_max":766,"o":"m 312 998 q 647 871 528 998 q 766 511 766 743 q 712 229 766 349 q 557 46 658 110 q 319 -18 456 -18 q 170 3 243 -18 q 43 61 96 23 l 107 203 q 321 151 213 151 q 508 241 442 151 q 574 498 574 332 q 304 827 574 827 q 99 780 179 827 l 35 921 q 153 978 80 958 q 312 998 227 998 z "},"Ƈ":{"ha":940,"x_min":52,"x_max":932,"o":"m 868 1171 q 932 1165 903 1171 l 932 1015 q 867 1019 887 1019 q 797 996 819 1019 q 774 925 774 972 l 774 897 l 774 779 l 711 779 q 496 831 605 831 q 310 741 376 831 q 244 484 244 650 q 514 155 244 155 q 719 202 639 155 l 783 61 q 665 4 738 24 q 506 -16 591 -16 q 171 111 290 -16 q 52 471 52 239 q 106 753 52 633 q 261 936 160 872 q 499 1000 362 1000 q 624 985 560 1000 q 702 1122 639 1074 q 868 1171 765 1171 z "},"ƈ":{"ha":779,"x_min":47,"x_max":780,"o":"m 716 935 q 780 929 751 935 l 780 781 q 715 785 735 785 q 644 762 667 785 q 621 689 621 738 l 621 549 l 556 549 q 395 591 460 591 q 277 533 319 591 q 236 369 236 475 q 412 152 236 152 q 567 193 490 152 l 629 52 q 404 -16 541 -16 q 141 82 235 -16 q 47 359 47 180 q 91 569 47 479 q 214 709 134 659 q 397 758 293 758 q 472 751 431 758 q 551 887 488 840 q 716 935 614 935 z "},"Ɖ":{"ha":941,"x_min":20,"x_max":876,"o":"m 433 982 q 763 859 650 982 q 876 492 876 735 q 763 123 876 247 q 433 0 650 0 l 107 0 l 107 426 l 20 426 l 20 568 l 107 568 l 107 982 l 433 982 m 427 167 q 684 492 684 167 q 429 815 684 815 l 294 815 l 294 568 l 502 568 l 502 426 l 294 426 l 294 167 l 427 167 z "},"Ɗ":{"ha":1050,"x_min":-30,"x_max":985,"o":"m 541 982 q 871 859 758 982 q 985 492 985 735 q 871 123 985 247 q 541 0 758 0 l 216 0 l 216 814 q 157 795 176 814 q 137 734 137 776 q 141 669 137 713 l -24 669 q -30 732 -30 697 q 35 917 -30 852 q 216 982 99 982 l 541 982 m 536 167 q 792 492 792 167 q 537 815 792 815 l 403 815 l 403 167 l 536 167 z "},"Ƌ":{"ha":850,"x_min":52,"x_max":745,"o":"m 745 0 l 389 0 q 139 82 227 0 q 52 324 52 164 q 140 567 52 486 q 396 648 229 648 l 557 648 l 557 840 l 129 840 l 129 982 l 745 982 l 745 0 m 557 487 l 387 487 q 244 328 244 487 q 399 167 244 167 l 557 167 l 557 487 z "},"ƌ":{"ha":788,"x_min":53,"x_max":690,"o":"m 690 45 l 690 0 l 524 0 l 524 106 q 320 -18 454 -18 q 123 83 193 -18 q 53 369 53 184 q 123 656 53 555 q 321 758 194 758 q 426 738 378 758 q 506 680 473 718 l 506 898 l 148 898 l 148 1044 l 690 1044 l 690 45 m 380 153 q 445 168 415 153 q 506 216 475 183 l 506 532 q 446 577 480 562 q 374 593 412 593 q 241 376 241 593 q 380 153 241 153 z "},"ƍ":{"ha":764,"x_min":53,"x_max":711,"o":"m 334 -298 q 106 -235 198 -298 l 167 -95 q 339 -140 259 -140 q 431 -77 431 -140 q 415 -39 431 -54 q 349 9 399 -23 l 300 42 q 162 146 210 103 q 83 256 114 189 q 53 426 53 323 q 85 576 53 500 q 193 705 118 652 q 385 757 267 757 q 567 711 494 757 q 675 589 640 665 q 711 429 711 514 q 665 227 711 319 q 503 88 620 136 q 589 9 564 47 q 614 -83 614 -30 q 541 -242 614 -186 q 334 -298 468 -298 m 381 182 q 479 260 438 201 q 521 412 521 319 q 488 551 521 494 q 382 608 454 608 q 279 552 316 608 q 241 412 241 496 q 275 275 241 328 q 381 182 309 221 z "},"Ǝ":{"ha":784,"x_min":41,"x_max":678,"o":"m 678 982 l 678 0 l 41 0 l 41 167 l 491 167 l 491 418 l 174 418 l 174 586 l 491 586 l 491 815 l 60 815 l 60 982 l 678 982 z "},"Ə":{"ha":935,"x_min":45,"x_max":869,"o":"m 422 998 q 755 871 640 998 q 869 490 869 743 q 764 111 869 239 q 458 -16 659 -16 q 153 109 262 -16 q 45 460 45 233 q 54 564 45 526 l 678 564 q 596 755 663 689 q 419 822 529 822 q 163 764 301 822 l 94 911 q 244 976 159 954 q 422 998 330 998 m 461 155 q 678 401 652 155 l 236 401 q 304 218 247 282 q 461 155 362 155 z "},"Ɛ":{"ha":781,"x_min":38,"x_max":768,"o":"m 768 62 q 611 3 703 23 q 427 -16 519 -16 q 144 60 251 -16 q 38 290 38 136 q 222 522 38 467 q 76 735 76 585 q 170 933 76 867 q 427 1000 264 1000 q 731 928 591 1000 l 670 781 q 446 838 556 838 q 315 806 362 838 q 267 708 267 774 q 309 618 267 652 q 429 583 350 583 l 593 583 l 593 429 l 418 429 q 279 401 328 429 q 231 300 231 373 q 283 187 231 224 q 442 151 336 151 q 574 166 505 151 q 700 209 644 182 l 768 62 z "},"Ƒ":{"ha":732,"x_min":-43,"x_max":713,"o":"m 293 815 l 293 559 l 635 559 l 635 391 l 293 391 l 293 0 l 293 -79 q 68 -296 293 -296 q -43 -275 7 -296 l -16 -119 q 56 -129 20 -129 q 94 -114 81 -129 q 106 -65 106 -99 l 106 225 l 106 982 l 713 982 l 713 815 l 293 815 z "},"ƒ":{"ha":785,"x_min":7,"x_max":784,"o":"m 594 812 q 475 692 487 812 l 461 564 l 670 564 l 670 406 l 445 406 l 400 -24 q 312 -218 388 -149 q 110 -288 236 -288 q 7 -273 58 -288 l 34 -91 q 111 -100 69 -100 q 217 7 205 -100 l 259 406 l 121 406 l 121 564 l 275 564 l 292 723 q 382 927 305 854 q 589 1000 460 1000 q 699 984 647 1000 q 784 941 750 968 l 690 785 q 594 812 643 812 z "},"Ɠ":{"ha":1029,"x_min":65,"x_max":975,"o":"m 911 1171 q 975 1165 947 1171 l 975 1015 q 910 1019 930 1019 q 840 996 863 1019 q 818 925 818 972 l 818 897 l 818 773 l 764 773 q 525 833 636 833 q 258 491 258 833 q 528 149 258 149 q 640 163 582 149 l 640 397 l 479 397 l 479 563 l 827 563 l 827 61 q 692 3 772 23 q 528 -18 613 -18 q 186 115 307 -18 q 65 491 65 248 q 186 867 65 734 q 528 1000 307 1000 q 667 985 600 1000 q 745 1122 682 1074 q 911 1171 808 1171 z "},"Ɣ":{"ha":860,"x_min":26,"x_max":834,"o":"m 585 77 q 613 -7 605 26 q 621 -71 621 -41 q 572 -199 621 -153 q 431 -244 522 -244 q 292 -199 342 -244 q 243 -71 243 -153 q 251 -6 243 -39 q 279 77 259 27 l 350 256 l 26 982 l 222 982 l 431 460 l 639 982 l 834 982 l 511 260 l 585 77 m 431 -113 q 468 -54 468 -113 q 442 50 468 -8 l 430 77 l 418 50 q 392 -54 392 -7 q 431 -113 392 -113 z "},"ƕ":{"ha":1232,"x_min":98,"x_max":1134,"o":"m 1082 741 q 1134 369 1134 547 q 1053 83 1134 184 q 822 -18 971 -18 q 603 58 681 -18 q 525 269 525 133 l 525 488 q 416 587 525 587 q 347 575 378 587 q 282 537 316 563 l 282 0 l 98 0 l 98 1044 l 282 1044 l 282 667 q 488 758 365 758 q 652 695 594 758 q 709 515 709 632 l 709 286 q 822 146 709 146 q 951 365 951 146 q 939 542 951 465 q 897 741 928 618 l 1082 741 z "},"Ɩ":{"ha":429,"x_min":106,"x_max":404,"o":"m 294 -11 q 106 183 106 -11 l 106 982 l 293 982 l 293 224 q 305 173 293 189 q 345 157 317 157 q 392 161 366 157 l 404 1 q 294 -11 351 -11 z "},"Ɨ":{"ha":448,"x_min":14,"x_max":434,"o":"m 434 434 l 317 434 l 317 0 l 130 0 l 130 434 l 14 434 l 14 576 l 130 576 l 130 982 l 317 982 l 317 576 l 434 576 l 434 434 z "},"Ƙ":{"ha":861,"x_min":106,"x_max":935,"o":"m 513 559 l 882 0 l 661 0 l 396 410 l 293 279 l 293 0 l 106 0 l 106 982 l 293 982 l 293 521 l 534 857 q 645 972 593 939 q 768 1005 697 1005 q 863 985 823 1005 q 935 924 902 966 l 836 803 q 766 836 802 836 q 726 822 745 836 q 680 772 708 808 l 513 559 z "},"ƙ":{"ha":766,"x_min":98,"x_max":758,"o":"m 359 292 l 282 199 l 282 0 l 98 0 l 98 741 l 98 872 q 308 1067 98 1067 q 420 1047 370 1067 l 395 902 q 331 909 358 909 q 294 897 305 909 q 282 859 282 886 l 282 514 l 282 434 l 528 741 l 738 741 l 476 430 l 758 0 l 548 0 l 359 292 z "},"ƚ":{"ha":492,"x_min":24,"x_max":445,"o":"m 320 483 l 320 229 q 335 172 320 190 q 385 155 350 155 q 433 159 407 155 l 445 3 q 335 -9 392 -9 q 185 39 235 -9 q 136 189 136 88 l 136 483 l 24 483 l 24 612 l 136 612 l 136 1044 l 320 1044 l 320 612 l 445 612 l 445 483 l 320 483 z "},"ƛ":{"ha":709,"x_min":19,"x_max":690,"o":"m 506 0 l 357 545 l 205 0 l 19 0 l 259 739 q 244 758 258 741 l 71 677 l 57 677 l 57 779 l 159 826 q 23 884 103 857 l 85 1039 q 336 909 244 989 l 498 983 l 511 983 l 511 882 l 403 831 q 467 699 442 774 l 690 0 l 506 0 z "},"Ɯ":{"ha":1215,"x_min":106,"x_max":1109,"o":"m 1109 982 l 1109 0 l 941 0 l 941 94 q 726 -18 854 -18 q 608 12 656 -18 q 534 99 559 42 q 317 -18 442 -18 q 162 46 218 -18 q 106 225 106 110 l 106 982 l 293 982 l 293 252 q 389 153 293 153 q 450 165 420 153 q 511 203 479 178 l 511 225 l 511 982 l 699 982 l 699 252 q 798 153 699 153 q 922 202 860 153 l 922 982 l 1109 982 z "},"Ɲ":{"ha":985,"x_min":-46,"x_max":879,"o":"m 879 982 l 879 0 l 699 0 l 290 666 l 290 0 l 290 -79 q 66 -296 290 -296 q -46 -275 4 -296 l -19 -119 q 54 -129 18 -129 q 94 -114 81 -129 q 106 -65 106 -99 l 106 225 l 106 982 l 286 982 l 694 319 l 694 982 l 879 982 z "},"ƞ":{"ha":798,"x_min":98,"x_max":707,"o":"m 487 758 q 649 694 591 758 q 707 515 707 631 l 707 0 l 707 -281 l 522 -281 l 522 88 l 522 488 q 415 587 522 587 q 347 575 378 587 q 282 537 316 563 l 282 0 l 98 0 l 98 741 l 264 741 l 264 647 q 487 758 351 758 z "},"Ɵ":{"ha":971,"x_min":65,"x_max":906,"o":"m 486 1000 q 798 871 690 1000 q 906 491 906 743 q 798 111 906 239 q 486 -18 690 -18 q 173 111 281 -18 q 65 491 65 239 q 173 871 65 743 q 486 1000 281 1000 m 486 833 q 259 576 286 833 l 712 576 q 486 833 686 833 m 486 149 q 713 414 689 149 l 258 414 q 486 149 282 149 z "},"Ơ":{"ha":971,"x_min":65,"x_max":968,"o":"m 968 1090 q 929 938 968 989 q 798 873 890 887 q 906 491 906 742 q 798 111 906 239 q 486 -18 690 -18 q 173 111 281 -18 q 65 491 65 239 q 173 871 65 743 q 486 1000 281 1000 q 628 981 560 1000 q 705 968 674 968 q 787 994 765 968 q 810 1088 810 1019 q 803 1171 810 1122 l 962 1171 q 968 1090 968 1130 m 486 149 q 713 491 713 149 q 486 833 713 833 q 258 491 258 833 q 486 149 258 149 z "},"ơ":{"ha":777,"x_min":53,"x_max":810,"o":"m 810 849 q 769 709 810 755 q 633 650 728 662 q 711 370 711 552 q 625 81 711 179 q 381 -18 540 -18 q 138 80 222 -18 q 53 370 53 178 q 138 660 53 562 q 382 758 224 758 q 473 749 433 758 q 552 741 519 741 q 634 763 612 741 q 656 846 656 785 q 650 929 656 880 l 803 929 q 810 849 810 888 m 381 146 q 522 370 522 146 q 382 594 522 594 q 241 370 241 594 q 381 146 241 146 z "},"Ƣ":{"ha":1238,"x_min":65,"x_max":1133,"o":"m 1133 982 l 1133 -282 l 945 -282 l 945 815 l 836 815 l 836 60 q 671 5 762 24 q 486 -15 579 -15 q 173 113 281 -15 q 65 491 65 240 q 173 869 65 742 q 486 997 281 997 q 563 993 514 997 q 836 982 719 982 l 1133 982 m 486 152 q 648 168 575 152 l 648 822 q 486 830 548 830 q 258 491 258 830 q 486 152 258 152 z "},"ƣ":{"ha":1036,"x_min":53,"x_max":939,"o":"m 939 741 l 939 -279 l 754 -279 l 754 576 l 663 576 l 663 28 q 526 -3 600 8 q 381 -15 452 -15 q 138 82 222 -15 q 53 370 53 179 q 138 659 53 562 q 382 755 224 755 q 464 750 401 755 q 663 741 575 741 l 939 741 m 381 149 q 479 157 434 149 l 479 586 l 425 590 l 382 591 q 241 370 241 595 q 381 149 241 149 z "},"Ƥ":{"ha":922,"x_min":-30,"x_max":909,"o":"m 581 982 q 823 894 738 982 q 909 646 909 806 q 821 395 909 484 q 571 307 732 307 l 403 307 l 403 0 l 216 0 l 216 814 q 157 795 176 814 q 137 734 137 776 q 141 669 137 713 l -24 669 q -30 732 -30 697 q 35 917 -30 852 q 216 982 99 982 l 403 982 l 581 982 m 581 473 q 716 642 716 473 q 571 815 716 815 l 403 815 l 403 473 l 581 473 z "},"ƥ":{"ha":788,"x_min":98,"x_max":735,"o":"m 468 758 q 665 657 595 758 q 735 372 735 556 q 665 84 735 186 q 467 -18 594 -18 q 362 3 410 -18 q 282 61 315 23 l 282 -281 l 98 -281 l 98 547 l 98 741 l 98 872 q 308 1067 98 1067 q 420 1047 370 1067 l 395 901 q 331 909 351 909 q 294 897 305 909 q 282 859 282 886 l 282 663 q 468 758 349 758 m 414 148 q 547 365 547 148 q 408 587 547 587 q 343 572 373 587 q 282 525 313 557 l 282 209 q 342 163 308 179 q 414 148 376 148 z "},"Ʀ":{"ha":814,"x_min":106,"x_max":936,"o":"m 439 281 l 293 281 l 293 0 l 106 0 l 106 982 l 293 982 l 293 872 l 457 872 q 694 795 610 872 q 779 578 779 719 q 739 416 779 483 q 625 315 700 350 l 936 -149 l 705 -149 l 439 281 m 293 441 l 457 441 q 586 572 586 441 q 452 708 586 708 l 293 708 l 293 441 z "},"Ƨ":{"ha":765,"x_min":53,"x_max":726,"o":"m 401 -16 q 144 64 236 -16 q 53 293 53 145 q 109 469 53 404 q 292 570 164 534 l 403 601 q 503 650 472 620 q 534 730 534 681 q 387 837 534 837 q 138 784 281 837 l 77 930 q 229 981 149 963 q 384 998 309 998 q 627 920 540 998 q 713 699 713 841 q 657 524 713 589 q 475 423 601 458 l 363 392 q 263 342 294 373 q 232 262 232 311 q 401 145 232 145 q 666 220 537 145 l 726 73 q 576 7 661 31 q 401 -16 491 -16 z "},"ƨ":{"ha":639,"x_min":41,"x_max":612,"o":"m 335 -16 q 118 48 195 -16 q 41 229 41 113 q 87 368 41 317 q 237 444 134 419 l 334 467 q 401 494 380 477 q 423 537 423 511 q 320 595 423 595 q 127 547 227 595 l 60 693 q 182 740 114 723 q 317 757 250 757 q 526 694 452 757 q 600 519 600 632 q 553 382 600 433 q 403 308 507 332 l 307 285 q 238 256 259 274 q 217 212 217 239 q 335 145 217 145 q 548 208 448 145 l 612 58 q 485 3 557 23 q 335 -16 412 -16 z "},"Ʃ":{"ha":804,"x_min":57,"x_max":761,"o":"m 57 164 l 340 498 l 57 818 l 57 982 l 761 982 l 761 818 l 288 818 l 575 498 l 288 164 l 761 164 l 761 0 l 57 0 l 57 164 z "},"ƪ":{"ha":481,"x_min":-75,"x_max":570,"o":"m 487 -149 q 570 -144 530 -149 l 570 -304 q 487 -311 533 -311 q 276 -239 351 -311 q 201 -39 201 -168 l 201 16 l 201 701 q 104 674 171 674 q -28 722 19 674 q -75 859 -75 770 q -14 1013 -75 958 q 156 1067 46 1067 q 324 1014 264 1067 q 384 864 384 960 l 384 0 l 384 -39 q 487 -149 384 -149 m 146 803 q 197 822 178 803 q 216 872 216 841 q 199 917 216 902 q 152 932 183 932 q 87 867 87 932 q 146 803 87 803 z "},"ƫ":{"ha":548,"x_min":15,"x_max":524,"o":"m 524 -98 q 319 -294 524 -294 q 201 -274 256 -294 l 227 -127 q 296 -134 264 -134 q 338 -123 326 -134 q 351 -84 351 -111 l 351 -9 q 127 228 127 7 l 127 582 l 15 582 l 15 741 l 129 741 l 129 941 l 312 941 l 312 741 l 514 741 l 514 582 l 312 582 l 312 262 q 337 179 312 205 q 416 153 362 153 q 495 164 454 153 l 524 9 l 524 -98 z "},"Ƭ":{"ha":719,"x_min":-27,"x_max":697,"o":"m 697 814 l 453 814 l 453 0 l 266 0 l 266 814 l 218 814 q 159 795 179 814 q 140 734 140 776 q 144 669 140 713 l -22 669 q -27 732 -27 697 q 35 915 -27 849 q 212 982 98 981 l 453 982 l 697 982 l 697 814 z "},"ƭ":{"ha":548,"x_min":15,"x_max":524,"o":"m 524 8 q 387 -11 456 -11 q 127 228 127 -11 l 127 582 l 15 582 l 15 741 l 129 741 l 129 796 q 207 996 129 925 q 429 1067 285 1067 q 511 1061 475 1067 l 511 901 q 429 906 472 906 q 312 796 312 906 l 312 741 l 514 741 l 514 582 l 312 582 l 312 262 q 337 179 312 205 q 416 153 362 153 q 495 164 454 153 l 524 8 z "},"Ʈ":{"ha":719,"x_min":22,"x_max":697,"o":"m 453 -65 q 465 -114 453 -99 q 503 -129 477 -129 q 575 -119 538 -129 l 602 -275 q 491 -296 552 -296 q 266 -79 266 -296 l 266 225 l 266 814 l 22 814 l 22 982 l 453 982 l 697 982 l 697 814 l 453 814 l 453 -65 z "},"Ư":{"ha":933,"x_min":99,"x_max":998,"o":"m 998 1090 q 960 947 998 996 q 834 884 922 898 l 834 338 q 738 75 834 168 q 465 -18 642 -18 q 195 75 290 -18 q 99 338 99 168 l 99 982 l 286 982 l 286 351 q 465 149 286 149 q 647 351 647 149 l 647 982 l 735 982 q 817 1004 795 982 q 840 1088 840 1027 q 833 1171 840 1122 l 991 1171 q 998 1090 998 1130 z "},"ư":{"ha":787,"x_min":88,"x_max":850,"o":"m 850 849 q 813 706 850 754 q 689 644 776 658 l 689 0 l 522 0 l 522 104 q 304 -18 441 -18 q 144 46 201 -18 q 88 225 88 110 l 88 741 l 273 741 l 273 252 q 376 153 273 153 q 444 168 414 153 q 505 213 473 182 l 505 741 l 593 741 q 675 763 652 741 q 697 846 697 785 q 690 929 697 880 l 844 929 q 850 849 850 888 z "},"Ʊ":{"ha":998,"x_min":65,"x_max":933,"o":"m 499 -16 q 273 39 368 -16 q 130 199 179 95 q 81 445 81 302 q 241 834 81 684 l 65 834 l 65 982 l 420 982 l 420 815 q 309 659 343 745 q 274 456 274 574 q 499 148 274 148 q 724 456 724 148 q 690 659 724 574 q 578 815 655 745 l 578 982 l 933 982 l 933 834 l 757 834 q 917 445 917 684 q 868 199 917 302 q 725 39 819 95 q 499 -16 631 -16 z "},"Ʋ":{"ha":933,"x_min":99,"x_max":834,"o":"m 609 1000 q 834 783 834 1000 l 834 479 l 834 338 q 738 75 834 168 q 465 -18 642 -18 q 195 75 290 -18 q 99 338 99 168 l 99 982 l 286 982 l 286 351 q 465 149 286 149 q 647 351 647 149 l 647 711 l 647 769 q 635 818 647 803 q 597 833 623 833 q 525 823 562 833 l 498 979 q 609 1000 548 1000 z "},"Ƴ":{"ha":888,"x_min":15,"x_max":941,"o":"m 747 1008 q 941 788 925 1008 l 791 761 q 775 818 785 800 q 747 836 765 836 q 721 823 732 836 q 696 781 709 811 l 492 324 l 492 0 l 305 0 l 305 324 l 15 982 l 214 982 l 401 528 l 522 822 q 616 964 563 920 q 747 1008 669 1008 z "},"ƴ":{"ha":857,"x_min":19,"x_max":906,"o":"m 716 902 q 906 689 890 902 l 758 662 q 743 717 753 700 q 716 734 734 734 q 690 716 701 734 q 663 655 678 699 l 467 42 q 334 -168 425 -87 q 85 -298 244 -248 l 23 -144 q 171 -77 117 -111 q 259 1 225 -43 l 19 741 l 205 741 l 357 195 l 495 701 q 716 902 549 902 z "},"Ƶ":{"ha":753,"x_min":45,"x_max":705,"o":"m 705 164 l 705 0 l 45 0 l 45 165 l 232 444 l 102 444 l 102 583 l 327 583 l 486 818 l 64 818 l 64 982 l 697 982 l 697 818 l 538 583 l 648 583 l 648 444 l 445 444 l 256 164 l 705 164 z "},"ƶ":{"ha":640,"x_min":38,"x_max":600,"o":"m 600 156 l 600 0 l 38 0 l 38 156 l 165 313 l 69 313 l 69 439 l 267 439 l 385 585 l 52 585 l 52 741 l 591 741 l 591 585 l 473 439 l 574 439 l 574 313 l 372 313 l 244 156 l 600 156 z "},"Ʒ":{"ha":810,"x_min":14,"x_max":761,"o":"m 452 595 q 761 309 761 560 q 705 127 761 201 q 554 18 648 54 q 346 -18 460 -18 q 14 58 153 -18 l 80 208 q 342 151 214 151 q 509 193 449 151 q 568 312 568 236 q 496 430 568 399 q 281 461 425 461 l 222 461 l 222 598 l 469 818 l 61 818 l 61 982 l 699 982 l 699 814 l 452 595 z "},"Ƹ":{"ha":810,"x_min":49,"x_max":796,"o":"m 796 58 q 464 -18 656 -18 q 256 18 350 -18 q 105 127 161 54 q 49 309 49 201 q 358 595 49 560 l 111 814 l 111 982 l 749 982 l 749 818 l 340 818 l 587 598 l 587 461 l 529 461 q 313 430 385 461 q 241 312 241 399 q 301 193 241 236 q 468 151 361 151 q 730 208 595 151 l 796 58 z "},"ƹ":{"ha":682,"x_min":33,"x_max":677,"o":"m 677 -241 q 549 -286 616 -273 q 406 -298 483 -298 q 219 -262 304 -298 q 83 -154 134 -227 q 33 22 33 -81 q 109 227 33 160 q 320 311 186 294 l 87 585 l 87 741 l 642 741 l 642 585 l 296 585 l 522 317 l 522 187 l 454 187 q 221 26 221 187 q 274 -101 221 -58 q 420 -144 327 -144 q 613 -99 521 -144 l 677 -241 z "},"ƺ":{"ha":633,"x_min":-22,"x_max":601,"o":"m 252 -144 q 488 -80 349 -144 l 549 -228 q 399 -278 477 -260 q 248 -296 320 -296 q 48 -236 118 -296 q -22 -68 -22 -176 q 47 90 -22 47 q 237 137 117 133 q 359 156 307 138 q 412 231 412 174 q 363 296 412 277 q 198 316 313 316 l 148 316 l 148 445 l 328 585 l 5 585 l 5 741 l 545 741 l 545 583 l 350 445 q 601 228 601 420 q 540 68 601 122 q 404 0 479 15 q 241 -18 330 -15 q 176 -30 198 -19 q 153 -76 153 -41 q 252 -144 153 -144 z "},"ƻ":{"ha":728,"x_min":27,"x_max":665,"o":"m 484 406 l 260 161 l 665 161 l 665 0 l 38 0 l 38 163 l 254 406 l 65 406 l 65 545 l 377 545 q 451 644 430 606 q 472 715 472 681 q 435 800 472 769 q 332 830 399 830 q 220 811 278 830 q 110 758 163 792 l 27 898 q 176 972 88 944 q 350 1000 264 1000 q 513 966 442 1000 q 621 870 583 932 q 659 727 659 808 q 645 637 659 681 q 598 545 631 594 l 665 545 l 665 406 l 484 406 z "},"Ƽ":{"ha":751,"x_min":12,"x_max":699,"o":"m 351 635 q 608 539 517 621 q 699 321 699 457 q 654 143 699 220 q 528 24 609 66 q 339 -18 446 -18 q 177 6 256 -18 q 47 69 98 30 l 115 217 q 231 169 172 186 q 339 152 290 152 q 464 196 419 152 q 509 317 509 240 q 317 476 509 463 l 118 490 l 118 821 l 12 821 l 12 982 l 224 982 l 652 982 l 652 821 l 302 821 l 302 639 l 351 635 z "},"ƽ":{"ha":647,"x_min":0,"x_max":606,"o":"m 298 465 q 606 228 606 445 q 524 47 606 111 q 292 -18 441 -18 q 144 -1 214 -18 q 26 47 75 16 l 90 191 q 191 157 138 170 q 292 145 243 145 q 418 229 418 145 q 384 292 418 271 q 275 319 350 313 l 91 331 l 91 582 l 0 582 l 0 741 l 184 741 l 571 741 l 571 582 l 270 582 l 270 467 l 298 465 z "},"ƾ":{"ha":682,"x_min":53,"x_max":629,"o":"m 335 -16 q 182 5 258 -16 q 53 61 107 26 l 117 210 q 335 145 221 145 q 453 212 453 145 q 430 259 453 241 q 358 298 407 277 q 275 342 308 321 q 218 404 241 363 q 194 505 194 444 l 194 582 l 81 582 l 81 741 l 195 741 l 195 941 l 378 941 l 378 741 l 581 741 l 581 582 l 378 582 l 378 510 q 401 462 378 480 q 473 420 425 444 q 553 378 521 399 q 607 320 585 357 q 629 229 629 283 q 552 48 629 113 q 335 -16 475 -16 z "},"ƿ":{"ha":772,"x_min":98,"x_max":719,"o":"m 484 758 q 658 681 597 758 q 719 464 719 604 q 690 307 719 376 q 591 172 661 239 q 396 19 522 104 l 282 -57 l 282 -281 l 98 -281 l 98 741 l 264 741 l 264 624 q 484 758 340 758 m 369 201 q 496 317 461 264 q 530 444 530 369 q 425 587 530 587 q 353 569 388 587 q 282 510 319 551 l 282 141 l 369 201 z "},"ǀ":{"ha":377,"x_min":109,"x_max":269,"o":"m 109 1044 l 269 1044 l 269 0 l 109 0 l 109 1044 z "},"ǁ":{"ha":606,"x_min":109,"x_max":498,"o":"m 109 1044 l 269 1044 l 269 0 l 109 0 l 109 1044 m 338 1044 l 498 1044 l 498 0 l 338 0 l 338 1044 z "},"ǂ":{"ha":480,"x_min":14,"x_max":467,"o":"m 316 602 l 316 444 l 467 444 l 467 288 l 316 288 l 316 0 l 156 0 l 156 288 l 14 288 l 14 444 l 156 444 l 156 602 l 14 602 l 14 758 l 156 758 l 156 1044 l 316 1044 l 316 758 l 467 758 l 467 602 l 316 602 z "},"ǃ":{"ha":494,"x_min":133,"x_max":361,"o":"m 144 1044 l 347 1044 l 320 283 l 174 283 l 144 1044 m 247 -18 q 163 12 194 -18 q 133 91 133 41 q 163 171 133 142 q 247 199 193 199 q 330 170 300 199 q 361 92 361 141 q 331 12 361 41 q 247 -18 301 -18 z "},"Ǆ":{"ha":1666,"x_min":106,"x_max":1618,"o":"m 1199 1059 l 1040 1240 l 1040 1256 l 1177 1256 l 1290 1153 l 1401 1256 l 1534 1256 l 1534 1240 l 1375 1059 l 1199 1059 m 431 982 q 762 859 648 982 q 875 492 875 735 q 762 123 875 247 q 431 0 648 0 l 106 0 l 106 982 l 431 982 m 1618 164 l 1618 0 l 958 0 l 958 165 l 1398 818 l 977 818 l 977 982 l 1610 982 l 1610 818 l 1169 164 l 1618 164 m 426 167 q 682 492 682 167 q 427 815 682 815 l 293 815 l 293 167 l 426 167 z "},"ǅ":{"ha":1567,"x_min":106,"x_max":1526,"o":"m 1154 829 l 996 1009 l 996 1025 l 1133 1025 l 1245 922 l 1356 1025 l 1489 1025 l 1489 1009 l 1331 829 l 1154 829 m 431 982 q 762 859 648 982 q 875 492 875 735 q 762 123 875 247 q 431 0 648 0 l 106 0 l 106 982 l 431 982 m 426 167 q 682 492 682 167 q 427 815 682 815 l 293 815 l 293 167 l 426 167 m 1526 156 l 1526 0 l 964 0 l 964 156 l 1312 585 l 978 585 l 978 741 l 1518 741 l 1518 585 l 1171 156 l 1526 156 z "},"ǆ":{"ha":1428,"x_min":53,"x_max":1388,"o":"m 690 1044 l 690 45 l 690 0 l 524 0 l 524 106 q 320 -18 454 -18 q 123 83 193 -18 q 53 369 53 184 q 123 656 53 555 q 321 758 194 758 q 426 738 378 758 q 506 680 473 718 l 506 1044 l 690 1044 m 380 153 q 445 168 415 153 q 506 216 475 183 l 506 532 q 446 577 480 562 q 374 593 412 593 q 241 376 241 593 q 380 153 241 153 m 1388 156 l 1388 0 l 826 0 l 826 156 l 1173 585 l 840 585 l 840 741 l 1379 741 l 1379 585 l 1032 156 l 1388 156 m 1326 1063 l 1326 1050 l 1188 834 l 1020 834 l 882 1050 l 882 1063 l 1010 1063 l 1105 944 l 1202 1063 l 1326 1063 z "},"Ǉ":{"ha":1339,"x_min":106,"x_max":1240,"o":"m 293 168 l 688 168 l 688 0 l 106 0 l 106 982 l 293 982 l 293 168 m 1240 982 l 1240 254 q 1168 54 1240 125 q 964 -18 1096 -18 q 846 -3 902 -18 q 749 38 791 11 l 815 187 q 955 151 892 151 q 1053 267 1053 151 l 1053 982 l 1240 982 z "},"ǈ":{"ha":1105,"x_min":106,"x_max":1023,"o":"m 688 168 l 688 0 l 106 0 l 106 982 l 293 982 l 293 168 l 688 168 m 627 -152 q 748 -97 707 -125 q 805 -31 789 -69 q 821 72 821 7 l 821 741 l 1005 741 l 1005 66 q 977 -104 1005 -38 q 880 -216 948 -171 q 688 -302 812 -262 l 627 -152 m 913 837 q 832 865 861 837 q 803 941 803 892 q 832 1019 803 991 q 913 1047 861 1047 q 994 1019 964 1047 q 1023 943 1023 991 q 994 865 1023 892 q 913 837 964 837 z "},"ǉ":{"ha":821,"x_min":95,"x_max":738,"o":"m 294 -9 q 144 39 194 -9 q 95 189 95 88 l 95 1044 l 279 1044 l 279 229 q 294 172 279 190 q 345 155 309 155 q 392 159 366 155 l 404 3 q 294 -9 351 -9 m 342 -152 q 463 -97 422 -125 q 520 -31 505 -69 q 536 72 536 7 l 536 741 l 720 741 l 720 66 q 692 -104 720 -38 q 595 -216 663 -171 q 403 -302 528 -262 l 342 -152 m 628 837 q 547 865 576 837 q 518 941 518 892 q 547 1019 518 991 q 628 1047 576 1047 q 709 1019 680 1047 q 738 943 738 991 q 709 865 738 892 q 628 837 680 837 z "},"Ǌ":{"ha":1535,"x_min":106,"x_max":1436,"o":"m 694 982 l 879 982 l 879 0 l 699 0 l 290 666 l 290 0 l 106 0 l 106 982 l 286 982 l 694 319 l 694 982 m 1436 982 l 1436 254 q 1364 54 1436 125 q 1161 -18 1293 -18 q 1043 -3 1099 -18 q 945 38 987 11 l 1012 187 q 1152 151 1089 151 q 1249 267 1249 151 l 1249 982 l 1436 982 z "},"ǋ":{"ha":1370,"x_min":106,"x_max":1287,"o":"m 879 982 l 879 0 l 699 0 l 290 666 l 290 0 l 106 0 l 106 982 l 286 982 l 694 319 l 694 982 l 879 982 m 891 -152 q 1013 -97 971 -125 q 1069 -31 1054 -69 q 1085 72 1085 7 l 1085 741 l 1270 741 l 1270 66 q 1241 -104 1270 -38 q 1145 -216 1213 -171 q 952 -302 1077 -262 l 891 -152 m 1177 837 q 1097 865 1126 837 q 1067 941 1067 892 q 1097 1019 1067 991 q 1177 1047 1126 1047 q 1258 1019 1229 1047 q 1287 943 1287 991 q 1258 865 1287 892 q 1177 837 1229 837 z "},"ǌ":{"ha":1183,"x_min":98,"x_max":1100,"o":"m 487 758 q 649 694 591 758 q 707 515 707 631 l 707 0 l 522 0 l 522 488 q 415 587 522 587 q 347 575 378 587 q 282 537 316 563 l 282 0 l 98 0 l 98 741 l 264 741 l 264 647 q 487 758 351 758 m 704 -152 q 825 -97 784 -125 q 882 -31 867 -69 q 898 72 898 7 l 898 741 l 1082 741 l 1082 66 q 1054 -104 1082 -38 q 958 -216 1025 -171 q 765 -302 890 -262 l 704 -152 m 990 837 q 909 865 939 837 q 880 941 880 892 q 909 1019 880 991 q 990 1047 939 1047 q 1071 1019 1042 1047 q 1100 943 1100 991 q 1071 865 1100 892 q 990 837 1042 837 z "},"Ǎ":{"ha":909,"x_min":20,"x_max":888,"o":"m 366 1059 l 208 1240 l 208 1256 l 345 1256 l 457 1153 l 568 1256 l 701 1256 l 701 1240 l 543 1059 l 366 1059 m 628 212 l 278 212 l 216 0 l 20 0 l 353 982 l 556 982 l 888 0 l 692 0 l 628 212 m 581 374 l 453 802 l 327 374 l 581 374 z "},"ǎ":{"ha":727,"x_min":35,"x_max":639,"o":"m 353 758 q 564 694 490 758 q 639 515 639 631 l 639 0 l 475 0 l 475 109 q 256 -15 408 -15 q 93 43 151 -15 q 35 208 35 102 q 135 402 35 340 q 457 467 235 464 l 457 494 q 319 595 457 595 q 146 557 235 595 l 100 699 q 353 758 227 758 m 304 140 q 457 212 392 140 l 457 345 q 269 314 327 343 q 210 222 210 285 q 304 140 210 140 m 571 1063 l 571 1050 l 433 834 l 264 834 l 126 1050 l 126 1063 l 255 1063 l 350 944 l 446 1063 l 571 1063 z "},"Ǐ":{"ha":404,"x_min":-45,"x_max":449,"o":"m 449 1256 l 449 1240 l 290 1059 l 114 1059 l -45 1240 l -45 1256 l 92 1256 l 205 1153 l 316 1256 l 449 1256 m 109 982 l 296 982 l 296 0 l 109 0 l 109 982 z "},"ǐ":{"ha":385,"x_min":-30,"x_max":415,"o":"m 100 741 l 285 741 l 285 0 l 100 0 l 100 741 m 415 1063 l 415 1050 l 277 834 l 109 834 l -30 1050 l -30 1063 l 99 1063 l 194 944 l 290 1063 l 415 1063 z "},"Ǒ":{"ha":971,"x_min":65,"x_max":906,"o":"m 397 1059 l 239 1240 l 239 1256 l 376 1256 l 488 1153 l 600 1256 l 732 1256 l 732 1240 l 574 1059 l 397 1059 m 486 1000 q 798 871 690 1000 q 906 491 906 743 q 798 111 906 239 q 486 -18 690 -18 q 173 111 281 -18 q 65 491 65 239 q 173 871 65 743 q 486 1000 281 1000 m 486 149 q 713 491 713 149 q 486 833 713 833 q 258 491 258 833 q 486 149 258 149 z "},"ǒ":{"ha":764,"x_min":53,"x_max":711,"o":"m 381 -18 q 138 80 222 -18 q 53 370 53 178 q 138 660 53 562 q 382 758 224 758 q 626 661 541 758 q 711 370 711 563 q 625 81 711 179 q 381 -18 540 -18 m 381 146 q 522 370 522 146 q 382 594 522 594 q 241 370 241 594 q 381 146 241 146 m 605 1063 l 605 1050 l 467 834 l 298 834 l 160 1050 l 160 1063 l 289 1063 l 384 944 l 480 1063 l 605 1063 z "},"Ǔ":{"ha":933,"x_min":99,"x_max":834,"o":"m 378 1059 l 220 1240 l 220 1256 l 357 1256 l 469 1153 l 581 1256 l 713 1256 l 713 1240 l 555 1059 l 378 1059 m 834 982 l 834 338 q 738 75 834 168 q 465 -18 642 -18 q 195 75 290 -18 q 99 338 99 168 l 99 982 l 286 982 l 286 351 q 465 149 286 149 q 647 351 647 149 l 647 982 l 834 982 z "},"ǔ":{"ha":787,"x_min":88,"x_max":689,"o":"m 689 741 l 689 0 l 522 0 l 522 104 q 304 -18 441 -18 q 144 46 201 -18 q 88 225 88 110 l 88 741 l 273 741 l 273 252 q 376 153 273 153 q 444 168 414 153 q 505 213 473 182 l 505 741 l 689 741 m 612 1063 l 612 1050 l 473 834 l 305 834 l 167 1050 l 167 1063 l 296 1063 l 391 944 l 487 1063 l 612 1063 z "},"Ǖ":{"ha":933,"x_min":99,"x_max":834,"o":"m 245 1370 l 690 1370 l 690 1246 l 245 1246 l 245 1370 m 338 1025 q 268 1050 293 1025 q 243 1119 243 1076 q 268 1188 243 1164 q 338 1213 293 1213 q 408 1188 382 1213 q 433 1120 433 1164 q 408 1050 433 1074 q 338 1025 382 1025 m 595 1025 q 526 1050 551 1025 q 500 1119 500 1076 q 526 1188 500 1164 q 595 1213 551 1213 q 665 1188 640 1213 q 690 1120 690 1164 q 665 1050 690 1074 q 595 1025 640 1025 m 465 -18 q 195 75 290 -18 q 99 338 99 168 l 99 982 l 286 982 l 286 351 q 465 149 286 149 q 647 351 647 149 l 647 982 l 834 982 l 834 338 q 738 75 834 168 q 465 -18 642 -18 z "},"ǖ":{"ha":787,"x_min":88,"x_max":689,"o":"m 613 1016 l 168 1016 l 168 1139 l 613 1139 l 613 1016 m 260 795 q 191 820 216 795 q 165 888 165 845 q 191 958 165 933 q 260 982 216 982 q 330 958 305 982 q 355 890 355 933 q 330 819 355 844 q 260 795 305 795 m 423 888 q 448 958 423 933 q 518 982 473 982 q 588 958 563 982 q 613 890 613 933 q 588 819 613 844 q 518 795 563 795 q 448 820 473 795 q 423 888 423 845 m 689 741 l 689 0 l 522 0 l 522 104 q 304 -18 441 -18 q 144 46 201 -18 q 88 225 88 110 l 88 741 l 273 741 l 273 252 q 376 153 273 153 q 444 168 414 153 q 505 213 473 182 l 505 741 l 689 741 z "},"Ǘ":{"ha":933,"x_min":99,"x_max":834,"o":"m 401 1246 l 500 1419 l 662 1419 l 662 1405 l 524 1233 l 401 1233 l 401 1246 m 338 1025 q 268 1050 293 1025 q 243 1119 243 1076 q 268 1188 243 1164 q 338 1213 293 1213 q 408 1188 382 1213 q 433 1120 433 1164 q 408 1050 433 1074 q 338 1025 382 1025 m 595 1025 q 526 1050 551 1025 q 500 1119 500 1076 q 526 1188 500 1164 q 595 1213 551 1213 q 665 1188 640 1213 q 690 1120 690 1164 q 665 1050 690 1074 q 595 1025 640 1025 m 465 -18 q 195 75 290 -18 q 99 338 99 168 l 99 982 l 286 982 l 286 351 q 465 149 286 149 q 647 351 647 149 l 647 982 l 834 982 l 834 338 q 738 75 834 168 q 465 -18 642 -18 z "},"ǘ":{"ha":787,"x_min":88,"x_max":689,"o":"m 446 1002 l 324 1002 l 324 1016 l 423 1188 l 585 1188 l 585 1175 l 446 1002 m 260 795 q 191 820 216 795 q 165 888 165 845 q 191 958 165 933 q 260 982 216 982 q 330 958 305 982 q 355 890 355 933 q 330 819 355 844 q 260 795 305 795 m 423 888 q 448 958 423 933 q 518 982 473 982 q 588 958 563 982 q 613 890 613 933 q 588 819 613 844 q 518 795 563 795 q 448 820 473 795 q 423 888 423 845 m 689 741 l 689 0 l 522 0 l 522 104 q 304 -18 441 -18 q 144 46 201 -18 q 88 225 88 110 l 88 741 l 273 741 l 273 252 q 376 153 273 153 q 444 168 414 153 q 505 213 473 182 l 505 741 l 689 741 z "},"Ǚ":{"ha":933,"x_min":99,"x_max":834,"o":"m 387 1241 l 243 1405 l 243 1419 l 363 1419 l 471 1326 l 576 1419 l 693 1419 l 693 1405 l 549 1241 l 387 1241 m 338 1025 q 268 1050 293 1025 q 243 1119 243 1076 q 268 1188 243 1164 q 338 1213 293 1213 q 408 1188 382 1213 q 433 1120 433 1164 q 408 1050 433 1074 q 338 1025 382 1025 m 500 1119 q 526 1188 500 1164 q 595 1213 551 1213 q 665 1188 640 1213 q 690 1120 690 1164 q 665 1050 690 1074 q 595 1025 640 1025 q 526 1050 551 1025 q 500 1119 500 1076 m 834 982 l 834 338 q 738 75 834 168 q 465 -18 642 -18 q 195 75 290 -18 q 99 338 99 168 l 99 982 l 286 982 l 286 351 q 465 149 286 149 q 647 351 647 149 l 647 982 l 834 982 z "},"ǚ":{"ha":787,"x_min":88,"x_max":689,"o":"m 307 993 l 165 1181 l 165 1195 l 294 1195 l 393 1090 l 491 1195 l 616 1195 l 616 1181 l 475 993 l 307 993 m 260 795 q 191 820 216 795 q 165 888 165 845 q 191 958 165 933 q 260 982 216 982 q 330 958 305 982 q 355 890 355 933 q 330 819 355 844 q 260 795 305 795 m 423 888 q 448 958 423 933 q 518 982 473 982 q 588 958 563 982 q 613 890 613 933 q 588 819 613 844 q 518 795 563 795 q 448 820 473 795 q 423 888 423 845 m 689 741 l 689 0 l 522 0 l 522 104 q 304 -18 441 -18 q 144 46 201 -18 q 88 225 88 110 l 88 741 l 273 741 l 273 252 q 376 153 273 153 q 444 168 414 153 q 505 213 473 182 l 505 741 l 689 741 z "},"Ǜ":{"ha":933,"x_min":99,"x_max":834,"o":"m 282 1405 l 282 1419 l 444 1419 l 534 1246 l 534 1233 l 412 1233 l 282 1405 m 338 1025 q 268 1050 293 1025 q 243 1119 243 1076 q 268 1188 243 1164 q 338 1213 293 1213 q 408 1188 382 1213 q 433 1120 433 1164 q 408 1050 433 1074 q 338 1025 382 1025 m 595 1025 q 526 1050 551 1025 q 500 1119 500 1076 q 526 1188 500 1164 q 595 1213 551 1213 q 665 1188 640 1213 q 690 1120 690 1164 q 665 1050 690 1074 q 595 1025 640 1025 m 465 -18 q 195 75 290 -18 q 99 338 99 168 l 99 982 l 286 982 l 286 351 q 465 149 286 149 q 647 351 647 149 l 647 982 l 834 982 l 834 338 q 738 75 834 168 q 465 -18 642 -18 z "},"ǜ":{"ha":787,"x_min":88,"x_max":689,"o":"m 335 1002 l 205 1175 l 205 1188 l 366 1188 l 457 1016 l 457 1002 l 335 1002 m 260 795 q 191 820 216 795 q 165 888 165 845 q 191 958 165 933 q 260 982 216 982 q 330 958 305 982 q 355 890 355 933 q 330 819 355 844 q 260 795 305 795 m 423 888 q 448 958 423 933 q 518 982 473 982 q 588 958 563 982 q 613 890 613 933 q 588 819 613 844 q 518 795 563 795 q 448 820 473 795 q 423 888 423 845 m 689 741 l 689 0 l 522 0 l 522 104 q 304 -18 441 -18 q 144 46 201 -18 q 88 225 88 110 l 88 741 l 273 741 l 273 252 q 376 153 273 153 q 444 168 414 153 q 505 213 473 182 l 505 741 l 689 741 z "},"ǝ":{"ha":741,"x_min":45,"x_max":690,"o":"m 339 757 q 599 656 507 757 q 690 370 690 555 q 605 84 690 186 q 362 -18 519 -18 q 127 76 210 -18 q 45 339 45 170 q 53 429 45 391 l 503 429 q 319 591 481 591 q 140 548 229 591 l 75 685 q 198 738 129 719 q 339 757 267 757 m 366 144 q 505 305 487 144 l 228 305 q 267 186 231 228 q 366 144 302 144 z "},"Ǟ":{"ha":909,"x_min":20,"x_max":888,"o":"m 677 1295 l 232 1295 l 232 1420 l 677 1420 l 677 1295 m 313 1047 q 241 1073 267 1047 q 216 1142 216 1099 q 241 1214 216 1188 q 313 1240 267 1240 q 386 1214 359 1240 q 412 1143 412 1188 q 387 1072 412 1097 q 313 1047 361 1047 m 594 1240 q 667 1214 640 1240 q 693 1143 693 1188 q 667 1072 693 1097 q 594 1047 642 1047 q 522 1073 548 1047 q 496 1142 496 1099 q 522 1214 496 1188 q 594 1240 548 1240 m 628 212 l 278 212 l 216 0 l 20 0 l 353 982 l 556 982 l 888 0 l 692 0 l 628 212 m 581 374 l 453 802 l 327 374 l 581 374 z "},"ǟ":{"ha":727,"x_min":35,"x_max":639,"o":"m 571 1082 l 126 1082 l 126 1207 l 571 1207 l 571 1082 m 216 833 q 144 859 170 833 q 118 928 118 884 q 144 1000 118 974 q 216 1025 170 1025 q 288 1000 262 1025 q 315 929 315 974 q 289 858 315 883 q 216 833 263 833 m 480 1025 q 553 1000 526 1025 q 579 929 579 974 q 553 858 579 883 q 480 833 528 833 q 408 859 434 833 q 382 928 382 884 q 408 1000 382 974 q 480 1025 434 1025 m 353 758 q 564 694 490 758 q 639 515 639 631 l 639 0 l 475 0 l 475 109 q 256 -15 408 -15 q 93 43 151 -15 q 35 208 35 102 q 135 402 35 340 q 457 467 235 464 l 457 494 q 319 595 457 595 q 146 557 235 595 l 100 699 q 353 758 227 758 m 304 140 q 457 212 392 140 l 457 345 q 269 314 327 343 q 210 222 210 285 q 304 140 210 140 z "},"Ǡ":{"ha":909,"x_min":20,"x_max":888,"o":"m 677 1295 l 232 1295 l 232 1420 l 677 1420 l 677 1295 m 345 1157 q 374 1235 345 1207 q 454 1263 403 1263 q 535 1235 506 1263 q 564 1158 564 1207 q 535 1080 564 1108 q 454 1053 506 1053 q 374 1080 403 1053 q 345 1157 345 1108 m 628 212 l 278 212 l 216 0 l 20 0 l 353 982 l 556 982 l 888 0 l 692 0 l 628 212 m 581 374 l 453 802 l 327 374 l 581 374 z "},"ǡ":{"ha":727,"x_min":35,"x_max":639,"o":"m 353 758 q 564 694 490 758 q 639 515 639 631 l 639 0 l 475 0 l 475 109 q 256 -15 408 -15 q 93 43 151 -15 q 35 208 35 102 q 135 402 35 340 q 457 467 235 464 l 457 494 q 319 595 457 595 q 146 557 235 595 l 100 699 q 353 758 227 758 m 304 140 q 457 212 392 140 l 457 345 q 269 314 327 343 q 210 222 210 285 q 304 140 210 140 m 349 837 q 268 865 297 837 q 239 941 239 892 q 268 1019 239 991 q 349 1047 297 1047 q 429 1019 400 1047 q 458 943 458 991 q 429 865 458 892 q 349 837 400 837 m 126 1219 l 571 1219 l 571 1095 l 126 1095 l 126 1219 z "},"Ǣ":{"ha":1264,"x_min":-8,"x_max":1223,"o":"m 909 1093 l 464 1093 l 464 1218 l 909 1218 l 909 1093 m 1223 167 l 1223 0 l 610 0 l 610 199 l 289 199 l 190 0 l -8 0 l 492 982 l 680 982 l 1204 982 l 1204 815 l 792 815 l 792 586 l 1090 586 l 1090 418 l 792 418 l 792 167 l 1223 167 m 610 362 l 610 844 l 370 362 l 610 362 z "},"ǣ":{"ha":1123,"x_min":35,"x_max":1078,"o":"m 1078 401 q 1070 312 1078 351 l 628 312 q 808 149 651 149 q 983 193 892 149 l 1048 56 q 926 3 994 22 q 788 -16 859 -16 q 623 19 693 -16 q 509 122 552 54 q 390 18 452 50 q 252 -15 328 -15 q 92 42 149 -15 q 35 203 35 99 q 134 394 35 334 q 449 457 232 454 l 449 494 q 315 595 449 595 q 146 557 232 595 l 100 699 q 349 758 227 758 q 555 671 491 758 q 646 736 591 713 q 765 758 700 758 q 996 665 914 758 q 1078 401 1078 571 m 761 597 q 627 435 644 597 l 895 435 q 859 555 894 513 q 761 597 823 597 m 300 140 q 463 228 392 140 q 448 335 449 279 q 267 305 323 334 q 210 217 210 277 q 300 140 210 140 m 355 987 l 800 987 l 800 863 l 355 863 l 355 987 z "},"Ǥ":{"ha":903,"x_min":65,"x_max":920,"o":"m 920 210 l 827 210 l 827 61 q 692 3 772 23 q 528 -18 613 -18 q 186 115 307 -18 q 65 491 65 248 q 186 867 65 734 q 528 1000 307 1000 q 690 979 614 1000 q 818 922 766 959 l 764 773 q 525 833 636 833 q 258 491 258 833 q 528 149 258 149 q 640 163 582 149 l 640 210 l 479 210 l 479 343 l 640 343 l 640 397 l 479 397 l 479 563 l 827 563 l 827 343 l 920 343 l 920 210 z "},"ǥ":{"ha":791,"x_min":26,"x_max":788,"o":"m 788 -79 l 680 -79 q 568 -241 652 -184 q 353 -298 484 -298 q 222 -284 286 -298 q 106 -243 157 -270 l 152 -113 q 332 -152 243 -152 q 488 -79 450 -152 l 26 -79 l 26 7 l 509 7 l 509 15 l 509 145 q 323 50 442 50 q 123 144 194 50 q 53 403 53 237 q 124 664 53 570 q 324 758 195 758 q 442 732 389 758 q 526 655 495 705 l 526 741 l 693 741 l 693 30 l 693 7 l 788 7 l 788 -79 m 382 221 q 448 236 418 221 q 509 283 477 251 l 509 532 q 449 577 483 562 q 377 593 415 593 q 275 546 309 593 q 241 410 241 499 q 277 269 241 317 q 382 221 312 221 z "},"Ǧ":{"ha":906,"x_min":65,"x_max":827,"o":"m 401 1059 l 243 1240 l 243 1256 l 380 1256 l 492 1153 l 604 1256 l 736 1256 l 736 1240 l 578 1059 l 401 1059 m 827 563 l 827 61 q 692 3 772 23 q 528 -18 613 -18 q 186 115 307 -18 q 65 491 65 248 q 186 867 65 734 q 528 1000 307 1000 q 690 979 614 1000 q 818 922 766 959 l 764 773 q 525 833 636 833 q 258 491 258 833 q 528 149 258 149 q 640 163 582 149 l 640 397 l 479 397 l 479 563 l 827 563 z "},"ǧ":{"ha":791,"x_min":53,"x_max":693,"o":"m 693 741 l 693 30 q 604 -213 693 -127 q 353 -298 515 -298 q 222 -284 286 -298 q 106 -243 157 -270 l 157 -98 q 332 -137 248 -137 q 509 30 509 -137 l 509 118 q 323 23 442 23 q 123 119 194 23 q 53 389 53 214 q 124 662 53 566 q 324 758 195 758 q 442 732 389 758 q 526 655 495 705 l 526 741 l 693 741 m 382 194 q 448 209 418 194 q 509 256 477 224 l 509 532 q 449 577 483 562 q 377 593 415 593 q 241 396 241 593 q 382 194 241 194 m 613 1063 l 613 1050 l 475 834 l 307 834 l 168 1050 l 168 1063 l 297 1063 l 392 944 l 488 1063 l 613 1063 z "},"Ǩ":{"ha":863,"x_min":106,"x_max":882,"o":"m 361 1059 l 202 1240 l 202 1256 l 339 1256 l 452 1153 l 563 1256 l 696 1256 l 696 1240 l 537 1059 l 361 1059 m 397 408 l 293 278 l 293 0 l 106 0 l 106 982 l 293 982 l 293 519 l 639 982 l 860 982 l 515 555 l 882 0 l 661 0 l 397 408 z "},"ǩ":{"ha":766,"x_min":-57,"x_max":758,"o":"m 102 1122 l -57 1302 l -57 1318 l 80 1318 l 193 1215 l 304 1318 l 437 1318 l 437 1302 l 278 1122 l 102 1122 m 359 292 l 282 199 l 282 0 l 98 0 l 98 1044 l 282 1044 l 282 434 l 528 741 l 738 741 l 476 430 l 758 0 l 548 0 l 359 292 z "},"Ǫ":{"ha":971,"x_min":65,"x_max":906,"o":"m 677 16 q 545 -138 545 -52 q 608 -193 545 -193 q 684 -175 644 -193 l 724 -270 q 650 -301 692 -290 q 564 -312 608 -312 q 439 -275 484 -312 q 395 -172 395 -239 q 472 -18 395 -87 q 170 115 274 -14 q 65 491 65 243 q 173 871 65 743 q 486 1000 281 1000 q 798 871 690 1000 q 906 491 906 743 q 849 193 906 309 q 677 16 792 76 m 258 491 q 486 149 258 149 q 713 491 713 149 q 486 833 713 833 q 258 491 258 833 z "},"ǫ":{"ha":764,"x_min":53,"x_max":711,"o":"m 548 23 q 411 -138 411 -47 q 473 -193 411 -193 q 549 -175 510 -193 l 590 -270 q 515 -301 557 -290 q 430 -312 473 -312 q 305 -275 350 -312 q 260 -172 260 -239 q 340 -16 260 -85 q 127 94 201 -4 q 53 370 53 191 q 138 660 53 562 q 382 758 224 758 q 626 661 541 758 q 711 370 711 563 q 548 23 711 106 m 241 370 q 381 146 241 146 q 522 370 522 146 q 382 594 522 594 q 241 370 241 594 z "},"Ǭ":{"ha":971,"x_min":65,"x_max":906,"o":"m 708 1093 l 263 1093 l 263 1218 l 708 1218 l 708 1093 m 677 16 q 545 -138 545 -52 q 608 -193 545 -193 q 684 -175 644 -193 l 724 -270 q 650 -301 692 -290 q 564 -312 608 -312 q 439 -275 484 -312 q 395 -172 395 -239 q 472 -18 395 -87 q 170 115 274 -14 q 65 491 65 243 q 173 871 65 743 q 486 1000 281 1000 q 798 871 690 1000 q 906 491 906 743 q 849 193 906 309 q 677 16 792 76 m 258 491 q 486 149 258 149 q 713 491 713 149 q 486 833 713 833 q 258 491 258 833 z "},"ǭ":{"ha":764,"x_min":53,"x_max":711,"o":"m 548 23 q 411 -138 411 -47 q 473 -193 411 -193 q 549 -175 510 -193 l 590 -270 q 515 -301 557 -290 q 430 -312 473 -312 q 305 -275 350 -312 q 260 -172 260 -239 q 340 -16 260 -85 q 127 94 201 -4 q 53 370 53 191 q 138 660 53 562 q 382 758 224 758 q 626 661 541 758 q 711 370 711 563 q 548 23 711 106 m 241 370 q 381 146 241 146 q 522 370 522 146 q 382 594 522 594 q 241 370 241 594 m 160 987 l 605 987 l 605 863 l 160 863 l 160 987 z "},"Ǯ":{"ha":810,"x_min":14,"x_max":761,"o":"m 282 1059 l 123 1240 l 123 1256 l 260 1256 l 373 1153 l 484 1256 l 617 1256 l 617 1240 l 458 1059 l 282 1059 m 452 595 q 761 309 761 560 q 705 127 761 201 q 554 18 648 54 q 346 -18 460 -18 q 14 58 153 -18 l 80 208 q 342 151 214 151 q 509 193 449 151 q 568 312 568 236 q 496 430 568 399 q 281 461 425 461 l 222 461 l 222 598 l 469 818 l 61 818 l 61 982 l 699 982 l 699 814 l 452 595 z "},"ǯ":{"ha":682,"x_min":5,"x_max":650,"o":"m 362 311 q 573 227 496 294 q 650 22 650 160 q 599 -154 650 -81 q 463 -262 548 -227 q 277 -298 378 -298 q 133 -286 199 -298 q 5 -241 66 -273 l 69 -99 q 262 -144 161 -144 q 408 -101 355 -144 q 461 26 461 -58 q 228 187 461 187 l 160 187 l 160 317 l 387 585 l 41 585 l 41 741 l 595 741 l 595 585 l 362 311 m 534 1063 l 534 1050 l 396 834 l 228 834 l 90 1050 l 90 1063 l 218 1063 l 313 944 l 410 1063 l 534 1063 z "},"ǰ":{"ha":385,"x_min":-94,"x_max":415,"o":"m -94 -152 q 28 -97 -14 -125 q 85 -31 69 -69 q 100 72 100 7 l 100 741 l 285 741 l 285 66 q 256 -104 285 -38 q 160 -216 228 -171 q -33 -302 92 -262 l -94 -152 m 415 1063 l 415 1050 l 277 834 l 109 834 l -30 1050 l -30 1063 l 99 1063 l 194 944 l 290 1063 l 415 1063 z "},"Ǳ":{"ha":1666,"x_min":106,"x_max":1618,"o":"m 431 982 q 762 859 648 982 q 875 492 875 735 q 762 123 875 247 q 431 0 648 0 l 106 0 l 106 982 l 431 982 m 426 167 q 682 492 682 167 q 427 815 682 815 l 293 815 l 293 167 l 426 167 m 1618 164 l 1618 0 l 958 0 l 958 165 l 1398 818 l 977 818 l 977 982 l 1610 982 l 1610 818 l 1169 164 l 1618 164 z "},"ǲ":{"ha":1567,"x_min":106,"x_max":1526,"o":"m 431 982 q 762 859 648 982 q 875 492 875 735 q 762 123 875 247 q 431 0 648 0 l 106 0 l 106 982 l 431 982 m 426 167 q 682 492 682 167 q 427 815 682 815 l 293 815 l 293 167 l 426 167 m 1526 156 l 1526 0 l 964 0 l 964 156 l 1312 585 l 978 585 l 978 741 l 1518 741 l 1518 585 l 1171 156 l 1526 156 z "},"ǳ":{"ha":1428,"x_min":53,"x_max":1388,"o":"m 690 1044 l 690 45 l 690 0 l 524 0 l 524 106 q 320 -18 454 -18 q 123 83 193 -18 q 53 369 53 184 q 123 656 53 555 q 321 758 194 758 q 426 738 378 758 q 506 680 473 718 l 506 1044 l 690 1044 m 380 153 q 445 168 415 153 q 506 216 475 183 l 506 532 q 446 577 480 562 q 374 593 412 593 q 241 376 241 593 q 380 153 241 153 m 1388 156 l 1388 0 l 826 0 l 826 156 l 1173 585 l 840 585 l 840 741 l 1379 741 l 1379 585 l 1032 156 l 1388 156 z "},"Ǵ":{"ha":906,"x_min":65,"x_max":827,"o":"m 528 1059 l 373 1059 l 373 1076 l 570 1256 l 774 1256 l 774 1240 l 528 1059 m 827 563 l 827 61 q 692 3 772 23 q 528 -18 613 -18 q 186 115 307 -18 q 65 491 65 248 q 186 867 65 734 q 528 1000 307 1000 q 690 979 614 1000 q 818 922 766 959 l 764 773 q 525 833 636 833 q 258 491 258 833 q 528 149 258 149 q 640 163 582 149 l 640 397 l 479 397 l 479 563 l 827 563 z "},"ǵ":{"ha":791,"x_min":53,"x_max":693,"o":"m 693 741 l 693 30 q 604 -213 693 -127 q 353 -298 515 -298 q 222 -284 286 -298 q 106 -243 157 -270 l 157 -98 q 332 -137 248 -137 q 509 30 509 -137 l 509 118 q 323 23 442 23 q 123 119 194 23 q 53 389 53 214 q 124 662 53 566 q 324 758 195 758 q 442 732 389 758 q 526 655 495 705 l 526 741 l 693 741 m 382 194 q 448 209 418 194 q 509 256 477 224 l 509 532 q 449 577 483 562 q 377 593 415 593 q 241 396 241 593 q 382 194 241 194 m 290 848 l 419 1063 l 610 1063 l 610 1050 l 431 834 l 290 834 l 290 848 z "},"Ƕ":{"ha":1371,"x_min":106,"x_max":1274,"o":"m 1222 741 q 1274 369 1274 547 q 1192 83 1274 184 q 962 -18 1111 -18 q 741 58 821 -18 q 662 269 662 133 l 662 415 l 293 415 l 293 0 l 106 0 l 106 982 l 293 982 l 293 582 l 662 582 l 662 982 l 849 982 l 849 286 q 962 146 849 146 q 1090 365 1090 146 q 1079 542 1090 465 q 1036 741 1067 618 l 1222 741 z "},"Ƿ":{"ha":785,"x_min":106,"x_max":772,"o":"m 511 1000 q 704 914 636 1000 q 772 673 772 829 q 742 506 772 578 q 642 366 712 434 q 445 212 572 297 l 293 110 l 293 -281 l 106 -281 l 106 982 l 285 982 l 285 892 q 511 1000 372 1000 m 418 397 q 545 517 510 463 q 579 656 579 572 q 454 829 579 829 q 373 810 412 829 q 293 751 334 792 l 293 312 l 418 397 z "},"Ǹ":{"ha":985,"x_min":106,"x_max":879,"o":"m 453 1059 l 218 1240 l 218 1256 l 423 1256 l 608 1076 l 608 1059 l 453 1059 m 879 982 l 879 0 l 699 0 l 290 666 l 290 0 l 106 0 l 106 982 l 286 982 l 694 319 l 694 982 l 879 982 z "},"ǹ":{"ha":798,"x_min":98,"x_max":707,"o":"m 487 758 q 649 694 591 758 q 707 515 707 631 l 707 0 l 522 0 l 522 488 q 415 587 522 587 q 347 575 378 587 q 282 537 316 563 l 282 0 l 98 0 l 98 741 l 264 741 l 264 647 q 487 758 351 758 m 199 1050 l 199 1063 l 391 1063 l 509 848 l 509 834 l 368 834 l 199 1050 z "},"Ǻ":{"ha":909,"x_min":20,"x_max":888,"o":"m 499 1233 l 345 1233 l 345 1249 l 528 1419 l 732 1419 l 732 1402 l 499 1233 m 628 212 l 278 212 l 216 0 l 20 0 l 327 903 q 269 1031 269 947 q 317 1151 269 1108 q 454 1194 366 1194 q 591 1151 543 1194 q 640 1031 640 1108 q 582 903 640 947 l 888 0 l 692 0 l 628 212 m 454 1104 q 382 1031 382 1104 q 454 958 382 958 q 526 1031 526 958 q 454 1104 526 1104 m 581 374 l 453 802 l 327 374 l 581 374 z "},"ǻ":{"ha":727,"x_min":35,"x_max":639,"o":"m 404 1187 l 282 1187 l 282 1200 l 381 1373 l 543 1373 l 543 1359 l 404 1187 m 349 814 q 212 857 260 814 q 164 977 164 899 q 212 1097 164 1054 q 349 1139 260 1139 q 485 1097 437 1139 q 533 977 533 1054 q 485 857 533 899 q 349 814 437 814 m 349 1051 q 277 977 277 1051 q 349 902 277 902 q 420 977 420 902 q 349 1051 420 1051 m 353 758 q 564 694 490 758 q 639 515 639 631 l 639 0 l 475 0 l 475 109 q 256 -15 408 -15 q 93 43 151 -15 q 35 208 35 102 q 135 402 35 340 q 457 467 235 464 l 457 494 q 319 595 457 595 q 146 557 235 595 l 100 699 q 353 758 227 758 m 304 140 q 457 212 392 140 l 457 345 q 269 314 327 343 q 210 222 210 285 q 304 140 210 140 z "},"Ǽ":{"ha":1264,"x_min":-8,"x_max":1223,"o":"m 724 1059 l 570 1059 l 570 1076 l 766 1256 l 971 1256 l 971 1240 l 724 1059 m 1223 167 l 1223 0 l 610 0 l 610 199 l 289 199 l 190 0 l -8 0 l 492 982 l 680 982 l 1204 982 l 1204 815 l 792 815 l 792 586 l 1090 586 l 1090 418 l 792 418 l 792 167 l 1223 167 m 610 362 l 610 844 l 370 362 l 610 362 z "},"ǽ":{"ha":1123,"x_min":35,"x_max":1078,"o":"m 1078 401 q 1070 312 1078 351 l 628 312 q 808 149 651 149 q 983 193 892 149 l 1048 56 q 926 3 994 22 q 788 -16 859 -16 q 623 19 693 -16 q 509 122 552 54 q 390 18 452 50 q 252 -15 328 -15 q 92 42 149 -15 q 35 203 35 99 q 134 394 35 334 q 449 457 232 454 l 449 494 q 315 595 449 595 q 146 557 232 595 l 100 699 q 349 758 227 758 q 555 671 491 758 q 646 736 591 713 q 765 758 700 758 q 996 665 914 758 q 1078 401 1078 571 m 761 597 q 627 435 644 597 l 895 435 q 859 555 894 513 q 761 597 823 597 m 300 140 q 463 228 392 140 q 448 335 449 279 q 267 305 323 334 q 210 217 210 277 q 300 140 210 140 m 477 848 l 606 1063 l 798 1063 l 798 1050 l 618 834 l 477 834 l 477 848 z "},"Ǿ":{"ha":971,"x_min":24,"x_max":947,"o":"m 524 1059 l 369 1059 l 369 1076 l 566 1256 l 770 1256 l 770 1240 l 524 1059 m 947 982 l 823 829 q 906 491 906 700 q 798 111 906 239 q 486 -18 690 -18 q 228 64 332 -18 l 171 -14 l 24 -14 l 24 0 l 148 153 q 65 491 65 282 q 173 871 65 743 q 486 1000 281 1000 q 743 918 639 1000 l 800 996 l 947 996 l 947 982 m 486 838 q 252 491 252 838 q 271 311 252 378 l 640 784 q 486 838 586 838 m 486 144 q 719 491 719 144 q 700 671 719 604 l 331 198 q 486 144 385 144 z "},"ǿ":{"ha":764,"x_min":12,"x_max":751,"o":"m 751 741 l 651 621 q 711 370 711 525 q 625 81 711 179 q 381 -18 540 -18 q 189 38 267 -18 l 152 -14 l 12 -14 l 12 0 l 113 119 q 53 370 53 216 q 138 660 53 562 q 382 758 224 758 q 575 703 496 758 l 612 754 l 751 754 l 751 741 m 382 602 q 233 370 233 602 q 240 277 233 321 l 475 571 q 382 602 442 602 m 381 138 q 530 370 530 138 q 524 464 530 419 l 289 170 q 381 138 321 138 m 285 848 l 414 1063 l 605 1063 l 605 1050 l 426 834 l 285 834 l 285 848 z "},"Ȁ":{"ha":909,"x_min":20,"x_max":888,"o":"m 304 1059 l 141 1240 l 141 1256 l 313 1256 l 429 1076 l 429 1059 l 304 1059 m 537 1059 l 376 1240 l 376 1256 l 545 1256 l 659 1076 l 659 1059 l 537 1059 m 628 212 l 278 212 l 216 0 l 20 0 l 353 982 l 556 982 l 888 0 l 692 0 l 628 212 m 581 374 l 453 802 l 327 374 l 581 374 z "},"ȁ":{"ha":727,"x_min":35,"x_max":639,"o":"m 353 758 q 564 694 490 758 q 639 515 639 631 l 639 0 l 475 0 l 475 109 q 256 -15 408 -15 q 93 43 151 -15 q 35 208 35 102 q 135 402 35 340 q 457 467 235 464 l 457 494 q 319 595 457 595 q 146 557 235 595 l 100 699 q 353 758 227 758 m 304 140 q 457 212 392 140 l 457 345 q 269 314 327 343 q 210 222 210 285 q 304 140 210 140 m 208 834 l 95 1050 l 95 1063 l 259 1063 l 324 848 l 324 834 l 208 834 m 418 834 l 308 1050 l 308 1063 l 472 1063 l 534 848 l 534 834 l 418 834 z "},"Ȃ":{"ha":909,"x_min":20,"x_max":888,"o":"m 453 1172 q 336 1073 350 1172 l 235 1073 q 296 1244 239 1185 q 454 1303 353 1303 q 613 1244 556 1303 q 674 1073 670 1185 l 568 1073 q 453 1172 555 1172 m 628 212 l 278 212 l 216 0 l 20 0 l 353 982 l 556 982 l 888 0 l 692 0 l 628 212 m 581 374 l 453 802 l 327 374 l 581 374 z "},"ȃ":{"ha":727,"x_min":35,"x_max":639,"o":"m 353 758 q 564 694 490 758 q 639 515 639 631 l 639 0 l 475 0 l 475 109 q 256 -15 408 -15 q 93 43 151 -15 q 35 208 35 102 q 135 402 35 340 q 457 467 235 464 l 457 494 q 319 595 457 595 q 146 557 235 595 l 100 699 q 353 758 227 758 m 304 140 q 457 212 392 140 l 457 345 q 269 314 327 343 q 210 222 210 285 q 304 140 210 140 m 349 1073 q 507 1014 450 1073 q 568 842 564 955 l 463 842 q 347 941 449 941 q 231 842 244 941 l 129 842 q 190 1014 133 955 q 349 1073 247 1073 z "},"Ȅ":{"ha":784,"x_min":100,"x_max":743,"o":"m 263 1059 l 100 1240 l 100 1256 l 273 1256 l 388 1076 l 388 1059 l 263 1059 m 496 1059 l 335 1240 l 335 1256 l 505 1256 l 618 1076 l 618 1059 l 496 1059 m 743 167 l 743 0 l 106 0 l 106 982 l 724 982 l 724 815 l 293 815 l 293 586 l 610 586 l 610 418 l 293 418 l 293 167 l 743 167 z "},"ȅ":{"ha":741,"x_min":50,"x_max":696,"o":"m 696 401 q 688 312 696 351 l 237 312 q 422 149 260 149 q 601 193 511 149 l 666 56 q 543 3 612 22 q 401 -16 473 -16 q 142 85 233 -16 q 50 370 50 186 q 136 657 50 556 q 378 758 222 758 q 613 665 530 758 q 696 401 696 571 m 374 597 q 236 435 254 597 l 513 435 q 474 555 510 513 q 374 597 438 597 m 236 834 l 123 1050 l 123 1063 l 288 1063 l 353 848 l 353 834 l 236 834 m 446 834 l 336 1050 l 336 1063 l 500 1063 l 563 848 l 563 834 l 446 834 z "},"Ȇ":{"ha":784,"x_min":106,"x_max":743,"o":"m 412 1172 q 296 1073 309 1172 l 194 1073 q 255 1244 198 1185 q 414 1303 312 1303 q 572 1244 515 1303 q 633 1073 629 1185 l 528 1073 q 412 1172 514 1172 m 743 167 l 743 0 l 106 0 l 106 982 l 724 982 l 724 815 l 293 815 l 293 586 l 610 586 l 610 418 l 293 418 l 293 167 l 743 167 z "},"ȇ":{"ha":741,"x_min":50,"x_max":696,"o":"m 696 401 q 688 312 696 351 l 237 312 q 422 149 260 149 q 601 193 511 149 l 666 56 q 543 3 612 22 q 401 -16 473 -16 q 142 85 233 -16 q 50 370 50 186 q 136 657 50 556 q 378 758 222 758 q 613 665 530 758 q 696 401 696 571 m 374 597 q 236 435 254 597 l 513 435 q 474 555 510 513 q 374 597 438 597 m 377 1073 q 536 1014 479 1073 q 597 842 593 955 l 491 842 q 376 941 477 941 q 259 842 273 941 l 157 842 q 218 1014 161 955 q 377 1073 275 1073 z "},"Ȉ":{"ha":404,"x_min":-111,"x_max":407,"o":"m 52 1059 l -111 1240 l -111 1256 l 61 1256 l 176 1076 l 176 1059 l 52 1059 m 285 1059 l 123 1240 l 123 1256 l 293 1256 l 407 1076 l 407 1059 l 285 1059 m 109 982 l 296 982 l 296 0 l 109 0 l 109 982 z "},"ȉ":{"ha":385,"x_min":-61,"x_max":378,"o":"m 100 741 l 285 741 l 285 0 l 100 0 l 100 741 m 52 834 l -61 1050 l -61 1063 l 103 1063 l 168 848 l 168 834 l 52 834 m 262 834 l 152 1050 l 152 1063 l 316 1063 l 378 848 l 378 834 l 262 834 z "},"Ȋ":{"ha":404,"x_min":-18,"x_max":422,"o":"m 202 1303 q 361 1244 304 1303 q 422 1073 418 1185 l 316 1073 q 201 1172 302 1172 q 84 1073 98 1172 l -18 1073 q 43 1244 -14 1185 q 202 1303 100 1303 m 109 982 l 296 982 l 296 0 l 109 0 l 109 982 z "},"ȋ":{"ha":385,"x_min":-27,"x_max":412,"o":"m 100 741 l 285 741 l 285 0 l 100 0 l 100 741 m 193 1073 q 351 1014 294 1073 q 412 842 408 955 l 307 842 q 191 941 293 941 q 75 842 88 941 l -27 842 q 34 1014 -23 955 q 193 1073 91 1073 z "},"Ȍ":{"ha":971,"x_min":65,"x_max":906,"o":"m 335 1059 l 172 1240 l 172 1256 l 345 1256 l 460 1076 l 460 1059 l 335 1059 m 568 1059 l 407 1240 l 407 1256 l 576 1256 l 690 1076 l 690 1059 l 568 1059 m 486 -18 q 173 111 281 -18 q 65 491 65 239 q 173 871 65 743 q 486 1000 281 1000 q 798 871 690 1000 q 906 491 906 743 q 798 111 906 239 q 486 -18 690 -18 m 486 149 q 713 491 713 149 q 486 833 713 833 q 258 491 258 833 q 486 149 258 149 z "},"ȍ":{"ha":764,"x_min":53,"x_max":711,"o":"m 381 -18 q 138 80 222 -18 q 53 370 53 178 q 138 660 53 562 q 382 758 224 758 q 626 661 541 758 q 711 370 711 563 q 625 81 711 179 q 381 -18 540 -18 m 381 146 q 522 370 522 146 q 382 594 522 594 q 241 370 241 594 q 381 146 241 146 m 241 834 l 129 1050 l 129 1063 l 293 1063 l 358 848 l 358 834 l 241 834 m 452 834 l 342 1050 l 342 1063 l 506 1063 l 568 848 l 568 834 l 452 834 z "},"Ȏ":{"ha":971,"x_min":65,"x_max":906,"o":"m 486 1303 q 644 1244 587 1303 q 705 1073 701 1185 l 600 1073 q 484 1172 586 1172 q 368 1073 381 1172 l 266 1073 q 327 1244 270 1185 q 486 1303 384 1303 m 486 -18 q 173 111 281 -18 q 65 491 65 239 q 173 871 65 743 q 486 1000 281 1000 q 798 871 690 1000 q 906 491 906 743 q 798 111 906 239 q 486 -18 690 -18 m 486 149 q 713 491 713 149 q 486 833 713 833 q 258 491 258 833 q 486 149 258 149 z "},"ȏ":{"ha":764,"x_min":53,"x_max":711,"o":"m 381 -18 q 138 80 222 -18 q 53 370 53 178 q 138 660 53 562 q 382 758 224 758 q 626 661 541 758 q 711 370 711 563 q 625 81 711 179 q 381 -18 540 -18 m 381 146 q 522 370 522 146 q 382 594 522 594 q 241 370 241 594 q 381 146 241 146 m 382 1073 q 541 1014 484 1073 q 602 842 598 955 l 496 842 q 381 941 483 941 q 264 842 278 941 l 163 842 q 224 1014 167 955 q 382 1073 281 1073 z "},"Ȑ":{"ha":861,"x_min":106,"x_max":845,"o":"m 281 1059 l 118 1240 l 118 1256 l 290 1256 l 406 1076 l 406 1059 l 281 1059 m 514 1059 l 353 1240 l 353 1256 l 522 1256 l 636 1076 l 636 1059 l 514 1059 m 411 339 l 293 339 l 293 0 l 106 0 l 106 982 l 293 982 l 458 982 q 699 899 614 982 q 784 662 784 815 q 737 473 784 549 q 602 363 690 397 l 845 0 l 621 0 l 411 339 m 293 499 l 458 499 q 591 658 591 499 q 453 818 591 818 l 293 818 l 293 499 z "},"ȑ":{"ha":551,"x_min":65,"x_max":537,"o":"m 456 755 q 537 738 502 755 l 502 566 q 415 578 461 578 q 337 562 369 578 q 282 511 305 547 l 282 0 l 98 0 l 98 741 l 264 741 l 264 624 q 456 755 327 755 m 178 834 l 65 1050 l 65 1063 l 229 1063 l 294 848 l 294 834 l 178 834 m 388 834 l 278 1050 l 278 1063 l 442 1063 l 505 848 l 505 834 l 388 834 z "},"Ȓ":{"ha":861,"x_min":106,"x_max":845,"o":"m 430 1172 q 313 1073 327 1172 l 212 1073 q 273 1244 216 1185 q 431 1303 330 1303 q 590 1244 533 1303 q 651 1073 647 1185 l 545 1073 q 430 1172 532 1172 m 411 339 l 293 339 l 293 0 l 106 0 l 106 982 l 293 982 l 458 982 q 699 899 614 982 q 784 662 784 815 q 737 473 784 549 q 602 363 690 397 l 845 0 l 621 0 l 411 339 m 293 499 l 458 499 q 591 658 591 499 q 453 818 591 818 l 293 818 l 293 499 z "},"ȓ":{"ha":551,"x_min":98,"x_max":538,"o":"m 456 755 q 537 738 502 755 l 502 566 q 415 578 461 578 q 337 562 369 578 q 282 511 305 547 l 282 0 l 98 0 l 98 741 l 264 741 l 264 624 q 456 755 327 755 m 319 1073 q 477 1014 420 1073 q 538 842 534 955 l 433 842 q 317 941 419 941 q 201 842 214 941 l 99 842 q 160 1014 103 955 q 319 1073 217 1073 z "},"Ȕ":{"ha":933,"x_min":99,"x_max":834,"o":"m 316 1059 l 153 1240 l 153 1256 l 326 1256 l 441 1076 l 441 1059 l 316 1059 m 549 1059 l 388 1240 l 388 1256 l 557 1256 l 671 1076 l 671 1059 l 549 1059 m 465 -18 q 195 75 290 -18 q 99 338 99 168 l 99 982 l 286 982 l 286 351 q 465 149 286 149 q 647 351 647 149 l 647 982 l 834 982 l 834 338 q 738 75 834 168 q 465 -18 642 -18 z "},"ȕ":{"ha":787,"x_min":88,"x_max":689,"o":"m 689 741 l 689 0 l 522 0 l 522 104 q 304 -18 441 -18 q 144 46 201 -18 q 88 225 88 110 l 88 741 l 273 741 l 273 252 q 376 153 273 153 q 444 168 414 153 q 505 213 473 182 l 505 741 l 689 741 m 248 834 l 136 1050 l 136 1063 l 300 1063 l 365 848 l 365 834 l 248 834 m 458 834 l 349 1050 l 349 1063 l 513 1063 l 575 848 l 575 834 l 458 834 z "},"Ȗ":{"ha":933,"x_min":99,"x_max":834,"o":"m 467 1303 q 625 1244 568 1303 q 686 1073 682 1185 l 581 1073 q 465 1172 567 1172 q 349 1073 362 1172 l 247 1073 q 308 1244 251 1185 q 467 1303 365 1303 m 465 -18 q 195 75 290 -18 q 99 338 99 168 l 99 982 l 286 982 l 286 351 q 465 149 286 149 q 647 351 647 149 l 647 982 l 834 982 l 834 338 q 738 75 834 168 q 465 -18 642 -18 z "},"ȗ":{"ha":787,"x_min":88,"x_max":689,"o":"m 689 741 l 689 0 l 522 0 l 522 104 q 304 -18 441 -18 q 144 46 201 -18 q 88 225 88 110 l 88 741 l 273 741 l 273 252 q 376 153 273 153 q 444 168 414 153 q 505 213 473 182 l 505 741 l 689 741 m 389 1073 q 548 1014 491 1073 q 609 842 605 955 l 503 842 q 388 941 490 941 q 271 842 285 941 l 170 842 q 231 1014 174 955 q 389 1073 288 1073 z "},"Ș":{"ha":765,"x_min":39,"x_max":712,"o":"m 363 -16 q 189 7 274 -16 q 39 73 104 31 l 99 220 q 363 145 228 145 q 533 262 533 145 q 502 342 533 311 q 401 392 471 373 l 290 423 q 108 524 164 458 q 52 699 52 589 q 138 920 52 841 q 381 998 225 998 q 536 981 456 998 q 688 930 616 963 l 627 784 q 378 837 484 837 q 231 730 231 837 q 262 650 231 681 q 362 601 293 620 l 473 570 q 656 469 601 534 q 712 293 712 404 q 621 64 712 145 q 363 -16 529 -16 m 235 -323 q 282 -249 269 -286 q 296 -157 296 -212 q 290 -90 296 -125 l 458 -90 q 464 -156 464 -125 q 425 -278 464 -221 q 301 -395 387 -335 l 235 -323 z "},"ș":{"ha":639,"x_min":27,"x_max":598,"o":"m 304 -16 q 154 3 227 -16 q 27 58 81 23 l 91 208 q 304 145 191 145 q 422 212 422 145 q 401 256 422 239 q 332 285 380 274 l 236 308 q 85 382 132 332 q 39 519 39 433 q 113 694 39 632 q 321 757 187 757 q 457 740 389 757 q 579 693 525 723 l 511 547 q 319 595 411 595 q 216 537 216 595 q 237 494 216 511 q 305 467 259 477 l 401 444 q 551 368 505 419 q 598 229 598 317 q 521 48 598 113 q 304 -16 444 -16 m 172 -323 q 220 -249 206 -286 q 233 -157 233 -212 q 228 -90 233 -125 l 396 -90 q 401 -156 401 -125 q 363 -278 401 -221 q 239 -395 324 -335 l 172 -323 z "},"Ț":{"ha":719,"x_min":22,"x_max":697,"o":"m 697 814 l 453 814 l 453 0 l 266 0 l 266 814 l 22 814 l 22 982 l 453 982 l 697 982 l 697 814 m 217 -323 q 264 -249 251 -286 q 278 -157 278 -212 q 273 -90 278 -125 l 441 -90 q 446 -156 446 -125 q 408 -278 446 -221 q 283 -395 369 -335 l 217 -323 z "},"ț":{"ha":548,"x_min":15,"x_max":524,"o":"m 387 -11 q 127 228 127 -11 l 127 582 l 15 582 l 15 741 l 129 741 l 129 941 l 312 941 l 312 741 l 514 741 l 514 582 l 312 582 l 312 262 q 337 179 312 205 q 416 153 362 153 q 495 164 454 153 l 524 8 q 387 -11 456 -11 m 176 -323 q 224 -249 210 -286 q 237 -157 237 -212 q 232 -90 237 -125 l 400 -90 q 406 -156 406 -125 q 367 -278 406 -221 q 243 -395 328 -335 l 176 -323 z "},"Ȝ":{"ha":723,"x_min":14,"x_max":685,"o":"m 507 529 q 685 264 685 448 q 618 71 685 152 q 409 -65 551 -9 q 41 -157 267 -121 l 14 -3 q 295 65 191 28 q 446 152 399 102 q 492 274 492 202 q 374 444 492 391 q 159 353 289 399 l 107 495 q 362 617 288 562 q 437 743 437 673 q 308 838 437 838 q 84 779 201 838 l 22 928 q 171 981 90 962 q 331 1000 252 1000 q 550 938 472 1000 q 628 764 628 876 q 507 529 628 629 z "},"ȝ":{"ha":671,"x_min":22,"x_max":628,"o":"m 467 324 q 589 224 549 283 q 628 84 628 165 q 490 -155 628 -65 q 47 -293 353 -244 l 22 -146 q 267 -87 176 -119 q 397 -9 357 -54 q 437 103 437 37 q 351 248 437 203 q 153 164 260 202 l 106 300 q 326 407 262 357 q 391 521 391 457 q 283 608 391 608 q 85 553 194 608 l 30 694 q 164 742 91 726 q 309 758 237 758 q 509 702 438 758 q 579 543 579 646 q 551 425 579 479 q 467 324 524 372 z "},"Ȟ":{"ha":955,"x_min":106,"x_max":849,"o":"m 389 1059 l 231 1240 l 231 1256 l 368 1256 l 480 1153 l 591 1256 l 724 1256 l 724 1240 l 566 1059 l 389 1059 m 849 982 l 849 0 l 662 0 l 662 415 l 293 415 l 293 0 l 106 0 l 106 982 l 293 982 l 293 582 l 662 582 l 662 982 l 849 982 z "},"ȟ":{"ha":800,"x_min":-57,"x_max":709,"o":"m 102 1122 l -57 1302 l -57 1318 l 80 1318 l 193 1215 l 304 1318 l 437 1318 l 437 1302 l 278 1122 l 102 1122 m 488 758 q 652 695 594 758 q 709 515 709 632 l 709 0 l 525 0 l 525 488 q 416 587 525 587 q 347 575 378 587 q 282 537 316 563 l 282 0 l 98 0 l 98 1044 l 282 1044 l 282 667 q 488 758 365 758 z "},"Ƞ":{"ha":929,"x_min":106,"x_max":830,"o":"m 551 1000 q 757 918 684 1000 q 830 686 830 836 l 830 -176 l 643 -176 l 643 689 q 488 827 643 827 q 388 809 434 827 q 293 751 342 791 l 293 0 l 106 0 l 106 982 l 285 982 l 285 876 q 551 1000 388 1000 z "},"ȡ":{"ha":788,"x_min":53,"x_max":906,"o":"m 736 19 q 861 -23 817 19 q 906 -141 906 -65 q 856 -265 906 -221 q 715 -309 806 -309 q 589 -277 637 -309 q 529 -187 541 -245 q 509 -202 522 -191 l 408 -279 l 345 -193 l 449 -113 q 509 -69 496 -77 l 509 81 q 320 -18 442 -18 q 123 83 193 -18 q 53 369 53 184 q 123 656 53 555 q 321 758 194 758 q 426 738 378 758 q 506 680 473 718 l 506 1044 l 690 1044 l 690 137 l 690 15 q 736 19 713 19 m 380 153 q 445 168 415 153 q 506 216 475 183 l 506 532 q 446 577 480 562 q 374 593 412 593 q 241 376 241 593 q 380 153 241 153 m 727 -191 q 770 -144 770 -191 q 722 -92 770 -92 q 680 -100 704 -92 l 680 -137 q 727 -191 680 -191 z "},"Ȣ":{"ha":884,"x_min":56,"x_max":829,"o":"m 655 509 q 784 411 739 476 q 829 259 829 346 q 728 55 829 127 q 442 -18 627 -18 q 157 55 258 -18 q 56 259 56 127 q 100 411 56 346 q 229 509 145 476 q 117 597 156 540 q 77 734 77 655 q 140 903 77 833 q 316 1000 202 972 l 376 852 q 269 712 269 806 q 441 590 269 590 q 616 712 616 590 q 507 852 616 804 l 568 1000 q 745 903 682 972 q 807 734 807 833 q 768 597 807 655 q 655 509 728 540 m 442 149 q 589 182 541 149 q 636 283 636 216 q 442 423 636 423 q 248 283 248 423 q 296 182 248 216 q 442 149 343 149 z "},"ȣ":{"ha":811,"x_min":53,"x_max":758,"o":"m 593 540 q 715 439 673 507 q 758 275 758 370 q 666 59 758 136 q 406 -18 574 -18 q 145 59 237 -18 q 53 275 53 136 q 96 439 53 370 q 218 540 138 507 q 113 631 151 571 q 76 772 76 690 q 126 941 76 868 q 267 1053 176 1015 l 349 922 q 264 772 264 882 q 406 621 264 621 q 547 772 547 621 q 463 922 547 882 l 544 1053 q 685 941 635 1015 q 735 772 735 868 q 698 631 735 690 q 593 540 661 571 m 406 146 q 570 298 570 146 q 406 456 570 456 q 241 298 241 456 q 406 146 241 146 z "},"Ȥ":{"ha":753,"x_min":45,"x_max":728,"o":"m 483 164 q 664 99 600 164 q 728 -85 728 34 q 723 -149 728 -121 l 557 -149 q 562 -84 562 -104 q 542 -20 562 -41 q 483 0 522 0 l 45 0 l 45 165 l 486 818 l 64 818 l 64 982 l 697 982 l 697 818 l 256 164 l 483 164 z "},"ȥ":{"ha":640,"x_min":38,"x_max":640,"o":"m 395 156 q 576 91 511 156 q 640 -94 640 26 q 635 -157 640 -129 l 469 -157 q 473 -92 473 -113 q 454 -22 473 -45 q 395 0 434 0 l 38 0 l 38 156 l 385 585 l 52 585 l 52 741 l 591 741 l 591 585 l 244 156 l 395 156 z "},"Ȧ":{"ha":909,"x_min":20,"x_max":888,"o":"m 454 1053 q 374 1080 403 1053 q 345 1157 345 1108 q 374 1235 345 1207 q 454 1263 403 1263 q 535 1235 506 1263 q 564 1158 564 1207 q 535 1080 564 1108 q 454 1053 506 1053 m 628 212 l 278 212 l 216 0 l 20 0 l 353 982 l 556 982 l 888 0 l 692 0 l 628 212 m 581 374 l 453 802 l 327 374 l 581 374 z "},"ȧ":{"ha":727,"x_min":35,"x_max":639,"o":"m 353 758 q 564 694 490 758 q 639 515 639 631 l 639 0 l 475 0 l 475 109 q 256 -15 408 -15 q 93 43 151 -15 q 35 208 35 102 q 135 402 35 340 q 457 467 235 464 l 457 494 q 319 595 457 595 q 146 557 235 595 l 100 699 q 353 758 227 758 m 304 140 q 457 212 392 140 l 457 345 q 269 314 327 343 q 210 222 210 285 q 304 140 210 140 m 349 837 q 268 865 297 837 q 239 941 239 892 q 268 1019 239 991 q 349 1047 297 1047 q 429 1019 400 1047 q 458 943 458 991 q 429 865 458 892 q 349 837 400 837 z "},"Ȩ":{"ha":784,"x_min":106,"x_max":743,"o":"m 477 0 l 426 -69 q 454 -66 445 -66 q 568 -97 528 -66 q 608 -183 608 -127 q 559 -288 608 -251 q 420 -326 510 -326 q 255 -290 328 -326 l 283 -206 q 400 -229 355 -229 q 467 -187 467 -229 q 408 -148 467 -148 q 355 -157 380 -148 l 315 -111 l 361 0 l 106 0 l 106 982 l 724 982 l 724 815 l 293 815 l 293 586 l 610 586 l 610 418 l 293 418 l 293 167 l 743 167 l 743 0 l 477 0 z "},"ȩ":{"ha":741,"x_min":50,"x_max":696,"o":"m 696 401 q 688 312 696 351 l 237 312 q 422 149 260 149 q 601 193 511 149 l 666 56 q 550 5 616 23 q 416 -16 484 -14 l 377 -69 q 406 -66 396 -66 q 519 -97 479 -66 q 559 -183 559 -127 q 510 -288 559 -251 q 372 -326 461 -326 q 206 -290 279 -326 l 235 -206 q 351 -229 307 -229 q 418 -187 418 -229 q 359 -148 418 -148 q 307 -157 331 -148 l 266 -111 l 309 -7 q 117 116 184 19 q 50 370 50 213 q 136 657 50 556 q 378 758 222 758 q 613 665 530 758 q 696 401 696 571 m 374 597 q 236 435 254 597 l 513 435 q 474 555 510 513 q 374 597 438 597 z "},"Ȫ":{"ha":971,"x_min":65,"x_max":906,"o":"m 263 1420 l 708 1420 l 708 1295 l 263 1295 l 263 1420 m 345 1047 q 273 1073 298 1047 q 247 1142 247 1099 q 273 1214 247 1188 q 345 1240 298 1240 q 417 1214 391 1240 q 444 1143 444 1188 q 418 1072 444 1097 q 345 1047 392 1047 m 625 1047 q 553 1073 579 1047 q 528 1142 528 1099 q 553 1214 528 1188 q 625 1240 579 1240 q 698 1214 671 1240 q 724 1143 724 1188 q 699 1072 724 1097 q 625 1047 673 1047 m 486 -18 q 173 111 281 -18 q 65 491 65 239 q 173 871 65 743 q 486 1000 281 1000 q 798 871 690 1000 q 906 491 906 743 q 798 111 906 239 q 486 -18 690 -18 m 486 149 q 713 491 713 149 q 486 833 713 833 q 258 491 258 833 q 486 149 258 149 z "},"ȫ":{"ha":764,"x_min":53,"x_max":711,"o":"m 160 1207 l 605 1207 l 605 1082 l 160 1082 l 160 1207 m 250 833 q 178 859 203 833 q 152 928 152 884 q 178 1000 152 974 q 250 1025 203 1025 q 322 1000 296 1025 q 349 929 349 974 q 323 858 349 883 q 250 833 297 833 m 514 833 q 442 859 468 833 q 416 928 416 884 q 442 1000 416 974 q 514 1025 468 1025 q 587 1000 560 1025 q 613 929 613 974 q 587 858 613 883 q 514 833 562 833 m 381 -18 q 138 80 222 -18 q 53 370 53 178 q 138 660 53 562 q 382 758 224 758 q 626 661 541 758 q 711 370 711 563 q 625 81 711 179 q 381 -18 540 -18 m 381 146 q 522 370 522 146 q 382 594 522 594 q 241 370 241 594 q 381 146 241 146 z "},"Ȭ":{"ha":971,"x_min":65,"x_max":906,"o":"m 263 1420 l 708 1420 l 708 1295 l 263 1295 l 263 1420 m 568 1078 q 509 1088 532 1078 q 461 1116 487 1099 q 430 1136 444 1130 q 399 1142 416 1142 q 342 1081 349 1142 l 256 1081 q 294 1204 256 1161 q 403 1248 332 1248 q 462 1238 439 1248 q 510 1210 484 1227 q 541 1190 528 1196 q 572 1184 555 1184 q 629 1245 624 1184 l 715 1245 q 677 1122 715 1165 q 568 1078 639 1078 m 486 -18 q 173 111 281 -18 q 65 491 65 239 q 173 871 65 743 q 486 1000 281 1000 q 798 871 690 1000 q 906 491 906 743 q 798 111 906 239 q 486 -18 690 -18 m 486 149 q 713 491 713 149 q 486 833 713 833 q 258 491 258 833 q 486 149 258 149 z "},"ȭ":{"ha":764,"x_min":53,"x_max":711,"o":"m 381 -18 q 138 80 222 -18 q 53 370 53 178 q 138 660 53 562 q 382 758 224 758 q 626 661 541 758 q 711 370 711 563 q 625 81 711 179 q 381 -18 540 -18 m 381 146 q 522 370 522 146 q 382 594 522 594 q 241 370 241 594 q 381 146 241 146 m 479 834 q 416 846 442 834 q 354 882 389 859 q 318 904 334 897 q 286 911 302 911 q 233 837 241 911 l 132 837 q 174 987 133 933 q 286 1040 214 1040 q 349 1028 323 1040 q 411 993 376 1016 q 447 970 431 978 q 479 963 463 963 q 532 1038 524 963 l 633 1038 q 591 888 632 941 q 479 834 551 834 m 160 1238 l 605 1238 l 605 1114 l 160 1114 l 160 1238 z "},"Ȯ":{"ha":971,"x_min":65,"x_max":906,"o":"m 486 1053 q 405 1080 434 1053 q 376 1157 376 1108 q 405 1235 376 1207 q 486 1263 434 1263 q 566 1235 537 1263 q 595 1158 595 1207 q 566 1080 595 1108 q 486 1053 537 1053 m 486 -18 q 173 111 281 -18 q 65 491 65 239 q 173 871 65 743 q 486 1000 281 1000 q 798 871 690 1000 q 906 491 906 743 q 798 111 906 239 q 486 -18 690 -18 m 486 149 q 713 491 713 149 q 486 833 713 833 q 258 491 258 833 q 486 149 258 149 z "},"ȯ":{"ha":764,"x_min":53,"x_max":711,"o":"m 381 -18 q 138 80 222 -18 q 53 370 53 178 q 138 660 53 562 q 382 758 224 758 q 626 661 541 758 q 711 370 711 563 q 625 81 711 179 q 381 -18 540 -18 m 381 146 q 522 370 522 146 q 382 594 522 594 q 241 370 241 594 q 381 146 241 146 m 382 837 q 302 865 331 837 q 273 941 273 892 q 302 1019 273 991 q 382 1047 331 1047 q 463 1019 434 1047 q 492 943 492 991 q 463 865 492 892 q 382 837 434 837 z "},"Ȱ":{"ha":971,"x_min":65,"x_max":906,"o":"m 263 1420 l 708 1420 l 708 1295 l 263 1295 l 263 1420 m 486 1053 q 405 1080 434 1053 q 376 1157 376 1108 q 405 1235 376 1207 q 486 1263 434 1263 q 566 1235 537 1263 q 595 1158 595 1207 q 566 1080 595 1108 q 486 1053 537 1053 m 486 -18 q 173 111 281 -18 q 65 491 65 239 q 173 871 65 743 q 486 1000 281 1000 q 798 871 690 1000 q 906 491 906 743 q 798 111 906 239 q 486 -18 690 -18 m 486 149 q 713 491 713 149 q 486 833 713 833 q 258 491 258 833 q 486 149 258 149 z "},"ȱ":{"ha":764,"x_min":53,"x_max":711,"o":"m 381 -18 q 138 80 222 -18 q 53 370 53 178 q 138 660 53 562 q 382 758 224 758 q 626 661 541 758 q 711 370 711 563 q 625 81 711 179 q 381 -18 540 -18 m 381 146 q 522 370 522 146 q 382 594 522 594 q 241 370 241 594 q 381 146 241 146 m 382 837 q 302 865 331 837 q 273 941 273 892 q 302 1019 273 991 q 382 1047 331 1047 q 463 1019 434 1047 q 492 943 492 991 q 463 865 492 892 q 382 837 434 837 m 160 1219 l 605 1219 l 605 1095 l 160 1095 l 160 1219 z "},"Ȳ":{"ha":800,"x_min":15,"x_max":785,"o":"m 621 1093 l 176 1093 l 176 1218 l 621 1218 l 621 1093 m 785 982 l 492 324 l 492 0 l 305 0 l 305 324 l 15 982 l 214 982 l 401 528 l 587 982 l 785 982 z "},"ȳ":{"ha":709,"x_min":19,"x_max":690,"o":"m 690 741 l 467 42 q 336 -168 426 -87 q 85 -298 245 -248 l 23 -144 q 171 -77 117 -111 q 259 1 225 -43 l 19 741 l 205 741 l 357 195 l 506 741 l 690 741 m 134 987 l 579 987 l 579 863 l 134 863 l 134 987 z "},"ȴ":{"ha":374,"x_min":-66,"x_max":495,"o":"m 326 20 q 450 -22 406 20 q 495 -140 495 -64 q 445 -264 495 -220 q 304 -308 395 -308 q 178 -276 227 -308 q 118 -186 130 -244 q 98 -201 111 -190 l -3 -278 l -66 -191 l 38 -111 l 95 -69 l 95 1044 l 279 1044 l 279 16 q 326 20 302 20 m 316 -190 q 359 -142 359 -190 q 311 -91 359 -91 q 269 -99 293 -91 l 269 -136 q 316 -190 269 -190 z "},"ȵ":{"ha":916,"x_min":98,"x_max":920,"o":"m 750 297 q 875 255 830 297 q 920 137 920 213 q 869 13 920 57 q 728 -31 819 -31 q 603 1 651 -31 q 543 91 555 33 q 522 76 536 87 l 422 -1 l 358 85 l 463 165 q 522 209 510 201 l 522 415 l 522 488 q 415 587 522 587 q 347 575 378 587 q 282 537 316 563 l 282 0 l 98 0 l 98 741 l 264 741 l 264 647 q 487 758 351 758 q 649 694 591 758 q 707 515 707 631 l 707 294 q 750 297 736 297 m 741 87 q 784 134 784 87 q 735 186 784 186 q 693 178 718 186 l 693 141 q 741 87 693 87 z "},"ȶ":{"ha":560,"x_min":-26,"x_max":536,"o":"m 366 297 q 491 255 446 297 q 536 137 536 213 q 486 13 536 57 q 345 -31 435 -31 q 219 1 267 -31 q 159 91 171 33 q 138 76 152 87 l 38 -1 l -26 85 l 79 165 l 136 208 l 136 582 l 23 582 l 23 741 l 137 741 l 137 941 l 320 941 l 320 741 l 522 741 l 522 582 l 320 582 l 320 293 q 366 297 342 297 m 357 87 q 400 134 400 87 q 351 186 400 186 q 309 178 334 186 l 309 141 q 357 87 309 87 z "},"ȷ":{"ha":385,"x_min":-94,"x_max":285,"o":"m -94 -152 q 28 -97 -14 -125 q 85 -31 69 -69 q 100 72 100 7 l 100 741 l 285 741 l 285 66 q 256 -104 285 -38 q 160 -216 228 -171 q -33 -302 92 -262 l -94 -152 z "},"ȸ":{"ha":1196,"x_min":53,"x_max":1143,"o":"m 876 758 q 1074 657 1004 758 q 1143 372 1143 556 q 1073 84 1143 186 q 875 -18 1002 -18 q 757 9 810 -18 q 673 85 704 35 l 673 0 l 524 0 l 524 106 q 320 -18 454 -18 q 123 83 193 -18 q 53 369 53 184 q 123 656 53 555 q 321 758 194 758 q 426 738 378 758 q 506 680 473 718 l 506 1044 l 690 1044 l 690 663 q 876 758 757 758 m 380 153 q 445 168 415 153 q 506 216 475 183 l 506 532 q 446 577 480 562 q 374 593 412 593 q 241 376 241 593 q 380 153 241 153 m 822 148 q 955 365 955 148 q 817 587 955 587 q 751 572 781 587 q 690 525 722 557 l 690 209 q 750 163 716 179 q 822 148 784 148 z "},"ȹ":{"ha":1196,"x_min":53,"x_max":1143,"o":"m 876 758 q 1074 657 1004 758 q 1143 372 1143 556 q 1073 84 1143 186 q 875 -18 1002 -18 q 770 3 818 -18 q 690 61 723 23 l 690 -281 l 506 -281 l 506 77 q 320 -18 439 -18 q 123 83 193 -18 q 53 369 53 184 q 123 656 53 555 q 321 758 194 758 q 439 732 387 758 q 524 655 492 705 l 524 741 l 673 741 l 673 635 q 876 758 742 758 m 380 153 q 445 168 415 153 q 506 216 475 183 l 506 532 q 446 577 480 562 q 374 593 412 593 q 241 376 241 593 q 380 153 241 153 m 822 148 q 955 365 955 148 q 817 587 955 587 q 751 572 781 587 q 690 525 722 557 l 690 209 q 750 163 716 179 q 822 148 784 148 z "},"Ⱥ":{"ha":909,"x_min":20,"x_max":888,"o":"m 628 212 l 457 212 l 338 -145 l 222 -145 l 342 212 l 278 212 l 216 0 l 20 0 l 353 982 l 556 982 l 579 916 l 640 1099 l 755 1099 l 636 745 l 888 0 l 692 0 l 628 212 m 397 374 l 494 663 l 453 802 l 327 374 l 397 374 m 581 374 l 548 481 l 513 374 l 581 374 z "},"Ȼ":{"ha":818,"x_min":52,"x_max":783,"o":"m 783 61 q 665 4 738 24 q 506 -16 591 -16 q 316 15 401 -16 l 259 -145 l 144 -145 l 220 68 q 95 231 138 129 q 52 471 52 334 q 106 753 52 633 q 261 936 160 872 q 499 1000 362 1000 q 552 997 517 1000 l 589 1099 l 704 1099 l 661 975 q 774 921 730 954 l 711 779 q 604 818 655 807 l 377 184 q 514 155 433 155 q 719 202 639 155 l 783 61 m 244 484 q 292 267 244 347 l 494 831 q 309 739 374 830 q 244 484 244 648 z "},"ȼ":{"ha":655,"x_min":47,"x_max":629,"o":"m 629 52 q 404 -16 541 -16 q 279 0 336 -16 l 229 -149 l 119 -149 l 186 43 q 83 171 118 91 q 47 359 47 251 q 91 569 47 479 q 214 709 134 659 q 397 758 293 758 q 429 757 418 758 l 472 886 l 582 886 l 532 736 q 621 692 585 719 l 556 549 q 477 578 513 568 l 336 165 q 412 152 368 152 q 567 193 490 152 l 629 52 m 236 369 q 255 250 236 298 l 372 590 q 271 524 307 581 q 236 369 236 467 z "},"Ƚ":{"ha":722,"x_min":20,"x_max":689,"o":"m 689 168 l 689 0 l 107 0 l 107 426 l 20 426 l 20 568 l 107 568 l 107 982 l 294 982 l 294 568 l 507 568 l 507 426 l 294 426 l 294 168 l 689 168 z "},"Ⱦ":{"ha":719,"x_min":22,"x_max":697,"o":"m 644 982 l 697 982 l 697 814 l 568 814 l 453 556 l 453 0 l 266 0 l 266 141 l 137 -145 l 22 -145 l 266 392 l 266 814 l 22 814 l 22 982 l 453 982 l 532 982 l 582 1099 l 697 1099 l 644 982 m 487 814 l 453 814 l 453 742 l 487 814 z "},"ȿ":{"ha":639,"x_min":27,"x_max":598,"o":"m 490 -149 q 562 -138 521 -149 l 593 -281 q 464 -308 536 -308 q 351 -282 399 -308 q 269 -218 302 -256 q 191 -115 236 -180 q 120 -19 151 -56 q 50 45 90 18 l 27 58 l 91 208 q 304 145 191 145 q 422 212 422 145 q 401 256 422 239 q 332 285 380 274 l 236 308 q 85 382 132 332 q 39 519 39 433 q 113 694 39 632 q 321 757 187 757 q 457 740 389 757 q 579 693 525 723 l 511 547 q 319 595 411 595 q 216 537 216 595 q 237 494 216 511 q 305 467 259 477 l 401 444 q 551 368 505 419 q 598 229 598 317 q 521 48 598 113 q 304 -16 444 -16 l 290 -16 q 394 -117 353 -85 q 490 -149 435 -149 z "},"ɀ":{"ha":640,"x_min":38,"x_max":681,"o":"m 681 -281 q 552 -308 624 -308 q 446 -285 490 -308 q 372 -229 401 -262 q 307 -142 343 -197 q 251 -66 274 -94 q 194 -19 228 -38 q 114 0 160 0 l 38 0 l 38 156 l 385 585 l 52 585 l 52 741 l 591 741 l 591 585 l 236 145 q 338 87 300 127 q 416 -20 376 47 q 463 -90 444 -65 q 510 -132 481 -115 q 578 -149 538 -149 q 650 -138 609 -149 l 681 -281 z "},"Ɂ":{"ha":765,"x_min":49,"x_max":703,"o":"m 703 704 q 635 479 703 578 q 444 324 568 381 l 444 0 l 256 0 l 256 427 q 503 693 503 509 q 370 825 503 825 q 262 804 317 825 q 142 736 208 783 l 49 869 q 203 966 114 932 q 389 1000 292 1000 q 621 922 538 1000 q 703 704 703 845 z "},"ɂ":{"ha":671,"x_min":43,"x_max":614,"o":"m 614 575 q 559 406 614 480 q 397 283 503 331 l 397 0 l 216 0 l 216 378 q 420 564 420 449 q 397 614 420 598 q 323 631 373 631 q 234 616 279 631 q 133 567 189 601 l 43 693 q 178 772 100 745 q 343 800 256 800 q 544 742 473 800 q 614 575 614 684 z "},"Ƀ":{"ha":879,"x_min":20,"x_max":827,"o":"m 646 518 q 827 296 827 464 q 743 77 827 155 q 505 0 658 0 l 208 0 l 106 0 l 106 227 l 20 227 l 20 361 l 106 361 l 106 982 l 292 982 l 460 982 q 690 909 609 982 q 772 701 772 836 q 646 518 772 566 m 292 817 l 292 582 l 460 582 q 582 697 582 582 q 450 817 582 817 l 292 817 m 514 165 q 636 292 636 165 q 505 422 636 422 l 292 422 l 292 361 l 448 361 l 448 227 l 292 227 l 292 165 l 514 165 z "},"Ʉ":{"ha":966,"x_min":4,"x_max":962,"o":"m 962 434 l 850 434 l 850 338 q 754 75 850 168 q 481 -18 658 -18 q 211 75 307 -18 q 115 338 115 168 l 115 434 l 4 434 l 4 576 l 115 576 l 115 982 l 302 982 l 302 576 l 663 576 l 663 982 l 850 982 l 850 576 l 962 576 l 962 434 m 663 434 l 302 434 l 302 351 q 481 149 302 149 q 663 351 663 149 l 663 434 z "},"Ʌ":{"ha":860,"x_min":26,"x_max":834,"o":"m 637 0 l 429 785 l 221 0 l 26 0 l 328 982 l 532 982 l 834 0 l 637 0 z "},"Ɇ":{"ha":784,"x_min":106,"x_max":743,"o":"m 743 0 l 365 0 l 327 -145 l 212 -145 l 250 0 l 106 0 l 106 982 l 505 982 l 534 1099 l 650 1099 l 620 982 l 724 982 l 724 815 l 576 815 l 517 586 l 610 586 l 610 418 l 473 418 l 408 167 l 743 167 l 743 0 m 461 815 l 293 815 l 293 586 l 401 586 l 461 815 m 358 418 l 293 418 l 293 168 l 358 418 z "},"ɇ":{"ha":741,"x_min":50,"x_max":696,"o":"m 412 312 l 359 156 q 422 149 391 149 q 601 193 511 149 l 666 56 q 543 3 612 22 q 401 -16 473 -16 q 304 -5 351 -16 l 255 -149 l 145 -149 l 206 31 q 90 163 130 77 q 50 370 50 250 q 136 657 50 556 q 378 758 222 758 q 452 751 414 758 l 498 886 l 608 886 l 549 716 q 659 595 621 674 q 696 401 696 515 q 688 312 696 351 l 412 312 m 374 597 q 236 435 254 597 l 345 435 l 399 595 q 374 597 391 597 m 513 435 q 488 534 511 495 l 454 435 l 513 435 m 302 312 l 237 312 q 270 217 245 256 l 302 312 z "},"Ɉ":{"ha":662,"x_min":0,"x_max":658,"o":"m 658 434 l 541 434 l 541 254 q 463 54 541 125 q 244 -18 385 -18 q 107 2 171 -18 q 0 58 43 22 l 66 201 q 235 151 159 151 q 354 267 354 151 l 354 434 l 197 434 l 197 576 l 354 576 l 354 982 l 541 982 l 541 576 l 658 576 l 658 434 z "},"ɉ":{"ha":429,"x_min":-72,"x_max":418,"o":"m 418 315 l 307 315 l 307 66 q 278 -104 307 -38 q 182 -216 250 -171 q -11 -302 114 -262 l -72 -152 q 50 -97 8 -125 q 106 -31 91 -69 q 122 72 122 7 l 122 315 l 11 315 l 11 444 l 122 444 l 122 741 l 307 741 l 307 444 l 418 444 l 418 315 m 214 837 q 134 865 163 837 q 104 941 104 892 q 134 1019 104 991 q 214 1047 163 1047 q 295 1019 266 1047 q 324 943 324 991 q 295 865 324 892 q 214 837 266 837 z "},"Ɋ":{"ha":925,"x_min":65,"x_max":968,"o":"m 968 -275 q 857 -296 918 -296 q 632 -79 632 -296 l 632 104 q 389 -18 548 -18 q 150 115 235 -18 q 65 490 65 248 q 150 866 65 732 q 391 1000 235 1000 q 528 971 464 1000 q 632 892 591 943 l 632 982 l 819 982 l 819 0 l 819 -65 q 831 -114 819 -99 q 869 -129 844 -129 q 941 -119 905 -129 l 968 -275 m 449 153 q 546 174 503 153 q 632 243 589 195 l 632 746 q 545 810 597 785 q 444 834 494 834 q 258 496 258 834 q 449 153 258 153 z "},"ɋ":{"ha":785,"x_min":53,"x_max":840,"o":"m 840 -275 q 727 -296 789 -296 q 503 -85 503 -296 l 503 77 q 317 -18 437 -18 q 122 83 191 -18 q 53 369 53 184 q 122 656 53 555 q 319 758 191 758 q 503 677 437 758 l 503 741 l 688 741 l 688 0 l 688 -72 q 700 -121 688 -106 q 739 -136 712 -136 q 814 -126 776 -136 l 840 -275 m 377 153 q 442 168 412 153 q 503 216 472 183 l 503 532 q 444 577 477 562 q 372 593 410 593 q 241 376 241 593 q 377 153 241 153 z "},"Ɍ":{"ha":875,"x_min":11,"x_max":859,"o":"m 425 339 l 307 339 l 307 0 l 119 0 l 119 345 l 11 345 l 11 492 l 119 492 l 119 982 l 307 982 l 472 982 q 713 899 628 982 q 798 662 798 815 q 751 473 798 549 q 616 363 704 397 l 859 0 l 635 0 l 425 339 m 307 499 l 472 499 q 605 658 605 499 q 467 818 605 818 l 307 818 l 307 499 z "},"ɍ":{"ha":581,"x_min":16,"x_max":567,"o":"m 445 578 q 367 562 399 578 q 312 511 335 547 l 312 444 l 518 444 l 518 315 l 312 315 l 312 0 l 127 0 l 127 315 l 16 315 l 16 444 l 127 444 l 127 741 l 294 741 l 294 624 q 486 755 357 755 q 567 738 532 755 l 532 566 q 445 578 491 578 z "},"Ɏ":{"ha":800,"x_min":15,"x_max":785,"o":"m 716 826 l 784 826 l 784 688 l 654 688 l 492 324 l 492 0 l 305 0 l 305 324 l 145 688 l 15 688 l 15 826 l 84 826 l 15 982 l 214 982 l 278 826 l 524 826 l 587 982 l 785 982 l 716 826 m 468 688 l 336 688 l 401 528 l 468 688 z "},"ɏ":{"ha":735,"x_min":19,"x_max":716,"o":"m 716 415 l 598 415 l 479 42 q 348 -168 438 -87 q 98 -298 258 -248 l 35 -144 q 183 -77 129 -111 q 271 1 237 -43 l 137 415 l 19 415 l 19 541 l 96 541 l 31 741 l 217 741 l 273 541 l 464 541 l 518 741 l 703 741 l 639 541 l 716 541 l 716 415 m 429 415 l 308 415 l 369 195 l 429 415 z "},"ɐ":{"ha":727,"x_min":88,"x_max":692,"o":"m 692 533 q 592 338 692 400 q 270 274 492 277 l 270 247 q 408 145 270 145 q 581 183 492 145 l 627 42 q 374 -18 500 -18 q 163 46 237 -18 q 88 225 88 110 l 88 741 l 252 741 l 252 632 q 471 755 319 755 q 634 697 576 755 q 692 533 692 639 m 423 601 q 270 529 335 601 l 270 396 q 458 427 400 397 q 517 518 517 456 q 423 601 517 601 z "},"ɑ":{"ha":785,"x_min":53,"x_max":688,"o":"m 688 741 l 688 0 l 521 0 l 521 106 q 317 -18 452 -18 q 122 83 191 -18 q 53 369 53 184 q 122 656 53 555 q 319 758 191 758 q 503 677 437 758 l 503 741 l 688 741 m 377 153 q 442 168 412 153 q 503 216 472 183 l 503 532 q 444 577 477 562 q 372 593 410 593 q 241 376 241 593 q 377 153 241 153 z "},"ɒ":{"ha":785,"x_min":98,"x_max":732,"o":"m 468 758 q 663 657 594 758 q 732 372 732 556 q 663 84 732 186 q 467 -18 594 -18 q 282 64 349 -18 l 282 0 l 98 0 l 98 741 l 264 741 l 264 635 q 468 758 334 758 m 414 148 q 544 365 544 148 q 408 587 544 587 q 343 572 373 587 q 282 525 313 557 l 282 209 q 342 163 308 179 q 414 148 376 148 z "},"ɓ":{"ha":788,"x_min":98,"x_max":735,"o":"m 468 758 q 665 657 595 758 q 735 372 735 556 q 665 84 735 186 q 467 -18 594 -18 q 349 9 401 -18 q 264 85 296 35 l 264 0 l 98 0 l 98 547 l 98 741 l 98 872 q 308 1067 98 1067 q 420 1047 370 1067 l 395 901 q 331 909 351 909 q 294 897 305 909 q 282 859 282 886 l 282 663 q 468 758 349 758 m 414 148 q 547 365 547 148 q 408 587 547 587 q 343 572 373 587 q 282 525 313 557 l 282 209 q 342 163 308 179 q 414 148 376 148 z "},"ɔ":{"ha":655,"x_min":26,"x_max":608,"o":"m 251 757 q 514 659 420 757 q 608 381 608 560 q 564 172 608 262 q 441 32 521 81 q 258 -18 362 -18 q 136 0 195 -18 q 34 49 77 18 l 99 191 q 260 149 195 149 q 378 208 336 149 q 419 372 419 266 q 243 589 419 589 q 88 548 165 589 l 26 689 q 251 757 114 757 z "},"ɕ":{"ha":689,"x_min":47,"x_max":677,"o":"m 490 433 q 628 379 579 433 q 677 229 677 326 q 604 48 677 113 q 399 -16 532 -16 q 231 22 307 -16 l 144 -111 l 47 -47 l 138 92 q 71 210 94 141 q 47 359 47 278 q 91 569 47 479 q 214 709 134 659 q 397 758 293 758 q 519 741 460 758 q 621 692 578 723 l 556 549 q 395 591 460 591 q 277 533 319 591 q 236 369 236 475 q 250 262 236 304 q 365 392 308 351 q 490 433 422 433 m 407 149 q 485 172 457 149 q 513 233 513 194 q 500 276 513 260 q 463 292 487 292 q 405 269 433 292 q 346 198 377 247 l 326 167 q 407 149 359 149 z "},"ɖ":{"ha":788,"x_min":53,"x_max":829,"o":"m 829 -271 q 716 -292 779 -292 q 506 -96 506 -292 l 506 77 q 320 -18 439 -18 q 123 83 193 -18 q 53 369 53 184 q 123 656 53 555 q 321 758 194 758 q 426 738 378 758 q 506 680 473 718 l 506 1044 l 690 1044 l 690 229 l 690 0 l 690 -83 q 702 -121 690 -110 q 739 -133 713 -133 q 803 -125 760 -133 l 829 -271 m 380 153 q 445 168 415 153 q 506 216 475 183 l 506 532 q 446 577 480 562 q 374 593 412 593 q 241 376 241 593 q 380 153 241 153 z "},"ɗ":{"ha":814,"x_min":53,"x_max":829,"o":"m 716 1067 q 829 1047 779 1067 l 803 901 q 739 909 760 909 q 702 897 713 909 q 690 859 690 886 l 690 655 l 690 45 l 690 0 l 524 0 l 524 106 q 320 -18 454 -18 q 123 83 193 -18 q 53 369 53 184 q 123 656 53 555 q 321 758 194 758 q 426 738 378 758 q 506 680 473 718 l 506 872 q 716 1067 506 1067 m 380 153 q 445 168 415 153 q 506 216 475 183 l 506 532 q 446 577 480 562 q 374 593 412 593 q 241 376 241 593 q 380 153 241 153 z "},"ɘ":{"ha":741,"x_min":45,"x_max":690,"o":"m 362 758 q 605 657 519 758 q 690 370 690 556 q 599 85 690 186 q 339 -16 507 -16 q 198 3 267 -16 q 75 56 129 22 l 140 193 q 319 149 229 149 q 503 312 481 149 l 53 312 q 45 401 45 351 q 127 665 45 571 q 362 758 210 758 m 366 597 q 267 555 302 597 q 228 435 231 513 l 505 435 q 366 597 487 597 z "},"ə":{"ha":741,"x_min":45,"x_max":690,"o":"m 339 757 q 599 656 507 757 q 690 370 690 555 q 605 84 690 186 q 362 -18 519 -18 q 127 76 210 -18 q 45 339 45 170 q 53 429 45 391 l 503 429 q 319 591 481 591 q 140 548 229 591 l 75 685 q 198 738 129 719 q 339 757 267 757 m 366 144 q 505 305 487 144 l 228 305 q 267 186 231 228 q 366 144 302 144 z "},"ɚ":{"ha":989,"x_min":45,"x_max":989,"o":"m 989 332 l 960 182 q 798 230 860 182 q 720 368 736 278 l 690 363 q 603 82 688 182 q 362 -18 518 -18 q 127 72 210 -18 q 45 326 45 161 q 52 395 45 363 l 496 464 q 319 591 463 591 q 140 548 229 591 l 75 685 q 198 738 129 719 q 339 757 267 757 q 563 689 476 757 q 678 495 650 621 l 883 525 l 878 467 q 876 430 876 450 q 897 356 876 380 q 960 332 917 332 l 989 332 m 366 144 q 506 338 498 144 l 228 294 q 267 183 231 222 q 366 144 302 144 z "},"ɛ":{"ha":663,"x_min":43,"x_max":642,"o":"m 642 41 q 515 -2 594 12 q 362 -16 435 -16 q 127 45 210 -16 q 43 222 43 107 q 82 333 43 290 q 182 395 121 376 q 102 457 130 418 q 73 548 73 496 q 156 706 73 654 q 359 758 239 758 q 606 705 494 758 l 556 566 q 385 608 469 608 q 262 521 262 608 q 291 461 262 480 q 381 442 320 442 l 503 442 l 503 312 l 373 312 q 266 296 300 312 q 232 233 232 279 q 378 138 232 138 q 484 151 431 138 q 578 183 536 163 l 642 41 z "},"ɜ":{"ha":663,"x_min":22,"x_max":620,"o":"m 481 395 q 581 333 543 376 q 620 222 620 290 q 530 46 620 109 q 285 -16 439 -16 q 141 -2 212 -16 q 22 41 71 12 l 85 183 q 274 138 175 138 q 388 161 345 138 q 431 233 431 184 q 397 296 431 279 q 290 312 363 312 l 160 312 l 160 442 l 282 442 q 372 461 343 442 q 401 521 401 480 q 367 585 401 563 q 269 608 332 608 q 107 566 194 608 l 57 705 q 301 758 170 758 q 508 709 426 758 q 590 548 590 659 q 562 457 590 496 q 481 395 533 418 z "},"ɝ":{"ha":894,"x_min":22,"x_max":894,"o":"m 894 484 l 865 334 q 703 382 765 334 q 625 519 642 430 l 586 514 q 551 444 578 475 q 481 395 524 414 q 581 333 543 376 q 620 222 620 290 q 530 46 620 109 q 285 -16 439 -16 q 141 -2 212 -16 q 22 41 71 12 l 85 183 q 274 138 175 138 q 388 161 345 138 q 431 233 431 184 q 397 296 431 279 q 290 312 363 312 l 160 312 l 160 442 l 282 442 q 372 461 343 442 q 401 521 401 480 q 367 585 401 563 q 269 608 332 608 q 107 566 194 608 l 57 705 q 301 758 170 758 q 465 731 393 758 q 568 644 536 704 l 788 677 l 783 618 q 781 582 781 602 q 802 508 781 532 q 865 484 822 484 l 894 484 z "},"ɞ":{"ha":777,"x_min":53,"x_max":734,"o":"m 595 395 q 695 333 656 376 q 734 222 734 290 q 644 46 734 109 q 407 -16 555 -16 q 53 370 53 -16 q 414 758 53 758 q 622 709 540 758 q 704 548 704 661 q 675 457 704 496 q 595 395 647 418 m 400 138 q 503 162 460 138 q 545 233 545 186 q 511 296 545 279 q 404 312 477 312 l 328 312 l 328 442 l 396 442 q 486 461 457 442 q 515 521 515 480 q 481 585 515 562 q 392 608 446 608 q 277 551 312 608 q 241 370 241 495 q 279 193 241 248 q 400 138 316 138 z "},"ɟ":{"ha":429,"x_min":-72,"x_max":418,"o":"m 418 315 l 307 315 l 307 66 q 278 -104 307 -38 q 182 -216 250 -171 q -11 -302 114 -262 l -72 -152 q 50 -97 8 -125 q 106 -31 91 -69 q 122 72 122 7 l 122 315 l 11 315 l 11 444 l 122 444 l 122 741 l 307 741 l 307 444 l 418 444 l 418 315 z "},"ɠ":{"ha":791,"x_min":53,"x_max":831,"o":"m 719 1067 q 831 1047 781 1067 l 806 901 q 742 909 762 909 q 705 897 716 909 q 693 859 693 886 l 693 547 l 693 30 q 604 -213 693 -127 q 353 -298 515 -298 q 222 -284 286 -298 q 106 -243 157 -270 l 157 -98 q 332 -137 248 -137 q 509 30 509 -137 l 509 118 q 323 23 442 23 q 123 119 194 23 q 53 389 53 214 q 124 662 53 566 q 324 758 195 758 q 429 738 381 758 q 509 680 476 718 l 509 872 q 719 1067 509 1067 m 382 194 q 448 209 418 194 q 509 256 477 224 l 509 532 q 449 577 483 562 q 377 593 415 593 q 241 396 241 593 q 382 194 241 194 z "},"ɡ":{"ha":791,"x_min":53,"x_max":693,"o":"m 693 741 l 693 30 q 604 -213 693 -127 q 353 -298 515 -298 q 222 -284 286 -298 q 106 -243 157 -270 l 157 -98 q 332 -137 248 -137 q 509 30 509 -137 l 509 118 q 323 23 442 23 q 123 119 194 23 q 53 389 53 214 q 124 662 53 566 q 324 758 195 758 q 442 732 389 758 q 526 655 495 705 l 526 741 l 693 741 m 382 194 q 448 209 418 194 q 509 256 477 224 l 509 532 q 449 577 483 562 q 377 593 415 593 q 241 396 241 593 q 382 194 241 194 z "},"ɢ":{"ha":788,"x_min":60,"x_max":715,"o":"m 715 449 l 715 52 q 597 3 666 20 q 456 -14 529 -14 q 163 86 266 -14 q 60 370 60 186 q 163 654 60 553 q 456 754 266 754 q 600 736 533 754 q 711 688 666 719 l 658 543 q 453 591 548 591 q 299 537 350 591 q 248 370 248 483 q 300 205 248 259 q 456 151 351 151 q 530 157 492 151 l 530 288 l 401 288 l 401 449 l 715 449 z "},"ɣ":{"ha":715,"x_min":19,"x_max":696,"o":"m 500 23 q 532 -67 522 -31 q 541 -134 541 -103 q 493 -256 541 -213 q 358 -298 445 -298 q 224 -256 271 -298 q 176 -134 176 -213 q 186 -67 176 -103 q 217 23 195 -31 l 279 174 l 19 741 l 205 741 l 358 368 l 511 741 l 696 741 l 437 178 l 500 23 m 358 -174 q 393 -118 393 -174 q 361 -4 393 -73 l 357 5 l 353 -4 q 320 -118 320 -73 q 358 -174 320 -174 z "}}}
